<?xml version="1.0" standalone="no"?>
<mlt LC_NUMERIC="C" version="6.25.0" title="Shotcut version 21.02.27" producer="main_bin">
  <profile description="automatic" width="1920" height="1080" progressive="1" sample_aspect_num="1" sample_aspect_den="1" display_aspect_num="1920" display_aspect_den="1080" frame_rate_num="25" frame_rate_den="1" colorspace="709"/>
  <playlist id="main_bin">
    <property name="xml_retain">1</property>
  </playlist>
  <producer id="black" in="00:00:00.000" out="00:14:25.040">
    <property name="length">00:14:25.080</property>
    <property name="eof">pause</property>
    <property name="resource">0</property>
    <property name="aspect_ratio">1</property>
    <property name="mlt_service">color</property>
    <property name="mlt_image_format">rgb24a</property>
    <property name="set.test_audio">0</property>
  </producer>
  <playlist id="background">
    <entry producer="black" in="00:00:00.000" out="00:14:25.040"/>
  </playlist>
  <producer id="producer5" in="00:00:00.000" out="03:59:59.960">
    <property name="length">04:00:00.000</property>
    <property name="eof">pause</property>
    <property name="resource">sources/images/jpg/guy_fawkes.jpg</property>
    <property name="ttl">1</property>
    <property name="aspect_ratio">1</property>
    <property name="progressive">1</property>
    <property name="seekable">1</property>
    <property name="mlt_service">qimage</property>
    <property name="creation_time">2021-03-05T05:27:57</property>
    <property name="shotcut:caption">guy_fawkes.jpg</property>
    <property name="shotcut:hash">b80c475d68523e3ba5882db9fae99392</property>
    <property name="ignore_points">0</property>
    <property name="global_feed">1</property>
    <property name="xml">was here</property>
    <filter id="filter6" out="00:00:11.920">
      <property name="start">1</property>
      <property name="level">00:00:00.000=0;00:00:00.960=1</property>
      <property name="mlt_service">brightness</property>
      <property name="shotcut:filter">fadeInBrightness</property>
      <property name="alpha">1</property>
      <property name="shotcut:animIn">00:00:01.000</property>
    </filter>
    <filter id="filter7" out="00:00:11.920">
      <property name="background">color:#00000000</property>
      <property name="mlt_service">affine</property>
      <property name="shotcut:filter">affineSizePosition</property>
      <property name="transition.fill">1</property>
      <property name="transition.distort">0</property>
      <property name="transition.rect">1228.87 132.83 629.422 353.263 1</property>
      <property name="transition.valign">middle</property>
      <property name="transition.halign">center</property>
      <property name="shotcut:animIn">00:00:00.000</property>
      <property name="shotcut:animOut">00:00:00.000</property>
      <property name="transition.threads">0</property>
      <property name="transition.fix_rotate_x">0</property>
    </filter>
    <filter id="filter0" out="00:00:11.920">
      <property name="start">1</property>
      <property name="level">00:00:10.960=1;00:00:11.920=0</property>
      <property name="mlt_service">brightness</property>
      <property name="shotcut:filter">fadeOutBrightness</property>
      <property name="alpha">1</property>
      <property name="shotcut:animOut">00:00:01.000</property>
    </filter>
  </producer>
  <producer id="producer6" in="00:00:00.000" out="03:59:59.960">
    <property name="length">04:00:00.000</property>
    <property name="eof">pause</property>
    <property name="resource">sources/images/jpg/call_of_duty.jpg</property>
    <property name="ttl">1</property>
    <property name="aspect_ratio">1</property>
    <property name="progressive">1</property>
    <property name="seekable">1</property>
    <property name="mlt_service">qimage</property>
    <property name="creation_time">2021-03-05T03:15:55</property>
    <property name="shotcut:caption">call_of_duty.jpg</property>
    <property name="shotcut:hash">527430b189c0bf59d259012020a8f92c</property>
    <property name="ignore_points">0</property>
    <property name="global_feed">1</property>
    <property name="xml">was here</property>
    <filter id="filter8" out="00:00:03.960">
      <property name="background">color:#00000000</property>
      <property name="mlt_service">affine</property>
      <property name="shotcut:filter">affineSizePosition</property>
      <property name="transition.fill">1</property>
      <property name="transition.distort">0</property>
      <property name="transition.rect">1248.08 151.328 599.455 337.193 1</property>
      <property name="transition.valign">middle</property>
      <property name="transition.halign">center</property>
      <property name="shotcut:animIn">00:00:00.000</property>
      <property name="shotcut:animOut">00:00:00.000</property>
      <property name="transition.threads">0</property>
    </filter>
    <filter id="filter9" out="00:00:03.960">
      <property name="start">1</property>
      <property name="level">00:00:00.000=0;00:00:00.960=1</property>
      <property name="mlt_service">brightness</property>
      <property name="shotcut:filter">fadeInBrightness</property>
      <property name="alpha">1</property>
      <property name="shotcut:animIn">00:00:01.000</property>
    </filter>
    <filter id="filter1" out="00:00:03.960">
      <property name="start">1</property>
      <property name="level">00:00:03.000=1;00:00:03.960=0</property>
      <property name="mlt_service">brightness</property>
      <property name="shotcut:filter">fadeOutBrightness</property>
      <property name="alpha">1</property>
      <property name="shotcut:animOut">00:00:01.000</property>
    </filter>
  </producer>
  <producer id="producer7" in="00:00:00.000" out="03:59:59.960">
    <property name="length">04:00:00.000</property>
    <property name="eof">pause</property>
    <property name="resource">sources/images/jpg/mein_schatz.jpg</property>
    <property name="ttl">1</property>
    <property name="aspect_ratio">1</property>
    <property name="progressive">1</property>
    <property name="seekable">1</property>
    <property name="mlt_service">qimage</property>
    <property name="creation_time">2021-03-05T03:20:25</property>
    <property name="shotcut:caption">mein_schatz.jpg</property>
    <property name="shotcut:hash">a35eefdea720986fc9a25f7feadd3f04</property>
    <property name="ignore_points">0</property>
    <property name="global_feed">1</property>
    <property name="xml">was here</property>
    <filter id="filter10" out="00:00:02.880">
      <property name="background">color:#00000000</property>
      <property name="mlt_service">affine</property>
      <property name="shotcut:filter">affineSizePosition</property>
      <property name="transition.fill">1</property>
      <property name="transition.distort">0</property>
      <property name="transition.rect">1385.63 119.064 320 400 1</property>
      <property name="transition.valign">middle</property>
      <property name="transition.halign">center</property>
      <property name="shotcut:animIn">00:00:00.000</property>
      <property name="shotcut:animOut">00:00:00.000</property>
      <property name="transition.threads">0</property>
    </filter>
    <filter id="filter11" out="00:00:02.880">
      <property name="start">1</property>
      <property name="level">00:00:00.000=0;00:00:00.960=1</property>
      <property name="mlt_service">brightness</property>
      <property name="shotcut:filter">fadeInBrightness</property>
      <property name="alpha">1</property>
      <property name="shotcut:animIn">00:00:01.000</property>
    </filter>
    <filter id="filter2" out="00:00:02.880">
      <property name="start">1</property>
      <property name="level">00:00:01.920=1;00:00:02.880=0</property>
      <property name="mlt_service">brightness</property>
      <property name="shotcut:filter">fadeOutBrightness</property>
      <property name="alpha">1</property>
      <property name="shotcut:animOut">00:00:01.000</property>
    </filter>
  </producer>
  <producer id="producer0" in="00:00:00.000" out="03:59:59.960">
    <property name="length">04:00:00.000</property>
    <property name="eof">pause</property>
    <property name="resource">sources/images/png/ezy.png</property>
    <property name="ttl">1</property>
    <property name="aspect_ratio">1</property>
    <property name="progressive">1</property>
    <property name="seekable">1</property>
    <property name="mlt_service">qimage</property>
    <property name="creation_time">2021-03-08T02:17:01</property>
    <property name="shotcut:caption">ezy.png</property>
    <property name="shotcut:hash">bd90cf64e697733015375c951f91207c</property>
    <property name="ignore_points">0</property>
    <property name="global_feed">1</property>
    <property name="xml">was here</property>
    <filter id="filter12" in="00:00:01.600" out="00:00:05.360">
      <property name="background">color:#00000000</property>
      <property name="mlt_service">affine</property>
      <property name="shotcut:filter">affineSizePosition</property>
      <property name="transition.fill">1</property>
      <property name="transition.distort">0</property>
      <property name="transition.rect">1297.38 64.9014 526.09 493.209 1</property>
      <property name="transition.valign">middle</property>
      <property name="transition.halign">center</property>
      <property name="shotcut:animIn">00:00:00.000</property>
      <property name="shotcut:animOut">00:00:00.000</property>
      <property name="transition.threads">0</property>
      <property name="transition.fix_rotate_x">0</property>
    </filter>
    <filter id="filter13" in="00:00:01.600" out="00:00:05.360">
      <property name="start">1</property>
      <property name="level">00:00:00.000=0;00:00:00.960=1</property>
      <property name="mlt_service">brightness</property>
      <property name="shotcut:filter">fadeInBrightness</property>
      <property name="alpha">1</property>
      <property name="shotcut:animIn">00:00:01.000</property>
    </filter>
    <filter id="filter3" in="00:00:01.600" out="00:00:05.360">
      <property name="start">1</property>
      <property name="level">00:00:02.800=1;00:00:03.760=0</property>
      <property name="mlt_service">brightness</property>
      <property name="shotcut:filter">fadeOutBrightness</property>
      <property name="alpha">1</property>
      <property name="shotcut:animOut">00:00:01.000</property>
    </filter>
  </producer>
  <producer id="producer9" in="00:00:00.000" out="03:59:59.960">
    <property name="length">04:00:00.000</property>
    <property name="eof">pause</property>
    <property name="resource">sources/images/gif/nopegida.gif</property>
    <property name="ttl">1</property>
    <property name="aspect_ratio">1</property>
    <property name="progressive">1</property>
    <property name="seekable">1</property>
    <property name="mlt_service">qimage</property>
    <property name="creation_time">2021-03-05T03:28:21</property>
    <property name="shotcut:caption">nopegida.gif</property>
    <property name="shotcut:hash">62e835190056ac7381c909d62bec6d17</property>
    <property name="ignore_points">0</property>
    <property name="global_feed">1</property>
    <property name="xml">was here</property>
    <filter id="filter14" out="00:00:03.280">
      <property name="background">color:#00000000</property>
      <property name="mlt_service">affine</property>
      <property name="shotcut:filter">affineSizePosition</property>
      <property name="transition.fill">1</property>
      <property name="transition.distort">0</property>
      <property name="transition.rect">1249.78 144.536 599.455 335.695 1</property>
      <property name="transition.valign">middle</property>
      <property name="transition.halign">center</property>
      <property name="shotcut:animIn">00:00:00.000</property>
      <property name="shotcut:animOut">00:00:00.000</property>
      <property name="transition.threads">0</property>
      <property name="transition.fix_rotate_x">0</property>
    </filter>
    <filter id="filter15" out="00:00:03.280">
      <property name="start">1</property>
      <property name="level">00:00:00.000=0;00:00:00.960=1</property>
      <property name="mlt_service">brightness</property>
      <property name="shotcut:filter">fadeInBrightness</property>
      <property name="alpha">1</property>
      <property name="shotcut:animIn">00:00:01.000</property>
    </filter>
    <filter id="filter4" out="00:00:03.280">
      <property name="start">1</property>
      <property name="level">00:00:02.320=1;00:00:03.280=0</property>
      <property name="mlt_service">brightness</property>
      <property name="shotcut:filter">fadeOutBrightness</property>
      <property name="alpha">1</property>
      <property name="shotcut:animOut">00:00:01.000</property>
    </filter>
  </producer>
  <producer id="producer1" in="00:00:00.000" out="03:59:59.960">
    <property name="length">04:00:00.000</property>
    <property name="eof">pause</property>
    <property name="resource">sources/images/jpg/nazidorf_jamel.jpg</property>
    <property name="ttl">1</property>
    <property name="aspect_ratio">1</property>
    <property name="progressive">1</property>
    <property name="seekable">1</property>
    <property name="mlt_service">qimage</property>
    <property name="creation_time">2021-03-08T02:23:10</property>
    <property name="shotcut:caption">nazidorf_jamel.jpg</property>
    <property name="shotcut:hash">7c0521b70e16a1304d03fc8a8f148e73</property>
    <property name="ignore_points">0</property>
    <property name="global_feed">1</property>
    <property name="xml">was here</property>
    <filter id="filter5" out="00:00:03.480">
      <property name="start">1</property>
      <property name="level">00:00:02.520=1;00:00:03.480=0</property>
      <property name="mlt_service">brightness</property>
      <property name="shotcut:filter">fadeOutBrightness</property>
      <property name="alpha">1</property>
      <property name="shotcut:animOut">00:00:01.000</property>
    </filter>
    <filter id="filter16" out="00:00:03.480">
      <property name="background">color:#00000000</property>
      <property name="mlt_service">affine</property>
      <property name="shotcut:filter">affineSizePosition</property>
      <property name="transition.fill">1</property>
      <property name="transition.distort">0</property>
      <property name="transition.rect">157.955 577.612 687.514 494.328 1</property>
      <property name="transition.valign">middle</property>
      <property name="transition.halign">center</property>
      <property name="shotcut:animIn">00:00:00.000</property>
      <property name="shotcut:animOut">00:00:00.000</property>
      <property name="transition.threads">0</property>
    </filter>
    <filter id="filter17" out="00:00:03.480">
      <property name="start">1</property>
      <property name="level">00:00:00.000=0;00:00:00.960=1</property>
      <property name="mlt_service">brightness</property>
      <property name="shotcut:filter">fadeInBrightness</property>
      <property name="alpha">1</property>
      <property name="shotcut:animIn">00:00:01.000</property>
    </filter>
  </producer>
  <producer id="producer11" in="00:00:00.000" out="03:59:59.960">
    <property name="length">04:00:00.000</property>
    <property name="eof">pause</property>
    <property name="resource">sources/images/jpg/jesuslatschen.jpg</property>
    <property name="ttl">1</property>
    <property name="aspect_ratio">1</property>
    <property name="progressive">1</property>
    <property name="seekable">1</property>
    <property name="mlt_service">qimage</property>
    <property name="creation_time">2021-03-05T05:09:57</property>
    <property name="shotcut:caption">jesuslatschen.jpg</property>
    <property name="shotcut:hash">74b9ba30a234c6011c6a0f33d8167cdb</property>
    <property name="ignore_points">0</property>
    <property name="global_feed">1</property>
    <property name="xml">was here</property>
    <filter id="filter18" out="00:00:03.600">
      <property name="background">color:#00000000</property>
      <property name="mlt_service">affine</property>
      <property name="shotcut:filter">affineSizePosition</property>
      <property name="transition.fill">1</property>
      <property name="transition.distort">0</property>
      <property name="transition.rect">1213.58 124.34 674.613 378.482 1</property>
      <property name="transition.valign">middle</property>
      <property name="transition.halign">center</property>
      <property name="shotcut:animIn">00:00:00.000</property>
      <property name="shotcut:animOut">00:00:00.000</property>
      <property name="transition.threads">0</property>
      <property name="transition.fix_rotate_x">0</property>
    </filter>
    <filter id="filter19" out="00:00:03.600">
      <property name="start">1</property>
      <property name="level">00:00:00.000=0;00:00:00.960=1</property>
      <property name="mlt_service">brightness</property>
      <property name="shotcut:filter">fadeInBrightness</property>
      <property name="alpha">1</property>
      <property name="shotcut:animIn">00:00:01.000</property>
    </filter>
    <filter id="filter20" out="00:00:03.600">
      <property name="start">1</property>
      <property name="level">00:00:02.640=1;00:00:03.600=0</property>
      <property name="mlt_service">brightness</property>
      <property name="shotcut:filter">fadeOutBrightness</property>
      <property name="alpha">1</property>
      <property name="shotcut:animOut">00:00:01.000</property>
    </filter>
  </producer>
  <producer id="producer12" in="00:00:00.000" out="03:59:59.960">
    <property name="length">04:00:00.000</property>
    <property name="eof">pause</property>
    <property name="resource">sources/images/png/calimero.png</property>
    <property name="ttl">1</property>
    <property name="aspect_ratio">1</property>
    <property name="progressive">1</property>
    <property name="seekable">1</property>
    <property name="mlt_service">qimage</property>
    <property name="creation_time">2021-03-05T05:16:31</property>
    <property name="shotcut:caption">calimero.png</property>
    <property name="shotcut:hash">8f696ad3356f0feb9b3ef926c3a65f98</property>
    <property name="ignore_points">0</property>
    <property name="global_feed">1</property>
    <property name="xml">was here</property>
    <filter id="filter21" out="00:00:03.000">
      <property name="background">color:#00000000</property>
      <property name="mlt_service">affine</property>
      <property name="shotcut:filter">affineSizePosition</property>
      <property name="transition.fill">1</property>
      <property name="transition.distort">0</property>
      <property name="transition.rect">1186.23 129.628 698.182 372 1</property>
      <property name="transition.valign">middle</property>
      <property name="transition.halign">center</property>
      <property name="shotcut:animIn">00:00:00.000</property>
      <property name="shotcut:animOut">00:00:00.000</property>
      <property name="transition.threads">0</property>
      <property name="transition.fix_rotate_x">0</property>
    </filter>
    <filter id="filter22" out="00:00:03.000">
      <property name="start">1</property>
      <property name="level">00:00:00.000=0;00:00:00.960=1</property>
      <property name="mlt_service">brightness</property>
      <property name="shotcut:filter">fadeInBrightness</property>
      <property name="alpha">1</property>
      <property name="shotcut:animIn">00:00:01.000</property>
    </filter>
    <filter id="filter23" out="00:00:03.000">
      <property name="start">1</property>
      <property name="level">00:00:02.040=1;00:00:03.000=0</property>
      <property name="mlt_service">brightness</property>
      <property name="shotcut:filter">fadeOutBrightness</property>
      <property name="alpha">1</property>
      <property name="shotcut:animOut">00:00:01.000</property>
    </filter>
  </producer>
  <producer id="producer13" in="00:00:00.000" out="03:59:59.960">
    <property name="length">04:00:00.000</property>
    <property name="eof">pause</property>
    <property name="resource">sources/images/jpg/xenophobia.jpg</property>
    <property name="ttl">1</property>
    <property name="aspect_ratio">1</property>
    <property name="progressive">1</property>
    <property name="seekable">1</property>
    <property name="mlt_service">qimage</property>
    <property name="creation_time">2021-03-05T03:40:07</property>
    <property name="shotcut:caption">xenophobia.jpg</property>
    <property name="shotcut:hash">10badb04646857e6308a4d407fe4922a</property>
    <property name="ignore_points">0</property>
    <property name="global_feed">1</property>
    <property name="xml">was here</property>
    <filter id="filter24" out="00:00:03.240">
      <property name="background">color:#00000000</property>
      <property name="mlt_service">affine</property>
      <property name="shotcut:filter">affineSizePosition</property>
      <property name="transition.fill">1</property>
      <property name="transition.distort">0</property>
      <property name="transition.rect">74.3835 622.821 854.307 415.543 1</property>
      <property name="transition.valign">middle</property>
      <property name="transition.halign">center</property>
      <property name="shotcut:animIn">00:00:00.000</property>
      <property name="shotcut:animOut">00:00:00.000</property>
      <property name="transition.threads">0</property>
      <property name="transition.fix_rotate_x">0</property>
    </filter>
    <filter id="filter25" out="00:00:03.240">
      <property name="start">1</property>
      <property name="level">00:00:00.000=0;00:00:00.960=1</property>
      <property name="mlt_service">brightness</property>
      <property name="shotcut:filter">fadeInBrightness</property>
      <property name="alpha">1</property>
      <property name="shotcut:animIn">00:00:01.000</property>
    </filter>
    <filter id="filter26" out="00:00:03.240">
      <property name="start">1</property>
      <property name="level">00:00:02.280=1;00:00:03.240=0</property>
      <property name="mlt_service">brightness</property>
      <property name="shotcut:filter">fadeOutBrightness</property>
      <property name="alpha">1</property>
      <property name="shotcut:animOut">00:00:01.000</property>
    </filter>
  </producer>
  <producer id="producer14" in="00:00:00.000" out="03:59:59.960">
    <property name="length">04:00:00.000</property>
    <property name="eof">pause</property>
    <property name="resource">sources/images/jpg/berliner_mauer.jpg</property>
    <property name="ttl">1</property>
    <property name="aspect_ratio">1</property>
    <property name="progressive">1</property>
    <property name="seekable">1</property>
    <property name="mlt_service">qimage</property>
    <property name="creation_time">2021-03-05T03:45:53</property>
    <property name="shotcut:caption">berliner_mauer.jpg</property>
    <property name="shotcut:hash">d67b50b47f37a855674b5cd686533e60</property>
    <property name="ignore_points">0</property>
    <property name="global_feed">1</property>
    <property name="xml">was here</property>
    <filter id="filter27" out="00:00:04.040">
      <property name="background">color:#00000000</property>
      <property name="mlt_service">affine</property>
      <property name="shotcut:filter">affineSizePosition</property>
      <property name="transition.fill">1</property>
      <property name="transition.distort">0</property>
      <property name="transition.rect">1246.39 142.838 599.455 337.193 1</property>
      <property name="transition.valign">middle</property>
      <property name="transition.halign">center</property>
      <property name="shotcut:animIn">00:00:00.000</property>
      <property name="shotcut:animOut">00:00:00.000</property>
      <property name="transition.threads">0</property>
      <property name="transition.fix_rotate_x">0</property>
    </filter>
    <filter id="filter28" out="00:00:04.040">
      <property name="start">1</property>
      <property name="level">00:00:00.000=0;00:00:00.960=1</property>
      <property name="mlt_service">brightness</property>
      <property name="shotcut:filter">fadeInBrightness</property>
      <property name="alpha">1</property>
      <property name="shotcut:animIn">00:00:01.000</property>
    </filter>
    <filter id="filter29" out="00:00:04.040">
      <property name="start">1</property>
      <property name="level">00:00:03.080=1;00:00:04.040=0</property>
      <property name="mlt_service">brightness</property>
      <property name="shotcut:filter">fadeOutBrightness</property>
      <property name="alpha">1</property>
      <property name="shotcut:animOut">00:00:01.000</property>
    </filter>
  </producer>
  <producer id="producer2" in="00:00:00.000" out="03:59:59.960">
    <property name="length">04:00:00.000</property>
    <property name="eof">pause</property>
    <property name="resource">sources/images/jpg/deutschland.jpg</property>
    <property name="ttl">1</property>
    <property name="aspect_ratio">1</property>
    <property name="progressive">1</property>
    <property name="seekable">1</property>
    <property name="mlt_service">qimage</property>
    <property name="creation_time">2021-03-05T10:07:53</property>
    <property name="shotcut:caption">deutschland.jpg</property>
    <property name="shotcut:hash">c4af23ec8f0cf62ed780491ba9440043</property>
    <property name="ignore_points">0</property>
    <property name="global_feed">1</property>
    <property name="xml">was here</property>
    <filter id="filter90" in="00:00:00.040" out="00:00:14.480">
      <property name="background">color:#00000000</property>
      <property name="mlt_service">affine</property>
      <property name="shotcut:filter">affineSizePosition</property>
      <property name="transition.fill">1</property>
      <property name="transition.distort">0</property>
      <property name="transition.rect">121.449 593.268 702.295 458.377 1</property>
      <property name="transition.valign">middle</property>
      <property name="transition.halign">center</property>
      <property name="shotcut:animIn">00:00:00.000</property>
      <property name="shotcut:animOut">00:00:00.000</property>
      <property name="transition.threads">0</property>
      <property name="transition.fix_rotate_x">0</property>
    </filter>
    <filter id="filter91" in="00:00:00.040" out="00:00:14.480">
      <property name="start">1</property>
      <property name="level">00:00:00.000=0;00:00:00.960=1</property>
      <property name="mlt_service">brightness</property>
      <property name="shotcut:filter">fadeInBrightness</property>
      <property name="alpha">1</property>
      <property name="shotcut:animIn">00:00:01.000</property>
    </filter>
    <filter id="filter30" in="00:00:00.040" out="00:00:14.480">
      <property name="start">1</property>
      <property name="level">00:00:13.480=1;00:00:14.440=0</property>
      <property name="mlt_service">brightness</property>
      <property name="shotcut:filter">fadeOutBrightness</property>
      <property name="alpha">1</property>
      <property name="shotcut:animOut">00:00:01.000</property>
    </filter>
  </producer>
  <producer id="producer15" in="00:00:00.000" out="03:59:59.960">
    <property name="length">04:00:00.000</property>
    <property name="eof">pause</property>
    <property name="resource">sources/images/png/antifa2.png</property>
    <property name="ttl">1</property>
    <property name="aspect_ratio">1</property>
    <property name="progressive">1</property>
    <property name="seekable">1</property>
    <property name="mlt_service">qimage</property>
    <property name="creation_time">2021-03-05T03:55:15</property>
    <property name="shotcut:caption">antifa2.png</property>
    <property name="shotcut:hash">7b33f44d31709c5717e1bedc400849d1</property>
    <property name="ignore_points">0</property>
    <property name="global_feed">1</property>
    <property name="xml">was here</property>
    <filter id="filter31" out="00:00:07.280">
      <property name="background">color:#00000000</property>
      <property name="mlt_service">affine</property>
      <property name="shotcut:filter">affineSizePosition</property>
      <property name="transition.fill">1</property>
      <property name="transition.distort">0</property>
      <property name="transition.rect">1343.18 113.97 400 400 1</property>
      <property name="transition.valign">middle</property>
      <property name="transition.halign">center</property>
      <property name="shotcut:animIn">00:00:00.000</property>
      <property name="shotcut:animOut">00:00:00.000</property>
      <property name="transition.threads">0</property>
    </filter>
    <filter id="filter32" out="00:00:07.280">
      <property name="start">1</property>
      <property name="level">00:00:00.000=0;00:00:00.960=1</property>
      <property name="mlt_service">brightness</property>
      <property name="shotcut:filter">fadeInBrightness</property>
      <property name="alpha">1</property>
      <property name="shotcut:animIn">00:00:01.000</property>
    </filter>
    <filter id="filter33" in="00:00:00.040" out="00:00:07.280">
      <property name="start">1</property>
      <property name="level">00:00:06.280=1;00:00:07.240=0</property>
      <property name="mlt_service">brightness</property>
      <property name="shotcut:filter">fadeOutBrightness</property>
      <property name="alpha">1</property>
      <property name="shotcut:animOut">00:00:01.000</property>
    </filter>
  </producer>
  <producer id="producer16" in="00:00:00.000" out="03:59:59.960">
    <property name="length">04:00:00.000</property>
    <property name="eof">pause</property>
    <property name="resource">sources/images/jpg/reminder.jpg</property>
    <property name="ttl">1</property>
    <property name="aspect_ratio">1</property>
    <property name="progressive">1</property>
    <property name="seekable">1</property>
    <property name="mlt_service">qimage</property>
    <property name="creation_time">2021-03-05T03:56:24</property>
    <property name="shotcut:caption">reminder.jpg</property>
    <property name="shotcut:hash">84732eec9c4a4d34014b8eefd03de08e</property>
    <property name="ignore_points">0</property>
    <property name="global_feed">1</property>
    <property name="xml">was here</property>
    <filter id="filter34" out="00:00:07.000">
      <property name="background">color:#00000000</property>
      <property name="mlt_service">affine</property>
      <property name="shotcut:filter">affineSizePosition</property>
      <property name="transition.fill">1</property>
      <property name="transition.distort">0</property>
      <property name="transition.rect">1328.88 145.195 480.193 369.21 1</property>
      <property name="transition.valign">middle</property>
      <property name="transition.halign">center</property>
      <property name="shotcut:animIn">00:00:00.000</property>
      <property name="shotcut:animOut">00:00:00.000</property>
      <property name="transition.threads">0</property>
      <property name="transition.fix_rotate_x">0</property>
    </filter>
    <filter id="filter35" out="00:00:07.000">
      <property name="start">1</property>
      <property name="level">00:00:00.000=0;00:00:00.960=1</property>
      <property name="mlt_service">brightness</property>
      <property name="shotcut:filter">fadeInBrightness</property>
      <property name="alpha">1</property>
      <property name="shotcut:animIn">00:00:01.000</property>
    </filter>
  </producer>
  <producer id="producer17" in="00:00:00.000" out="03:59:59.960">
    <property name="length">04:00:00.000</property>
    <property name="eof">pause</property>
    <property name="resource">sources/images/jpg/axel_stoll.jpg</property>
    <property name="ttl">1</property>
    <property name="aspect_ratio">1</property>
    <property name="progressive">1</property>
    <property name="seekable">1</property>
    <property name="mlt_service">qimage</property>
    <property name="creation_time">2021-03-05T04:03:20</property>
    <property name="shotcut:caption">axel_stoll.jpg</property>
    <property name="shotcut:hash">0ab04af098510d1000872ed50d5a38b9</property>
    <property name="ignore_points">0</property>
    <property name="global_feed">1</property>
    <property name="xml">was here</property>
    <filter id="filter36" out="00:00:06.640">
      <property name="background">color:#00000000</property>
      <property name="mlt_service">affine</property>
      <property name="shotcut:filter">affineSizePosition</property>
      <property name="transition.fill">1</property>
      <property name="transition.distort">0</property>
      <property name="transition.rect">1246.39 166.611 599.455 300.673 1</property>
      <property name="transition.valign">middle</property>
      <property name="transition.halign">center</property>
      <property name="shotcut:animIn">00:00:00.000</property>
      <property name="shotcut:animOut">00:00:00.000</property>
      <property name="transition.threads">0</property>
      <property name="transition.fix_rotate_x">0</property>
    </filter>
    <filter id="filter37" out="00:00:06.640">
      <property name="start">1</property>
      <property name="level">00:00:00.000=0;00:00:00.960=1</property>
      <property name="mlt_service">brightness</property>
      <property name="shotcut:filter">fadeInBrightness</property>
      <property name="alpha">1</property>
      <property name="shotcut:animIn">00:00:01.000</property>
    </filter>
    <filter id="filter38" out="00:00:06.640">
      <property name="start">1</property>
      <property name="level">00:00:05.680=1;00:00:06.640=0</property>
      <property name="mlt_service">brightness</property>
      <property name="shotcut:filter">fadeOutBrightness</property>
      <property name="alpha">1</property>
      <property name="shotcut:animOut">00:00:01.000</property>
    </filter>
  </producer>
  <producer id="producer18" in="00:00:00.000" out="03:59:59.960">
    <property name="length">04:00:00.000</property>
    <property name="eof">pause</property>
    <property name="resource">sources/images/jpg/voelkerschlachtdenkmal.jpg</property>
    <property name="ttl">1</property>
    <property name="aspect_ratio">1</property>
    <property name="progressive">1</property>
    <property name="seekable">1</property>
    <property name="mlt_service">qimage</property>
    <property name="shotcut:caption">voelkerschlachtdenkmal.jpg</property>
    <property name="shotcut:hash">dd4b9d8eef31528261ed22f6f0f8834b</property>
    <property name="ignore_points">0</property>
    <property name="global_feed">1</property>
    <property name="xml">was here</property>
    <filter id="filter39" out="00:00:03.560">
      <property name="background">color:#00000000</property>
      <property name="mlt_service">affine</property>
      <property name="shotcut:filter">affineSizePosition</property>
      <property name="transition.fill">1</property>
      <property name="transition.distort">0</property>
      <property name="transition.rect">1398.22 61.0747 338.427 507.64 1</property>
      <property name="transition.valign">middle</property>
      <property name="transition.halign">center</property>
      <property name="shotcut:animIn">00:00:00.000</property>
      <property name="shotcut:animOut">00:00:00.000</property>
      <property name="transition.threads">0</property>
    </filter>
    <filter id="filter40" out="00:00:03.560">
      <property name="start">1</property>
      <property name="level">00:00:00.000=0;00:00:00.960=1</property>
      <property name="mlt_service">brightness</property>
      <property name="shotcut:filter">fadeInBrightness</property>
      <property name="alpha">1</property>
      <property name="shotcut:animIn">00:00:01.000</property>
    </filter>
    <filter id="filter41" out="00:00:03.560">
      <property name="start">1</property>
      <property name="level">00:00:02.600=1;00:00:03.560=0</property>
      <property name="mlt_service">brightness</property>
      <property name="shotcut:filter">fadeOutBrightness</property>
      <property name="alpha">1</property>
      <property name="shotcut:animOut">00:00:01.000</property>
    </filter>
  </producer>
  <producer id="producer19" in="00:00:00.000" out="03:59:59.960">
    <property name="length">04:00:00.000</property>
    <property name="eof">pause</property>
    <property name="resource">sources/images/jpg/mensa.jpg</property>
    <property name="ttl">1</property>
    <property name="aspect_ratio">1</property>
    <property name="progressive">1</property>
    <property name="seekable">1</property>
    <property name="mlt_service">qimage</property>
    <property name="creation_time">2021-03-05T04:15:13</property>
    <property name="shotcut:caption">mensa.jpg</property>
    <property name="shotcut:hash">c64b672a67fbb00be04cb8c1a2389632</property>
    <property name="ignore_points">0</property>
    <property name="global_feed">1</property>
    <property name="xml">was here</property>
    <filter id="filter42" out="00:00:03.440">
      <property name="background">color:#00000000</property>
      <property name="mlt_service">affine</property>
      <property name="shotcut:filter">affineSizePosition</property>
      <property name="transition.fill">1</property>
      <property name="transition.distort">0</property>
      <property name="transition.rect">1330.3 74.1018 494.03 494.03 1</property>
      <property name="transition.valign">middle</property>
      <property name="transition.halign">center</property>
      <property name="shotcut:animIn">00:00:00.000</property>
      <property name="shotcut:animOut">00:00:00.000</property>
      <property name="transition.threads">0</property>
    </filter>
    <filter id="filter43" out="00:00:03.440">
      <property name="start">1</property>
      <property name="level">00:00:00.000=0;00:00:00.960=1</property>
      <property name="mlt_service">brightness</property>
      <property name="shotcut:filter">fadeInBrightness</property>
      <property name="alpha">1</property>
      <property name="shotcut:animIn">00:00:01.000</property>
    </filter>
    <filter id="filter44" out="00:00:03.440">
      <property name="start">1</property>
      <property name="level">00:00:02.480=1;00:00:03.440=0</property>
      <property name="mlt_service">brightness</property>
      <property name="shotcut:filter">fadeOutBrightness</property>
      <property name="alpha">1</property>
      <property name="shotcut:animOut">00:00:01.000</property>
    </filter>
  </producer>
  <producer id="producer20" in="00:00:00.000" out="03:59:59.960">
    <property name="length">04:00:00.000</property>
    <property name="eof">pause</property>
    <property name="resource">sources/images/jpg/nazis_toeten.jpg</property>
    <property name="ttl">1</property>
    <property name="aspect_ratio">1</property>
    <property name="progressive">1</property>
    <property name="seekable">1</property>
    <property name="mlt_service">qimage</property>
    <property name="shotcut:caption">nazis_toeten.jpg</property>
    <property name="shotcut:hash">9889a2a7005334d0b218d3e234ec3600</property>
    <property name="ignore_points">0</property>
    <property name="global_feed">1</property>
    <property name="xml">was here</property>
    <filter id="filter45" out="00:00:03.840">
      <property name="background">color:#00000000</property>
      <property name="mlt_service">affine</property>
      <property name="shotcut:filter">affineSizePosition</property>
      <property name="transition.fill">1</property>
      <property name="transition.distort">0</property>
      <property name="transition.rect">1372.05 22.2715 337.169 563.019 1</property>
      <property name="transition.valign">middle</property>
      <property name="transition.halign">center</property>
      <property name="shotcut:animIn">00:00:00.000</property>
      <property name="shotcut:animOut">00:00:00.000</property>
      <property name="transition.threads">0</property>
      <property name="transition.fix_rotate_x">0</property>
    </filter>
    <filter id="filter46" out="00:00:03.840">
      <property name="start">1</property>
      <property name="level">00:00:00.000=0;00:00:00.960=1</property>
      <property name="mlt_service">brightness</property>
      <property name="shotcut:filter">fadeInBrightness</property>
      <property name="alpha">1</property>
      <property name="shotcut:animIn">00:00:01.000</property>
    </filter>
  </producer>
  <producer id="producer21" in="00:00:00.000" out="03:59:59.960">
    <property name="length">04:00:00.000</property>
    <property name="eof">pause</property>
    <property name="resource">sources/images/jpg/helene_fischer_wm_2014.jpg</property>
    <property name="ttl">1</property>
    <property name="aspect_ratio">1</property>
    <property name="progressive">1</property>
    <property name="seekable">1</property>
    <property name="mlt_service">qimage</property>
    <property name="creation_time">2021-03-05T03:52:08</property>
    <property name="shotcut:caption">helene_fischer_wm_2014.jpg</property>
    <property name="shotcut:hash">9399e17d6482f4259fee580526d38f97</property>
    <property name="ignore_points">0</property>
    <property name="global_feed">1</property>
    <property name="xml">was here</property>
    <filter id="filter47" out="00:00:04.200">
      <property name="background">color:#00000000</property>
      <property name="mlt_service">affine</property>
      <property name="shotcut:filter">affineSizePosition</property>
      <property name="transition.fill">1</property>
      <property name="transition.distort">0</property>
      <property name="transition.rect">200.348 614.913 610.475 446.467 1</property>
      <property name="transition.valign">middle</property>
      <property name="transition.halign">center</property>
      <property name="shotcut:animIn">00:00:00.000</property>
      <property name="shotcut:animOut">00:00:00.000</property>
      <property name="transition.threads">0</property>
    </filter>
    <filter id="filter48" out="00:00:04.200">
      <property name="start">1</property>
      <property name="level">00:00:00.000=0;00:00:00.960=1</property>
      <property name="mlt_service">brightness</property>
      <property name="shotcut:filter">fadeInBrightness</property>
      <property name="alpha">1</property>
      <property name="shotcut:animIn">00:00:01.000</property>
    </filter>
  </producer>
  <producer id="producer22" in="00:00:00.000" out="03:59:59.960">
    <property name="length">04:00:00.000</property>
    <property name="eof">pause</property>
    <property name="resource">sources/images/jpg/feuerzangenbowle.jpg</property>
    <property name="ttl">1</property>
    <property name="aspect_ratio">1</property>
    <property name="progressive">1</property>
    <property name="seekable">1</property>
    <property name="mlt_service">qimage</property>
    <property name="creation_time">2021-03-05T04:30:13</property>
    <property name="shotcut:caption">feuerzangenbowle.jpg</property>
    <property name="shotcut:hash">1b2055b1cd38b9c1aede15f598a45f05</property>
    <property name="ignore_points">0</property>
    <property name="global_feed">1</property>
    <property name="xml">was here</property>
    <filter id="filter49" in="00:00:01.560" out="00:00:05.600">
      <property name="background">color:#00000000</property>
      <property name="mlt_service">affine</property>
      <property name="shotcut:filter">affineSizePosition</property>
      <property name="transition.fill">1</property>
      <property name="transition.distort">0</property>
      <property name="transition.rect">1346.57 35.8564 360.668 542.642 1</property>
      <property name="transition.valign">middle</property>
      <property name="transition.halign">center</property>
      <property name="shotcut:animIn">00:00:00.000</property>
      <property name="shotcut:animOut">00:00:00.000</property>
      <property name="transition.threads">0</property>
      <property name="transition.fix_rotate_x">0</property>
    </filter>
    <filter id="filter50" in="00:00:01.560" out="00:00:05.600">
      <property name="start">1</property>
      <property name="level">00:00:00.000=0;00:00:00.960=1</property>
      <property name="mlt_service">brightness</property>
      <property name="shotcut:filter">fadeInBrightness</property>
      <property name="alpha">1</property>
      <property name="shotcut:animIn">00:00:01.000</property>
    </filter>
  </producer>
  <producer id="producer23" in="00:00:00.000" out="03:59:59.960">
    <property name="length">04:00:00.000</property>
    <property name="eof">pause</property>
    <property name="resource">sources/images/jpg/socks_with_sandals.jpg</property>
    <property name="ttl">1</property>
    <property name="aspect_ratio">1</property>
    <property name="progressive">1</property>
    <property name="seekable">1</property>
    <property name="mlt_service">qimage</property>
    <property name="creation_time">2021-03-05T05:50:30</property>
    <property name="shotcut:caption">socks_with_sandals.jpg</property>
    <property name="shotcut:hash">52fa09f898c3eaeed591b9c0199c602a</property>
    <property name="ignore_points">0</property>
    <property name="global_feed">1</property>
    <property name="xml">was here</property>
    <filter id="filter51" out="00:00:03.440">
      <property name="background">color:#00000000</property>
      <property name="mlt_service">affine</property>
      <property name="shotcut:filter">affineSizePosition</property>
      <property name="transition.fill">1</property>
      <property name="transition.distort">0</property>
      <property name="transition.rect">1282.05 10.3848 538.988 575.991 1</property>
      <property name="transition.valign">middle</property>
      <property name="transition.halign">center</property>
      <property name="shotcut:animIn">00:00:00.000</property>
      <property name="shotcut:animOut">00:00:00.000</property>
      <property name="transition.threads">0</property>
      <property name="transition.fix_rotate_x">0</property>
    </filter>
    <filter id="filter52" out="00:00:03.440">
      <property name="start">1</property>
      <property name="level">00:00:00.000=0;00:00:00.960=1</property>
      <property name="mlt_service">brightness</property>
      <property name="shotcut:filter">fadeInBrightness</property>
      <property name="alpha">1</property>
      <property name="shotcut:animIn">00:00:01.000</property>
    </filter>
  </producer>
  <producer id="producer24" in="00:00:00.000" out="03:59:59.960">
    <property name="length">04:00:00.000</property>
    <property name="eof">pause</property>
    <property name="resource">sources/images/jpg/bowl_medina.jpg</property>
    <property name="ttl">1</property>
    <property name="aspect_ratio">1</property>
    <property name="progressive">1</property>
    <property name="seekable">1</property>
    <property name="mlt_service">qimage</property>
    <property name="creation_time">2021-03-05T05:43:03</property>
    <property name="shotcut:caption">bowl_medina.jpg</property>
    <property name="shotcut:hash">f95cc5a818644986d38226860dcb5c30</property>
    <property name="ignore_points">0</property>
    <property name="global_feed">1</property>
    <property name="xml">was here</property>
    <filter id="filter53" in="00:00:01.240" out="00:00:04.120">
      <property name="background">color:#00000000</property>
      <property name="mlt_service">affine</property>
      <property name="shotcut:filter">affineSizePosition</property>
      <property name="transition.fill">1</property>
      <property name="transition.distort">0</property>
      <property name="transition.rect">1309.02 107.177 450.285 442.565 1</property>
      <property name="transition.valign">middle</property>
      <property name="transition.halign">center</property>
      <property name="shotcut:animIn">00:00:00.000</property>
      <property name="shotcut:animOut">00:00:00.000</property>
      <property name="transition.threads">0</property>
      <property name="transition.fix_rotate_x">0</property>
    </filter>
    <filter id="filter54" in="00:00:01.240" out="00:00:04.120">
      <property name="start">1</property>
      <property name="level">00:00:00.000=0;00:00:00.960=1</property>
      <property name="mlt_service">brightness</property>
      <property name="shotcut:filter">fadeInBrightness</property>
      <property name="alpha">1</property>
      <property name="shotcut:animIn">00:00:01.000</property>
    </filter>
  </producer>
  <producer id="producer3" in="00:00:00.000" out="03:59:59.960">
    <property name="length">04:00:00.000</property>
    <property name="eof">pause</property>
    <property name="resource">sources/images/png/haydn01.png</property>
    <property name="ttl">1</property>
    <property name="aspect_ratio">1</property>
    <property name="progressive">1</property>
    <property name="seekable">1</property>
    <property name="mlt_service">qimage</property>
    <property name="creation_time">2021-03-09T07:33:27</property>
    <property name="shotcut:caption">haydn01.png</property>
    <property name="shotcut:hash">96415dcadb6866b9db2fd2294770e163</property>
    <property name="ignore_points">0</property>
    <property name="global_feed">1</property>
    <property name="xml">was here</property>
    <filter id="filter55" out="00:00:03.960">
      <property name="background">color:#00000000</property>
      <property name="mlt_service">affine</property>
      <property name="shotcut:filter">affineSizePosition</property>
      <property name="transition.fill">1</property>
      <property name="transition.distort">0</property>
      <property name="transition.rect">129.351 603.117 837.818 471.273 1</property>
      <property name="transition.valign">middle</property>
      <property name="transition.halign">center</property>
      <property name="shotcut:animIn">00:00:00.000</property>
      <property name="shotcut:animOut">00:00:00.000</property>
      <property name="transition.threads">0</property>
    </filter>
  </producer>
  <producer id="producer4" in="00:00:00.000" out="03:59:59.960">
    <property name="length">04:00:00.000</property>
    <property name="eof">pause</property>
    <property name="resource">sources/images/png/haydn02.png</property>
    <property name="ttl">1</property>
    <property name="aspect_ratio">1</property>
    <property name="progressive">1</property>
    <property name="seekable">1</property>
    <property name="mlt_service">qimage</property>
    <property name="creation_time">2021-03-09T07:33:38</property>
    <property name="shotcut:caption">haydn02.png</property>
    <property name="shotcut:hash">9e06cd878e7daacbb0047231a31f8e00</property>
    <property name="ignore_points">0</property>
    <property name="global_feed">1</property>
    <property name="xml">was here</property>
    <filter id="filter56" out="00:00:03.960">
      <property name="background">color:#00000000</property>
      <property name="mlt_service">affine</property>
      <property name="shotcut:filter">affineSizePosition</property>
      <property name="transition.fill">1</property>
      <property name="transition.distort">0</property>
      <property name="transition.rect">129.351 603.117 837.818 471.273 1</property>
      <property name="transition.valign">middle</property>
      <property name="transition.halign">center</property>
      <property name="shotcut:animIn">00:00:00.000</property>
      <property name="shotcut:animOut">00:00:00.000</property>
      <property name="transition.threads">0</property>
    </filter>
  </producer>
  <producer id="producer8" in="00:00:00.000" out="03:59:59.960">
    <property name="length">04:00:00.000</property>
    <property name="eof">pause</property>
    <property name="resource">sources/images/png/haydn03.png</property>
    <property name="ttl">1</property>
    <property name="aspect_ratio">1</property>
    <property name="progressive">1</property>
    <property name="seekable">1</property>
    <property name="mlt_service">qimage</property>
    <property name="creation_time">2021-03-09T07:33:47</property>
    <property name="shotcut:caption">haydn03.png</property>
    <property name="shotcut:hash">5319286ca9e512b99672c7169fe75453</property>
    <property name="ignore_points">0</property>
    <property name="global_feed">1</property>
    <property name="xml">was here</property>
    <filter id="filter57" out="00:00:03.960">
      <property name="background">color:#00000000</property>
      <property name="mlt_service">affine</property>
      <property name="shotcut:filter">affineSizePosition</property>
      <property name="transition.fill">1</property>
      <property name="transition.distort">0</property>
      <property name="transition.rect">129.351 603.117 837.818 471.273 1</property>
      <property name="transition.valign">middle</property>
      <property name="transition.halign">center</property>
      <property name="shotcut:animIn">00:00:00.000</property>
      <property name="shotcut:animOut">00:00:00.000</property>
      <property name="transition.threads">0</property>
    </filter>
  </producer>
  <producer id="producer10" in="00:00:00.000" out="03:59:59.960">
    <property name="length">04:00:00.000</property>
    <property name="eof">pause</property>
    <property name="resource">sources/images/png/haydn04.png</property>
    <property name="ttl">1</property>
    <property name="aspect_ratio">1</property>
    <property name="progressive">1</property>
    <property name="seekable">1</property>
    <property name="mlt_service">qimage</property>
    <property name="creation_time">2021-03-09T07:33:58</property>
    <property name="shotcut:caption">haydn04.png</property>
    <property name="shotcut:hash">2843e392a629e2fe1c3f8daa68cc74f6</property>
    <property name="ignore_points">0</property>
    <property name="global_feed">1</property>
    <property name="xml">was here</property>
    <filter id="filter58" out="00:00:03.960">
      <property name="background">color:#00000000</property>
      <property name="mlt_service">affine</property>
      <property name="shotcut:filter">affineSizePosition</property>
      <property name="transition.fill">1</property>
      <property name="transition.distort">0</property>
      <property name="transition.rect">129.351 603.117 837.818 471.273 1</property>
      <property name="transition.valign">middle</property>
      <property name="transition.halign">center</property>
      <property name="shotcut:animIn">00:00:00.000</property>
      <property name="shotcut:animOut">00:00:00.000</property>
      <property name="transition.threads">0</property>
    </filter>
  </producer>
  <producer id="producer25" in="00:00:00.000" out="03:59:59.960">
    <property name="length">04:00:00.000</property>
    <property name="eof">pause</property>
    <property name="resource">sources/images/png/haydn05.png</property>
    <property name="ttl">1</property>
    <property name="aspect_ratio">1</property>
    <property name="progressive">1</property>
    <property name="seekable">1</property>
    <property name="mlt_service">qimage</property>
    <property name="creation_time">2021-03-09T07:39:57</property>
    <property name="shotcut:caption">haydn05.png</property>
    <property name="shotcut:hash">9e18b84ca05a3b7765f4709390e09cc7</property>
    <property name="ignore_points">0</property>
    <property name="global_feed">1</property>
    <property name="xml">was here</property>
    <filter id="filter59" out="00:00:03.960">
      <property name="background">color:#00000000</property>
      <property name="mlt_service">affine</property>
      <property name="shotcut:filter">affineSizePosition</property>
      <property name="transition.fill">1</property>
      <property name="transition.distort">0</property>
      <property name="transition.rect">129.351 603.117 837.818 471.273 1</property>
      <property name="transition.valign">middle</property>
      <property name="transition.halign">center</property>
      <property name="shotcut:animIn">00:00:00.000</property>
      <property name="shotcut:animOut">00:00:00.000</property>
      <property name="transition.threads">0</property>
    </filter>
  </producer>
  <producer id="producer26" in="00:00:00.000" out="03:59:59.960">
    <property name="length">04:00:00.000</property>
    <property name="eof">pause</property>
    <property name="resource">sources/images/png/haydn06.png</property>
    <property name="ttl">1</property>
    <property name="aspect_ratio">1</property>
    <property name="progressive">1</property>
    <property name="seekable">1</property>
    <property name="mlt_service">qimage</property>
    <property name="creation_time">2021-03-09T07:39:41</property>
    <property name="shotcut:caption">haydn06.png</property>
    <property name="shotcut:hash">305e15607c4e1980db1e8c4ebee18ff7</property>
    <property name="ignore_points">0</property>
    <property name="global_feed">1</property>
    <property name="xml">was here</property>
    <filter id="filter60" out="00:00:03.960">
      <property name="background">color:#00000000</property>
      <property name="mlt_service">affine</property>
      <property name="shotcut:filter">affineSizePosition</property>
      <property name="transition.fill">1</property>
      <property name="transition.distort">0</property>
      <property name="transition.rect">129.351 603.117 837.818 471.273 1</property>
      <property name="transition.valign">middle</property>
      <property name="transition.halign">center</property>
      <property name="shotcut:animIn">00:00:00.000</property>
      <property name="shotcut:animOut">00:00:00.000</property>
      <property name="transition.threads">0</property>
    </filter>
  </producer>
  <producer id="producer27" in="00:00:00.000" out="03:59:59.960">
    <property name="length">04:00:00.000</property>
    <property name="eof">pause</property>
    <property name="resource">sources/images/png/haydn07.png</property>
    <property name="ttl">1</property>
    <property name="aspect_ratio">1</property>
    <property name="progressive">1</property>
    <property name="seekable">1</property>
    <property name="mlt_service">qimage</property>
    <property name="creation_time">2021-03-09T07:44:40</property>
    <property name="shotcut:caption">haydn07.png</property>
    <property name="shotcut:hash">c009b2b1b24446676f25b8dcd862e1c0</property>
    <property name="ignore_points">0</property>
    <property name="global_feed">1</property>
    <property name="xml">was here</property>
    <filter id="filter61" out="00:00:03.960">
      <property name="background">color:#00000000</property>
      <property name="mlt_service">affine</property>
      <property name="shotcut:filter">affineSizePosition</property>
      <property name="transition.fill">1</property>
      <property name="transition.distort">0</property>
      <property name="transition.rect">129.351 603.117 837.818 471.273 1</property>
      <property name="transition.valign">middle</property>
      <property name="transition.halign">center</property>
      <property name="shotcut:animIn">00:00:00.000</property>
      <property name="shotcut:animOut">00:00:00.000</property>
      <property name="transition.threads">0</property>
    </filter>
  </producer>
  <producer id="producer28" in="00:00:00.000" out="03:59:59.960">
    <property name="length">04:00:00.000</property>
    <property name="eof">pause</property>
    <property name="resource">sources/images/png/haydn08.png</property>
    <property name="ttl">1</property>
    <property name="aspect_ratio">1</property>
    <property name="progressive">1</property>
    <property name="seekable">1</property>
    <property name="mlt_service">qimage</property>
    <property name="creation_time">2021-03-09T07:45:15</property>
    <property name="shotcut:caption">haydn08.png</property>
    <property name="shotcut:hash">d073ca2334dc4ace83bd7700a1d910d2</property>
    <property name="ignore_points">0</property>
    <property name="global_feed">1</property>
    <property name="xml">was here</property>
    <filter id="filter62" out="00:00:04.080">
      <property name="background">color:#00000000</property>
      <property name="mlt_service">affine</property>
      <property name="shotcut:filter">affineSizePosition</property>
      <property name="transition.fill">1</property>
      <property name="transition.distort">0</property>
      <property name="transition.rect">129.351 603.117 837.818 471.273 1</property>
      <property name="transition.valign">middle</property>
      <property name="transition.halign">center</property>
      <property name="shotcut:animIn">00:00:00.000</property>
      <property name="shotcut:animOut">00:00:00.000</property>
      <property name="transition.threads">0</property>
    </filter>
  </producer>
  <producer id="producer29" in="00:00:00.000" out="03:59:59.960">
    <property name="length">04:00:00.000</property>
    <property name="eof">pause</property>
    <property name="resource">sources/images/jpg/kant_cunt.jpg</property>
    <property name="ttl">1</property>
    <property name="aspect_ratio">1</property>
    <property name="progressive">1</property>
    <property name="seekable">1</property>
    <property name="mlt_service">qimage</property>
    <property name="creation_time">2021-03-05T04:43:50</property>
    <property name="shotcut:caption">kant_cunt.jpg</property>
    <property name="shotcut:hash">71eb6d026c3bb9972fca2a2826f29c97</property>
    <property name="ignore_points">0</property>
    <property name="global_feed">1</property>
    <property name="xml">was here</property>
    <filter id="filter63" out="00:00:04.080">
      <property name="background">color:#00000000</property>
      <property name="mlt_service">affine</property>
      <property name="shotcut:filter">affineSizePosition</property>
      <property name="transition.fill">1</property>
      <property name="transition.distort">0</property>
      <property name="transition.rect">1239.6 136.045 658.989 357.138 1</property>
      <property name="transition.valign">middle</property>
      <property name="transition.halign">center</property>
      <property name="shotcut:animIn">00:00:00.000</property>
      <property name="shotcut:animOut">00:00:00.000</property>
      <property name="transition.threads">0</property>
    </filter>
    <filter id="filter64" out="00:00:04.080">
      <property name="start">1</property>
      <property name="level">00:00:00.000=0;00:00:00.960=1</property>
      <property name="mlt_service">brightness</property>
      <property name="shotcut:filter">fadeInBrightness</property>
      <property name="alpha">1</property>
      <property name="shotcut:animIn">00:00:01.000</property>
    </filter>
    <filter id="filter65" out="00:00:04.080">
      <property name="start">1</property>
      <property name="level">00:00:03.120=1;00:00:04.080=0</property>
      <property name="mlt_service">brightness</property>
      <property name="shotcut:filter">fadeOutBrightness</property>
      <property name="alpha">1</property>
      <property name="shotcut:animOut">00:00:01.000</property>
    </filter>
  </producer>
  <producer id="producer30" in="00:00:00.000" out="03:59:59.960">
    <property name="length">04:00:00.000</property>
    <property name="eof">pause</property>
    <property name="resource">sources/images/jpg/deutschland.jpg</property>
    <property name="ttl">1</property>
    <property name="aspect_ratio">1</property>
    <property name="progressive">1</property>
    <property name="seekable">1</property>
    <property name="mlt_service">qimage</property>
    <property name="creation_time">2021-03-05T10:07:53</property>
    <property name="shotcut:caption">deutschland.jpg</property>
    <property name="shotcut:hash">c4af23ec8f0cf62ed780491ba9440043</property>
    <property name="ignore_points">0</property>
    <property name="global_feed">1</property>
    <property name="xml">was here</property>
    <filter id="filter66" out="00:00:29.400">
      <property name="background">color:#00000000</property>
      <property name="mlt_service">affine</property>
      <property name="shotcut:filter">affineSizePosition</property>
      <property name="transition.fill">1</property>
      <property name="transition.distort">0</property>
      <property name="transition.rect">22.0461 601.328 924.569 415.306 1</property>
      <property name="transition.valign">middle</property>
      <property name="transition.halign">center</property>
      <property name="shotcut:animIn">00:00:00.000</property>
      <property name="shotcut:animOut">00:00:00.000</property>
      <property name="transition.threads">0</property>
    </filter>
    <filter id="filter67" out="00:00:29.400">
      <property name="start">1</property>
      <property name="level">00:00:00.000=0;00:00:00.960=1</property>
      <property name="mlt_service">brightness</property>
      <property name="shotcut:filter">fadeInBrightness</property>
      <property name="alpha">1</property>
      <property name="shotcut:animIn">00:00:01.000</property>
    </filter>
    <filter id="filter68" out="00:00:29.400">
      <property name="start">1</property>
      <property name="level">00:00:28.440=1;00:00:29.400=0</property>
      <property name="mlt_service">brightness</property>
      <property name="shotcut:filter">fadeOutBrightness</property>
      <property name="alpha">1</property>
      <property name="shotcut:animOut">00:00:01.000</property>
    </filter>
  </producer>
  <producer id="producer31" in="00:00:00.000" out="03:59:59.960">
    <property name="length">04:00:00.000</property>
    <property name="eof">pause</property>
    <property name="resource">sources/images/jpg/eg.jpg</property>
    <property name="ttl">1</property>
    <property name="aspect_ratio">1</property>
    <property name="progressive">1</property>
    <property name="seekable">1</property>
    <property name="mlt_service">qimage</property>
    <property name="creation_time">2021-03-05T10:12:39</property>
    <property name="shotcut:caption">eg.jpg</property>
    <property name="shotcut:hash">6656b22586ceba25bfb26cb7efc0326c</property>
    <property name="ignore_points">0</property>
    <property name="global_feed">1</property>
    <property name="xml">was here</property>
    <filter id="filter69" out="00:00:08.360">
      <property name="background">color:#00000000</property>
      <property name="mlt_service">affine</property>
      <property name="shotcut:filter">affineSizePosition</property>
      <property name="transition.fill">1</property>
      <property name="transition.distort">0</property>
      <property name="transition.rect">22.0461 601.328 924.569 415.306 1</property>
      <property name="transition.valign">middle</property>
      <property name="transition.halign">center</property>
      <property name="shotcut:animIn">00:00:00.000</property>
      <property name="shotcut:animOut">00:00:00.000</property>
      <property name="transition.threads">0</property>
      <property name="transition.fix_rotate_x">0</property>
    </filter>
    <filter id="filter70" out="00:00:08.360">
      <property name="start">1</property>
      <property name="level">00:00:00.000=0;00:00:00.960=1</property>
      <property name="mlt_service">brightness</property>
      <property name="shotcut:filter">fadeInBrightness</property>
      <property name="alpha">1</property>
      <property name="shotcut:animIn">00:00:01.000</property>
    </filter>
    <filter id="filter71" out="00:00:08.360">
      <property name="start">1</property>
      <property name="level">00:00:07.400=1;00:00:08.360=0</property>
      <property name="mlt_service">brightness</property>
      <property name="shotcut:filter">fadeOutBrightness</property>
      <property name="alpha">1</property>
      <property name="shotcut:animOut">00:00:01.000</property>
    </filter>
  </producer>
  <producer id="producer32" in="00:00:00.000" out="03:59:59.960">
    <property name="length">04:00:00.000</property>
    <property name="eof">pause</property>
    <property name="resource">sources/images/jpg/blausaeurekapseln.jpg</property>
    <property name="ttl">1</property>
    <property name="aspect_ratio">1</property>
    <property name="progressive">1</property>
    <property name="seekable">1</property>
    <property name="mlt_service">qimage</property>
    <property name="shotcut:caption">blausaeurekapseln.jpg</property>
    <property name="shotcut:hash">7c360a4b106a2d77360d27f93e9f7f44</property>
    <property name="ignore_points">0</property>
    <property name="global_feed">1</property>
    <property name="xml">was here</property>
    <filter id="filter72" out="00:00:03.000">
      <property name="background">color:#00000000</property>
      <property name="mlt_service">affine</property>
      <property name="shotcut:filter">affineSizePosition</property>
      <property name="transition.fill">1</property>
      <property name="transition.distort">0</property>
      <property name="transition.rect">89.7813 582.513 924.569 430.852 1</property>
      <property name="transition.valign">middle</property>
      <property name="transition.halign">center</property>
      <property name="shotcut:animIn">00:00:00.000</property>
      <property name="shotcut:animOut">00:00:00.000</property>
      <property name="transition.threads">0</property>
      <property name="transition.fix_rotate_x">0</property>
    </filter>
    <filter id="filter73" out="00:00:03.000">
      <property name="start">1</property>
      <property name="level">00:00:00.000=0;00:00:00.960=1</property>
      <property name="mlt_service">brightness</property>
      <property name="shotcut:filter">fadeInBrightness</property>
      <property name="alpha">1</property>
      <property name="shotcut:animIn">00:00:01.000</property>
    </filter>
  </producer>
  <producer id="producer33" in="00:00:00.000" out="03:59:59.960">
    <property name="length">04:00:00.000</property>
    <property name="eof">pause</property>
    <property name="resource">sources/images/jpg/kriegsmarine.jpg</property>
    <property name="ttl">1</property>
    <property name="aspect_ratio">1</property>
    <property name="progressive">1</property>
    <property name="seekable">1</property>
    <property name="mlt_service">qimage</property>
    <property name="creation_time">2021-03-05T10:44:32</property>
    <property name="shotcut:caption">kriegsmarine.jpg</property>
    <property name="shotcut:hash">c1e2a983f89998c62b4fabf53d96255b</property>
    <property name="ignore_points">0</property>
    <property name="global_feed">1</property>
    <property name="xml">was here</property>
    <filter id="filter74" out="00:00:03.920">
      <property name="background">color:#00000000</property>
      <property name="mlt_service">affine</property>
      <property name="shotcut:filter">affineSizePosition</property>
      <property name="transition.fill">1</property>
      <property name="transition.distort">0</property>
      <property name="transition.rect">37.0984 571.223 520.793 397.997 1</property>
      <property name="transition.valign">middle</property>
      <property name="transition.halign">center</property>
      <property name="shotcut:animIn">00:00:00.000</property>
      <property name="shotcut:animOut">00:00:00.000</property>
      <property name="transition.threads">0</property>
      <property name="transition.fix_rotate_x">0</property>
    </filter>
    <filter id="filter75" out="00:00:03.920">
      <property name="start">1</property>
      <property name="level">00:00:00.000=0;00:00:00.960=1</property>
      <property name="mlt_service">brightness</property>
      <property name="shotcut:filter">fadeInBrightness</property>
      <property name="alpha">1</property>
      <property name="shotcut:animIn">00:00:01.000</property>
    </filter>
    <filter id="filter76" out="00:00:03.920">
      <property name="start">1</property>
      <property name="level">00:00:02.960=1;00:00:03.920=0</property>
      <property name="mlt_service">brightness</property>
      <property name="shotcut:filter">fadeOutBrightness</property>
      <property name="alpha">1</property>
      <property name="shotcut:animOut">00:00:01.000</property>
    </filter>
  </producer>
  <producer id="producer34" in="00:00:00.000" out="03:59:59.960">
    <property name="length">04:00:00.000</property>
    <property name="eof">pause</property>
    <property name="resource">sources/images/jpg/kapitulation.jpg</property>
    <property name="ttl">1</property>
    <property name="aspect_ratio">1</property>
    <property name="progressive">1</property>
    <property name="seekable">1</property>
    <property name="mlt_service">qimage</property>
    <property name="creation_time">2021-03-05T10:52:20</property>
    <property name="shotcut:caption">kapitulation.jpg</property>
    <property name="shotcut:hash">a64e4c6626eb27161b2596420c4514fb</property>
    <property name="ignore_points">0</property>
    <property name="global_feed">1</property>
    <property name="xml">was here</property>
    <filter id="filter77" out="00:00:08.360">
      <property name="background">color:#00000000</property>
      <property name="mlt_service">affine</property>
      <property name="shotcut:filter">affineSizePosition</property>
      <property name="transition.fill">1</property>
      <property name="transition.distort">0</property>
      <property name="transition.rect">262.882 563.697 528.655 506.101 1</property>
      <property name="transition.valign">middle</property>
      <property name="transition.halign">center</property>
      <property name="shotcut:animIn">00:00:00.000</property>
      <property name="shotcut:animOut">00:00:00.000</property>
      <property name="transition.threads">0</property>
      <property name="transition.fix_rotate_x">0</property>
    </filter>
    <filter id="filter78" out="00:00:08.360">
      <property name="start">1</property>
      <property name="level">00:00:00.000=0;00:00:00.960=1</property>
      <property name="mlt_service">brightness</property>
      <property name="shotcut:filter">fadeInBrightness</property>
      <property name="alpha">1</property>
      <property name="shotcut:animIn">00:00:01.000</property>
    </filter>
    <filter id="filter79" out="00:00:08.360">
      <property name="start">1</property>
      <property name="level">00:00:07.400=1;00:00:08.360=0</property>
      <property name="mlt_service">brightness</property>
      <property name="shotcut:filter">fadeOutBrightness</property>
      <property name="alpha">1</property>
      <property name="shotcut:animOut">00:00:01.000</property>
    </filter>
  </producer>
  <producer id="producer35" in="00:00:00.000" out="03:59:59.960">
    <property name="length">04:00:00.000</property>
    <property name="eof">pause</property>
    <property name="resource">sources/images/jpg/hitler_blondi.jpg</property>
    <property name="ttl">1</property>
    <property name="aspect_ratio">1</property>
    <property name="progressive">1</property>
    <property name="seekable">1</property>
    <property name="mlt_service">qimage</property>
    <property name="creation_time">2021-03-05T10:29:27</property>
    <property name="shotcut:caption">hitler_blondi.jpg</property>
    <property name="shotcut:hash">351e1b0d380cf93f388db3e1625ca7b1</property>
    <property name="ignore_points">0</property>
    <property name="global_feed">1</property>
    <property name="xml">was here</property>
    <filter id="filter104" out="00:00:07.480">
      <property name="background">color:#00000000</property>
      <property name="mlt_service">affine</property>
      <property name="shotcut:filter">affineSizePosition</property>
      <property name="transition.fill">1</property>
      <property name="transition.distort">0</property>
      <property name="transition.rect">208.743 491.159 722.919 566.921 1</property>
      <property name="transition.valign">middle</property>
      <property name="transition.halign">center</property>
      <property name="shotcut:animIn">00:00:00.000</property>
      <property name="shotcut:animOut">00:00:00.000</property>
      <property name="transition.threads">0</property>
      <property name="transition.fix_rotate_x">0</property>
    </filter>
    <filter id="filter105" out="00:00:07.480">
      <property name="start">1</property>
      <property name="level">00:00:00.000=0;00:00:00.960=1</property>
      <property name="mlt_service">brightness</property>
      <property name="shotcut:filter">fadeInBrightness</property>
      <property name="alpha">1</property>
      <property name="shotcut:animIn">00:00:01.000</property>
    </filter>
    <filter id="filter106" out="00:00:07.480">
      <property name="start">1</property>
      <property name="level">00:00:06.520=1;00:00:07.480=0</property>
      <property name="mlt_service">brightness</property>
      <property name="shotcut:filter">fadeOutBrightness</property>
      <property name="alpha">1</property>
      <property name="shotcut:animOut">00:00:01.000</property>
    </filter>
  </producer>
  <producer id="producer36" in="00:00:00.000" out="03:59:59.960">
    <property name="length">04:00:00.000</property>
    <property name="eof">pause</property>
    <property name="resource">sources/images/jpg/amerikanischer_bomber.jpg</property>
    <property name="ttl">1</property>
    <property name="aspect_ratio">1</property>
    <property name="progressive">1</property>
    <property name="seekable">1</property>
    <property name="mlt_service">qimage</property>
    <property name="creation_time">2021-03-05T10:19:59</property>
    <property name="shotcut:caption">amerikanischer_bomber.jpg</property>
    <property name="shotcut:hash">92b498e13f7163bcbda8aa06b43f2fd8</property>
    <property name="ignore_points">0</property>
    <property name="global_feed">1</property>
    <property name="xml">was here</property>
    <filter id="filter80" out="00:00:03.520">
      <property name="background">color:#00000000</property>
      <property name="mlt_service">affine</property>
      <property name="shotcut:filter">affineSizePosition</property>
      <property name="transition.fill">1</property>
      <property name="transition.distort">0</property>
      <property name="transition.rect">931.43 4.89034 513.889 468.939 1</property>
      <property name="transition.valign">middle</property>
      <property name="transition.halign">center</property>
      <property name="shotcut:animIn">00:00:00.000</property>
      <property name="shotcut:animOut">00:00:00.000</property>
      <property name="transition.threads">0</property>
      <property name="transition.fix_rotate_x">0</property>
    </filter>
    <filter id="filter81" out="00:00:03.520">
      <property name="start">1</property>
      <property name="level">00:00:00.000=0;00:00:00.960=1</property>
      <property name="mlt_service">brightness</property>
      <property name="shotcut:filter">fadeInBrightness</property>
      <property name="alpha">1</property>
      <property name="shotcut:animIn">00:00:01.000</property>
    </filter>
    <filter id="filter82" out="00:00:03.520">
      <property name="start">1</property>
      <property name="level">00:00:02.560=1;00:00:03.520=0</property>
      <property name="mlt_service">brightness</property>
      <property name="shotcut:filter">fadeOutBrightness</property>
      <property name="alpha">1</property>
      <property name="shotcut:animOut">00:00:01.000</property>
    </filter>
  </producer>
  <producer id="producer37" in="00:00:00.000" out="03:59:59.960">
    <property name="length">04:00:00.000</property>
    <property name="eof">pause</property>
    <property name="resource">sources/images/jpg/churchill.jpg</property>
    <property name="ttl">1</property>
    <property name="aspect_ratio">1</property>
    <property name="progressive">1</property>
    <property name="seekable">1</property>
    <property name="mlt_service">qimage</property>
    <property name="creation_time">2021-03-05T10:24:38</property>
    <property name="shotcut:caption">churchill.jpg</property>
    <property name="shotcut:hash">a454fb56747d98c6e2c023c5e042d7db</property>
    <property name="ignore_points">0</property>
    <property name="global_feed">1</property>
    <property name="xml">was here</property>
    <filter id="filter83" out="00:00:05.040">
      <property name="background">color:#00000000</property>
      <property name="mlt_service">affine</property>
      <property name="shotcut:filter">affineSizePosition</property>
      <property name="transition.fill">1</property>
      <property name="transition.distort">0</property>
      <property name="transition.rect">42.1758 18.3232 1069.73 654.641 1</property>
      <property name="transition.valign">middle</property>
      <property name="transition.halign">center</property>
      <property name="shotcut:animIn">00:00:00.000</property>
      <property name="shotcut:animOut">00:00:00.000</property>
      <property name="transition.threads">0</property>
      <property name="transition.fix_rotate_x">0</property>
    </filter>
    <filter id="filter84" out="00:00:05.040">
      <property name="start">1</property>
      <property name="level">00:00:00.000=0;00:00:00.960=1</property>
      <property name="mlt_service">brightness</property>
      <property name="shotcut:filter">fadeInBrightness</property>
      <property name="alpha">1</property>
      <property name="shotcut:animIn">00:00:01.000</property>
    </filter>
    <filter id="filter85" out="00:00:05.040">
      <property name="start">1</property>
      <property name="level">00:00:04.080=1;00:00:05.040=0</property>
      <property name="mlt_service">brightness</property>
      <property name="shotcut:filter">fadeOutBrightness</property>
      <property name="alpha">1</property>
      <property name="shotcut:animOut">00:00:01.000</property>
    </filter>
  </producer>
  <producer id="producer38" in="00:00:00.000" out="03:59:59.960">
    <property name="length">04:00:00.000</property>
    <property name="eof">pause</property>
    <property name="resource">sources/images/jpg/hitler_blondi.jpg</property>
    <property name="ttl">1</property>
    <property name="aspect_ratio">1</property>
    <property name="progressive">1</property>
    <property name="seekable">1</property>
    <property name="mlt_service">qimage</property>
    <property name="creation_time">2021-03-05T10:29:27</property>
    <property name="shotcut:caption">hitler_blondi.jpg</property>
    <property name="shotcut:hash">351e1b0d380cf93f388db3e1625ca7b1</property>
    <property name="ignore_points">0</property>
    <property name="global_feed">1</property>
    <property name="xml">was here</property>
    <filter id="filter86" out="00:00:05.680">
      <property name="background">color:#00000000</property>
      <property name="mlt_service">affine</property>
      <property name="shotcut:filter">affineSizePosition</property>
      <property name="transition.fill">1</property>
      <property name="transition.distort">0</property>
      <property name="transition.rect">74.4146 98.9202 1014.11 795.279 1</property>
      <property name="transition.valign">middle</property>
      <property name="transition.halign">center</property>
      <property name="shotcut:animIn">00:00:00.000</property>
      <property name="shotcut:animOut">00:00:00.000</property>
      <property name="transition.threads">0</property>
      <property name="transition.fix_rotate_x">0</property>
    </filter>
    <filter id="filter87" out="00:00:05.680">
      <property name="start">1</property>
      <property name="level">00:00:00.000=0;00:00:00.960=1</property>
      <property name="mlt_service">brightness</property>
      <property name="shotcut:filter">fadeInBrightness</property>
      <property name="alpha">1</property>
      <property name="shotcut:animIn">00:00:01.000</property>
    </filter>
    <filter id="filter88" out="00:00:05.680">
      <property name="start">1</property>
      <property name="level">00:00:04.720=1;00:00:05.680=0</property>
      <property name="mlt_service">brightness</property>
      <property name="shotcut:filter">fadeOutBrightness</property>
      <property name="alpha">1</property>
      <property name="shotcut:animOut">00:00:01.000</property>
    </filter>
  </producer>
  <producer id="producer39" in="00:00:00.000" out="03:59:59.960">
    <property name="length">04:00:00.000</property>
    <property name="eof">pause</property>
    <property name="resource">sources/images/jpg/kapitulation.jpg</property>
    <property name="ttl">1</property>
    <property name="aspect_ratio">1</property>
    <property name="progressive">1</property>
    <property name="seekable">1</property>
    <property name="mlt_service">qimage</property>
    <property name="creation_time">2021-03-05T10:52:20</property>
    <property name="shotcut:caption">kapitulation.jpg</property>
    <property name="shotcut:hash">a64e4c6626eb27161b2596420c4514fb</property>
    <property name="ignore_points">0</property>
    <property name="global_feed">1</property>
    <property name="xml">was here</property>
    <filter id="filter89" out="00:00:07.680">
      <property name="background">color:#00000000</property>
      <property name="mlt_service">affine</property>
      <property name="shotcut:filter">affineSizePosition</property>
      <property name="transition.fill">1</property>
      <property name="transition.distort">0</property>
      <property name="transition.rect">50.6432 34.4433 1061.85 1016.55 1</property>
      <property name="transition.valign">middle</property>
      <property name="transition.halign">center</property>
      <property name="shotcut:animIn">00:00:00.000</property>
      <property name="shotcut:animOut">00:00:00.000</property>
      <property name="transition.threads">0</property>
      <property name="transition.fix_rotate_x">0</property>
    </filter>
    <filter id="filter92" out="00:00:07.680">
      <property name="start">1</property>
      <property name="level">00:00:00.000=0;00:00:00.960=1</property>
      <property name="mlt_service">brightness</property>
      <property name="shotcut:filter">fadeInBrightness</property>
      <property name="alpha">1</property>
      <property name="shotcut:animIn">00:00:01.000</property>
    </filter>
    <filter id="filter93" out="00:00:07.680">
      <property name="start">1</property>
      <property name="level">00:00:06.720=1;00:00:07.680=0</property>
      <property name="mlt_service">brightness</property>
      <property name="shotcut:filter">fadeOutBrightness</property>
      <property name="alpha">1</property>
      <property name="shotcut:animOut">00:00:01.000</property>
    </filter>
  </producer>
  <producer id="producer40" in="00:00:00.000" out="03:59:59.960">
    <property name="length">04:00:00.000</property>
    <property name="eof">pause</property>
    <property name="resource">sources/images/jpg/churchill.jpg</property>
    <property name="ttl">1</property>
    <property name="aspect_ratio">1</property>
    <property name="progressive">1</property>
    <property name="seekable">1</property>
    <property name="mlt_service">qimage</property>
    <property name="creation_time">2021-03-05T10:24:38</property>
    <property name="shotcut:caption">churchill.jpg</property>
    <property name="shotcut:hash">a454fb56747d98c6e2c023c5e042d7db</property>
    <property name="ignore_points">0</property>
    <property name="global_feed">1</property>
    <property name="xml">was here</property>
    <filter id="filter94" out="00:00:05.040">
      <property name="background">color:#00000000</property>
      <property name="mlt_service">affine</property>
      <property name="shotcut:filter">affineSizePosition</property>
      <property name="transition.fill">1</property>
      <property name="transition.distort">0</property>
      <property name="transition.rect">52.9221 206.383 1043.39 638.521 1</property>
      <property name="transition.valign">middle</property>
      <property name="transition.halign">center</property>
      <property name="shotcut:animIn">00:00:00.000</property>
      <property name="shotcut:animOut">00:00:00.000</property>
      <property name="transition.threads">0</property>
      <property name="transition.fix_rotate_x">0</property>
    </filter>
    <filter id="filter95" out="00:00:05.040">
      <property name="start">1</property>
      <property name="level">00:00:04.080=1;00:00:05.040=0</property>
      <property name="mlt_service">brightness</property>
      <property name="shotcut:filter">fadeOutBrightness</property>
      <property name="alpha">1</property>
      <property name="shotcut:animOut">00:00:01.000</property>
    </filter>
    <filter id="filter96" out="00:00:05.040">
      <property name="start">1</property>
      <property name="level">00:00:00.000=0;00:00:00.960=1</property>
      <property name="mlt_service">brightness</property>
      <property name="shotcut:filter">fadeInBrightness</property>
      <property name="alpha">1</property>
      <property name="shotcut:animIn">00:00:01.000</property>
    </filter>
  </producer>
  <producer id="producer41" in="00:00:00.000" out="03:59:59.960">
    <property name="length">04:00:00.000</property>
    <property name="eof">pause</property>
    <property name="resource">sources/images/jpg/csd.jpg</property>
    <property name="ttl">1</property>
    <property name="aspect_ratio">1</property>
    <property name="progressive">1</property>
    <property name="seekable">1</property>
    <property name="mlt_service">qimage</property>
    <property name="creation_time">2021-03-05T06:30:09</property>
    <property name="shotcut:caption">csd.jpg</property>
    <property name="shotcut:hash">1bb2a5b2aaaeb1ba2be4c8629b89af52</property>
    <property name="ignore_points">0</property>
    <property name="global_feed">1</property>
    <property name="xml">was here</property>
    <filter id="filter97" out="00:00:02.240">
      <property name="start">1</property>
      <property name="level">00:00:00.000=0;00:00:00.960=1</property>
      <property name="mlt_service">brightness</property>
      <property name="shotcut:filter">fadeInBrightness</property>
      <property name="alpha">1</property>
      <property name="shotcut:animIn">00:00:01.000</property>
    </filter>
    <filter id="filter98" out="00:00:02.240">
      <property name="background">color:#00000000</property>
      <property name="mlt_service">affine</property>
      <property name="shotcut:filter">affineSizePosition</property>
      <property name="transition.fill">1</property>
      <property name="transition.distort">0</property>
      <property name="transition.rect">167.455 559.736 856.82 481.708 1</property>
      <property name="transition.valign">middle</property>
      <property name="transition.halign">center</property>
      <property name="shotcut:animIn">00:00:00.000</property>
      <property name="shotcut:animOut">00:00:00.000</property>
      <property name="transition.threads">0</property>
      <property name="transition.fix_rotate_x">0</property>
    </filter>
  </producer>
  <producer id="producer42" in="00:00:00.000" out="03:59:59.960">
    <property name="length">04:00:00.000</property>
    <property name="eof">pause</property>
    <property name="resource">sources/images/jpg/deutsche_bank.jpg</property>
    <property name="ttl">1</property>
    <property name="aspect_ratio">1</property>
    <property name="progressive">1</property>
    <property name="seekable">1</property>
    <property name="mlt_service">qimage</property>
    <property name="creation_time">2021-03-05T06:35:00</property>
    <property name="shotcut:caption">deutsche_bank.jpg</property>
    <property name="shotcut:hash">9479c109a6530edd17b1202e1bd32304</property>
    <property name="ignore_points">0</property>
    <property name="global_feed">1</property>
    <property name="xml">was here</property>
    <filter id="filter99" out="00:00:02.960">
      <property name="start">1</property>
      <property name="level">00:00:00.000=0;00:00:00.960=1</property>
      <property name="mlt_service">brightness</property>
      <property name="shotcut:filter">fadeInBrightness</property>
      <property name="alpha">1</property>
      <property name="shotcut:animIn">00:00:01.000</property>
    </filter>
    <filter id="filter100" out="00:00:02.960">
      <property name="background">color:#00000000</property>
      <property name="mlt_service">affine</property>
      <property name="shotcut:filter">affineSizePosition</property>
      <property name="transition.fill">1</property>
      <property name="transition.distort">0</property>
      <property name="transition.rect">1233.15 204.83 569.337 799.396 1</property>
      <property name="transition.valign">middle</property>
      <property name="transition.halign">center</property>
      <property name="shotcut:animIn">00:00:00.000</property>
      <property name="shotcut:animOut">00:00:00.000</property>
      <property name="transition.threads">0</property>
    </filter>
    <filter id="filter101" out="00:00:02.960">
      <property name="start">1</property>
      <property name="level">00:00:02.000=1;00:00:02.960=0</property>
      <property name="mlt_service">brightness</property>
      <property name="shotcut:filter">fadeOutBrightness</property>
      <property name="alpha">1</property>
      <property name="shotcut:animOut">00:00:01.000</property>
    </filter>
  </producer>
  <playlist id="playlist1">
    <property name="shotcut:video">1</property>
    <property name="shotcut:name">V1</property>
    <blank length="00:00:07.920"/>
    <entry producer="producer5" in="00:00:00.000" out="00:00:11.920"/>
    <blank length="00:00:09.920"/>
    <entry producer="producer6" in="00:00:00.000" out="00:00:03.960"/>
    <blank length="00:00:03.480"/>
    <entry producer="producer7" in="00:00:00.000" out="00:00:02.880"/>
    <blank length="00:00:04.880"/>
    <entry producer="producer0" in="00:00:01.600" out="00:00:05.360"/>
    <blank length="00:00:18.840"/>
    <entry producer="producer9" in="00:00:00.000" out="00:00:03.280"/>
    <blank length="00:00:00.200"/>
    <entry producer="producer1" in="00:00:00.000" out="00:00:03.480"/>
    <blank length="00:00:06.520"/>
    <entry producer="producer11" in="00:00:00.000" out="00:00:03.600"/>
    <blank length="00:00:00.120"/>
    <entry producer="producer12" in="00:00:00.000" out="00:00:03.000"/>
    <blank length="00:00:03.480"/>
    <entry producer="producer13" in="00:00:00.000" out="00:00:03.240"/>
    <blank length="00:00:02.120"/>
    <entry producer="producer14" in="00:00:00.000" out="00:00:04.040"/>
    <blank length="00:00:00.040"/>
    <entry producer="producer2" in="00:00:00.040" out="00:00:14.480"/>
    <blank length="00:00:00.040"/>
    <entry producer="producer15" in="00:00:00.040" out="00:00:07.280"/>
    <blank length="00:00:00.200"/>
    <entry producer="producer16" in="00:00:00.000" out="00:00:07.000"/>
    <blank length="00:00:02.360"/>
    <entry producer="producer17" in="00:00:00.000" out="00:00:06.640"/>
    <blank length="00:00:03.600"/>
    <entry producer="producer18" in="00:00:00.000" out="00:00:03.560"/>
    <blank length="00:00:03.640"/>
    <entry producer="producer19" in="00:00:00.000" out="00:00:03.440"/>
    <blank length="00:00:02.680"/>
    <entry producer="producer20" in="00:00:00.000" out="00:00:03.840"/>
    <blank length="00:00:16.600"/>
    <entry producer="producer21" in="00:00:00.000" out="00:00:04.200"/>
    <blank length="00:00:02.840"/>
    <entry producer="producer22" in="00:00:01.560" out="00:00:05.600"/>
    <blank length="00:00:03.520"/>
    <entry producer="producer23" in="00:00:00.000" out="00:00:03.440"/>
    <blank length="00:00:03.200"/>
    <entry producer="producer24" in="00:00:01.240" out="00:00:04.120"/>
    <blank length="00:01:26.080"/>
    <entry producer="producer3" in="00:00:00.000" out="00:00:03.960"/>
    <entry producer="producer4" in="00:00:00.000" out="00:00:03.960"/>
    <entry producer="producer8" in="00:00:00.000" out="00:00:03.960"/>
    <entry producer="producer10" in="00:00:00.000" out="00:00:03.960"/>
    <entry producer="producer25" in="00:00:00.000" out="00:00:03.960"/>
    <entry producer="producer26" in="00:00:00.000" out="00:00:03.960"/>
    <entry producer="producer27" in="00:00:00.000" out="00:00:03.960"/>
    <entry producer="producer28" in="00:00:00.000" out="00:00:04.080"/>
    <blank length="00:05:28.200"/>
    <entry producer="producer29" in="00:00:00.000" out="00:00:04.080"/>
    <entry producer="producer30" in="00:00:00.000" out="00:00:29.400"/>
    <entry producer="producer31" in="00:00:00.000" out="00:00:08.360"/>
    <blank length="00:00:30.440"/>
    <entry producer="producer32" in="00:00:00.000" out="00:00:03.000"/>
    <blank length="00:00:01.200"/>
    <entry producer="producer33" in="00:00:00.000" out="00:00:03.920"/>
    <blank length="00:00:00.320"/>
    <entry producer="producer34" in="00:00:00.000" out="00:00:08.360"/>
    <entry producer="producer35" in="00:00:00.000" out="00:00:07.480"/>
    <blank length="00:00:23.000"/>
    <entry producer="producer36" in="00:00:00.000" out="00:00:03.520"/>
    <blank length="00:00:07.040"/>
    <entry producer="producer37" in="00:00:00.000" out="00:00:05.040"/>
    <entry producer="producer38" in="00:00:00.000" out="00:00:05.680"/>
    <blank length="00:00:00.440"/>
    <entry producer="producer39" in="00:00:00.000" out="00:00:07.680"/>
    <blank length="00:00:04.120"/>
    <entry producer="producer40" in="00:00:00.000" out="00:00:05.040"/>
    <blank length="00:00:50.400"/>
    <entry producer="producer41" in="00:00:00.000" out="00:00:02.240"/>
    <blank length="00:00:03.480"/>
    <entry producer="producer42" in="00:00:00.000" out="00:00:02.960"/>
  </playlist>
  <producer id="producer46" in="00:00:00.000" out="03:59:59.960">
    <property name="length">04:00:00.000</property>
    <property name="eof">pause</property>
    <property name="resource">sources/images/jpg/true_germans.jpg</property>
    <property name="ttl">1</property>
    <property name="aspect_ratio">1</property>
    <property name="progressive">1</property>
    <property name="seekable">1</property>
    <property name="mlt_service">qimage</property>
    <property name="creation_time">2021-03-05T03:41:19</property>
    <property name="shotcut:caption">true_germans.jpg</property>
    <property name="shotcut:hash">72d4bfab6b3efe35c7f98c2f5b8e8576</property>
    <property name="ignore_points">0</property>
    <property name="global_feed">1</property>
    <property name="xml">was here</property>
    <filter id="filter130" in="00:00:00.320" out="00:00:06.720">
      <property name="background">color:#00000000</property>
      <property name="mlt_service">affine</property>
      <property name="shotcut:filter">affineSizePosition</property>
      <property name="transition.fill">1</property>
      <property name="transition.distort">0</property>
      <property name="transition.rect">1337.55 39.4339 392.601 534.151 1</property>
      <property name="transition.valign">middle</property>
      <property name="transition.halign">center</property>
      <property name="shotcut:animIn">00:00:00.000</property>
      <property name="shotcut:animOut">00:00:00.000</property>
      <property name="transition.threads">0</property>
      <property name="transition.fix_rotate_x">0</property>
    </filter>
    <filter id="filter131" in="00:00:00.320" out="00:00:06.720">
      <property name="start">1</property>
      <property name="level">00:00:05.440=1;00:00:06.400=0</property>
      <property name="mlt_service">brightness</property>
      <property name="shotcut:filter">fadeOutBrightness</property>
      <property name="alpha">1</property>
      <property name="shotcut:animOut">00:00:01.000</property>
    </filter>
    <filter id="filter102" in="00:00:00.320" out="00:00:06.720">
      <property name="start">1</property>
      <property name="level">00:00:00.000=0;00:00:00.960=1</property>
      <property name="mlt_service">brightness</property>
      <property name="shotcut:filter">fadeInBrightness</property>
      <property name="alpha">1</property>
      <property name="shotcut:animIn">00:00:01.000</property>
    </filter>
  </producer>
  <producer id="producer43" in="00:00:00.000" out="03:59:59.960">
    <property name="length">04:00:00.000</property>
    <property name="eof">pause</property>
    <property name="resource">sources/images/jpg/ddr.jpg</property>
    <property name="ttl">1</property>
    <property name="aspect_ratio">1</property>
    <property name="progressive">1</property>
    <property name="seekable">1</property>
    <property name="mlt_service">qimage</property>
    <property name="creation_time">2021-03-05T10:08:13</property>
    <property name="shotcut:caption">ddr.jpg</property>
    <property name="shotcut:hash">c5a19a9a30aa63d84de390d32988adca</property>
    <property name="ignore_points">0</property>
    <property name="global_feed">1</property>
    <property name="xml">was here</property>
    <filter id="filter103" out="00:00:13.520">
      <property name="background">color:#00000000</property>
      <property name="mlt_service">affine</property>
      <property name="shotcut:filter">affineSizePosition</property>
      <property name="transition.fill">1</property>
      <property name="transition.distort">0</property>
      <property name="transition.rect">22.0461 601.328 924.569 415.306 1</property>
      <property name="transition.valign">middle</property>
      <property name="transition.halign">center</property>
      <property name="shotcut:animIn">00:00:00.000</property>
      <property name="shotcut:animOut">00:00:00.000</property>
      <property name="transition.threads">0</property>
      <property name="transition.fix_rotate_x">0</property>
    </filter>
    <filter id="filter107" out="00:00:13.520">
      <property name="start">1</property>
      <property name="level">00:00:00.000=0;00:00:00.960=1</property>
      <property name="mlt_service">brightness</property>
      <property name="shotcut:filter">fadeInBrightness</property>
      <property name="alpha">1</property>
      <property name="shotcut:animIn">00:00:01.000</property>
    </filter>
    <filter id="filter108" out="00:00:13.520">
      <property name="start">1</property>
      <property name="level">00:00:12.560=1;00:00:13.520=0</property>
      <property name="mlt_service">brightness</property>
      <property name="shotcut:filter">fadeOutBrightness</property>
      <property name="alpha">1</property>
      <property name="shotcut:animOut">00:00:01.000</property>
    </filter>
  </producer>
  <producer id="producer44" in="00:00:00.000" out="00:01:19.560">
    <property name="length">00:01:19.600</property>
    <property name="eof">pause</property>
    <property name="resource">sources/videos/mp4/liebes_maedchen_hoer_mir_zu_haydn_joseph_hob_xxvia_d1_staendchen_serenade_360p_30fps_h264_128kbit_aac.mp4</property>
    <property name="audio_index">1</property>
    <property name="video_index">0</property>
    <property name="mute_on_pause">0</property>
    <property name="mlt_service">avformat-novalidate</property>
    <property name="seekable">1</property>
    <property name="aspect_ratio">1</property>
    <property name="creation_time">2021-03-09T05:28:04</property>
    <property name="shotcut:hash">1494b231473fe5746d3a01d180d76520</property>
    <property name="ignore_points">0</property>
    <property name="shotcut:caption">liebes_maedchen_hoer_mir_zu_haydn_joseph_hob_xxvia_d1_staendchen_serenade_360p_30fps_h264_128kbit_aac.mp4</property>
    <property name="global_feed">1</property>
    <property name="xml">was here</property>
    <filter id="filter109" in="00:00:03.280" out="00:00:25.760">
      <property name="background">color:#00000000</property>
      <property name="mlt_service">affine</property>
      <property name="shotcut:filter">affineSizePosition</property>
      <property name="transition.fill">1</property>
      <property name="transition.distort">0</property>
      <property name="transition.rect">1044.43 54.9701 977.246 549.701 1</property>
      <property name="transition.valign">middle</property>
      <property name="transition.halign">center</property>
      <property name="shotcut:animIn">00:00:00.000</property>
      <property name="shotcut:animOut">00:00:00.000</property>
      <property name="transition.threads">0</property>
    </filter>
    <filter id="filter110" in="00:00:03.280" out="00:00:25.760">
      <property name="start">1</property>
      <property name="level">00:00:00.000=0;00:00:00.960=1</property>
      <property name="mlt_service">brightness</property>
      <property name="shotcut:filter">fadeInBrightness</property>
      <property name="alpha">1</property>
      <property name="shotcut:animIn">00:00:01.000</property>
    </filter>
    <filter id="filter111" in="00:00:03.280" out="00:00:25.760">
      <property name="window">75</property>
      <property name="max_gain">20dB</property>
      <property name="level">8</property>
      <property name="mlt_service">volume</property>
    </filter>
  </producer>
  <producer id="producer45" in="00:00:00.000" out="00:01:19.560">
    <property name="length">00:01:19.600</property>
    <property name="eof">pause</property>
    <property name="resource">sources/videos/mp4/liebes_maedchen_hoer_mir_zu_haydn_joseph_hob_xxvia_d1_staendchen_serenade_360p_30fps_h264_128kbit_aac.mp4</property>
    <property name="audio_index">1</property>
    <property name="video_index">0</property>
    <property name="mute_on_pause">0</property>
    <property name="mlt_service">avformat-novalidate</property>
    <property name="seekable">1</property>
    <property name="aspect_ratio">1</property>
    <property name="creation_time">2021-03-09T05:28:04</property>
    <property name="shotcut:hash">1494b231473fe5746d3a01d180d76520</property>
    <property name="ignore_points">0</property>
    <property name="shotcut:caption">liebes_maedchen_hoer_mir_zu_haydn_joseph_hob_xxvia_d1_staendchen_serenade_360p_30fps_h264_128kbit_aac.mp4</property>
    <property name="global_feed">1</property>
    <property name="xml">was here</property>
    <filter id="filter112" in="00:00:25.800" out="00:00:37.200">
      <property name="background">color:#00000000</property>
      <property name="mlt_service">affine</property>
      <property name="shotcut:filter">affineSizePosition</property>
      <property name="transition.fill">1</property>
      <property name="transition.distort">0</property>
      <property name="transition.rect">1170.54 501.198 977.246 549.701 1</property>
      <property name="transition.valign">middle</property>
      <property name="transition.halign">center</property>
      <property name="shotcut:animIn">00:00:00.000</property>
      <property name="shotcut:animOut">00:00:00.000</property>
      <property name="transition.threads">0</property>
    </filter>
    <filter id="filter113" in="00:00:25.800" out="00:00:37.200">
      <property name="window">75</property>
      <property name="max_gain">20dB</property>
      <property name="level">8</property>
      <property name="mlt_service">volume</property>
    </filter>
  </producer>
  <producer id="producer47" in="00:00:00.000" out="03:59:59.960">
    <property name="length">04:00:00.000</property>
    <property name="eof">pause</property>
    <property name="resource">sources/images/jpg/heer.jpg</property>
    <property name="ttl">1</property>
    <property name="aspect_ratio">1</property>
    <property name="progressive">1</property>
    <property name="seekable">1</property>
    <property name="mlt_service">qimage</property>
    <property name="creation_time">2021-03-05T10:47:19</property>
    <property name="shotcut:caption">heer.jpg</property>
    <property name="shotcut:hash">58824b9d7e3fce495c537f4b1d3f41ec</property>
    <property name="ignore_points">0</property>
    <property name="global_feed">1</property>
    <property name="xml">was here</property>
    <filter id="filter114" out="00:00:03.640">
      <property name="background">color:#00000000</property>
      <property name="mlt_service">affine</property>
      <property name="shotcut:filter">affineSizePosition</property>
      <property name="transition.fill">1</property>
      <property name="transition.distort">0</property>
      <property name="transition.rect">616.611 537.355 481.93 447.031 1</property>
      <property name="transition.valign">middle</property>
      <property name="transition.halign">center</property>
      <property name="shotcut:animIn">00:00:00.000</property>
      <property name="shotcut:animOut">00:00:00.000</property>
      <property name="transition.threads">0</property>
      <property name="transition.fix_rotate_x">0</property>
    </filter>
    <filter id="filter115" out="00:00:03.640">
      <property name="start">1</property>
      <property name="level">00:00:00.000=0;00:00:00.960=1</property>
      <property name="mlt_service">brightness</property>
      <property name="shotcut:filter">fadeInBrightness</property>
      <property name="alpha">1</property>
      <property name="shotcut:animIn">00:00:01.000</property>
    </filter>
    <filter id="filter116" out="00:00:03.640">
      <property name="start">1</property>
      <property name="level">00:00:02.680=1;00:00:03.640=0</property>
      <property name="mlt_service">brightness</property>
      <property name="shotcut:filter">fadeOutBrightness</property>
      <property name="alpha">1</property>
      <property name="shotcut:animOut">00:00:01.000</property>
    </filter>
  </producer>
  <producer id="producer48" in="00:00:00.000" out="03:59:59.960">
    <property name="length">04:00:00.000</property>
    <property name="eof">pause</property>
    <property name="resource">sources/images/jpg/anti_hitler_koalition.jpg</property>
    <property name="ttl">1</property>
    <property name="aspect_ratio">1</property>
    <property name="progressive">1</property>
    <property name="seekable">1</property>
    <property name="mlt_service">qimage</property>
    <property name="creation_time">2021-03-08T03:51:30</property>
    <property name="shotcut:caption">anti_hitler_koalition.jpg</property>
    <property name="shotcut:hash">2e78ddb4cd43243bac930166fff6c294</property>
    <property name="ignore_points">0</property>
    <property name="global_feed">1</property>
    <property name="xml">was here</property>
    <filter id="filter117" out="00:00:05.120">
      <property name="background">color:#00000000</property>
      <property name="mlt_service">affine</property>
      <property name="shotcut:filter">affineSizePosition</property>
      <property name="transition.fill">1</property>
      <property name="transition.distort">0</property>
      <property name="transition.rect">222.373 61.791 681.462 961.791 1</property>
      <property name="transition.valign">middle</property>
      <property name="transition.halign">center</property>
      <property name="shotcut:animIn">00:00:00.000</property>
      <property name="shotcut:animOut">00:00:00.000</property>
      <property name="transition.threads">0</property>
    </filter>
    <filter id="filter118" out="00:00:05.120">
      <property name="start">1</property>
      <property name="level">00:00:00.000=0;00:00:00.960=1</property>
      <property name="mlt_service">brightness</property>
      <property name="shotcut:filter">fadeInBrightness</property>
      <property name="alpha">1</property>
      <property name="shotcut:animIn">00:00:01.000</property>
    </filter>
    <filter id="filter119" out="00:00:05.120">
      <property name="start">1</property>
      <property name="level">00:00:04.160=1;00:00:05.120=0</property>
      <property name="mlt_service">brightness</property>
      <property name="shotcut:filter">fadeOutBrightness</property>
      <property name="alpha">1</property>
      <property name="shotcut:animOut">00:00:01.000</property>
    </filter>
  </producer>
  <producer id="producer49" in="00:00:00.000" out="03:59:59.960">
    <property name="length">04:00:00.000</property>
    <property name="eof">pause</property>
    <property name="resource">sources/images/jpg/arthur_harris.jpg</property>
    <property name="ttl">1</property>
    <property name="aspect_ratio">1</property>
    <property name="progressive">1</property>
    <property name="seekable">1</property>
    <property name="mlt_service">qimage</property>
    <property name="creation_time">2021-03-08T03:56:28</property>
    <property name="shotcut:caption">arthur_harris.jpg</property>
    <property name="shotcut:hash">fe553c6330a8abc7f9963b906a89fe9a</property>
    <property name="ignore_points">0</property>
    <property name="global_feed">1</property>
    <property name="xml">was here</property>
    <filter id="filter120" out="00:00:03.520">
      <property name="background">color:#00000000</property>
      <property name="mlt_service">affine</property>
      <property name="shotcut:filter">affineSizePosition</property>
      <property name="transition.fill">1</property>
      <property name="transition.distort">0</property>
      <property name="transition.rect">32.3433 42.9851 868.279 977.91 1</property>
      <property name="transition.valign">middle</property>
      <property name="transition.halign">center</property>
      <property name="shotcut:animIn">00:00:00.000</property>
      <property name="shotcut:animOut">00:00:00.000</property>
      <property name="transition.threads">0</property>
    </filter>
    <filter id="filter121" out="00:00:03.520">
      <property name="start">1</property>
      <property name="level">00:00:00.000=0;00:00:00.960=1</property>
      <property name="mlt_service">brightness</property>
      <property name="shotcut:filter">fadeInBrightness</property>
      <property name="alpha">1</property>
      <property name="shotcut:animIn">00:00:01.000</property>
    </filter>
    <filter id="filter122" out="00:00:03.520">
      <property name="start">1</property>
      <property name="level">00:00:02.560=1;00:00:03.520=0</property>
      <property name="mlt_service">brightness</property>
      <property name="shotcut:filter">fadeOutBrightness</property>
      <property name="alpha">1</property>
      <property name="shotcut:animOut">00:00:01.000</property>
    </filter>
  </producer>
  <playlist id="playlist0">
    <property name="shotcut:video">1</property>
    <property name="shotcut:name">V2</property>
    <blank length="00:01:28.400"/>
    <entry producer="producer46" in="00:00:00.320" out="00:00:06.720"/>
    <blank length="00:01:05.280"/>
    <entry producer="producer43" in="00:00:00.000" out="00:00:13.520"/>
    <blank length="00:01:53.000"/>
    <entry producer="producer44" in="00:00:03.280" out="00:00:25.760"/>
    <entry producer="producer45" in="00:00:25.800" out="00:00:37.200"/>
    <blank length="00:06:43.600"/>
    <entry producer="producer47" in="00:00:00.000" out="00:00:03.640"/>
    <blank length="00:00:33.680"/>
    <entry producer="producer48" in="00:00:00.000" out="00:00:05.120"/>
    <blank length="00:00:00.400"/>
    <entry producer="producer49" in="00:00:00.000" out="00:00:03.520"/>
  </playlist>
  <producer id="producer50" in="00:00:00.000" out="03:59:59.960">
    <property name="length">04:00:00.000</property>
    <property name="eof">pause</property>
    <property name="resource">sources/images/jpg/reichsprogramnacht.jpg</property>
    <property name="ttl">1</property>
    <property name="aspect_ratio">1</property>
    <property name="progressive">1</property>
    <property name="seekable">1</property>
    <property name="mlt_service">qimage</property>
    <property name="creation_time">2021-03-05T03:03:34</property>
    <property name="shotcut:caption">reichsprogramnacht.jpg</property>
    <property name="shotcut:hash">5dfa10220254aa113e24327cc3bf69c5</property>
    <property name="ignore_points">0</property>
    <property name="global_feed">1</property>
    <property name="xml">was here</property>
    <filter id="filter123" out="00:00:15.880">
      <property name="background">color:#00000000</property>
      <property name="mlt_service">affine</property>
      <property name="shotcut:filter">affineSizePosition</property>
      <property name="transition.fill">1</property>
      <property name="transition.distort">0</property>
      <property name="transition.rect">141.191 606.855 798.75 426 1</property>
      <property name="transition.valign">middle</property>
      <property name="transition.halign">center</property>
      <property name="shotcut:animIn">00:00:00.000</property>
      <property name="shotcut:animOut">00:00:00.000</property>
      <property name="transition.threads">0</property>
    </filter>
    <filter id="filter124" out="00:00:15.880">
      <property name="start">1</property>
      <property name="level">00:00:00.000=0;00:00:00.960=1</property>
      <property name="mlt_service">brightness</property>
      <property name="shotcut:filter">fadeInBrightness</property>
      <property name="alpha">1</property>
      <property name="shotcut:animIn">00:00:01.000</property>
    </filter>
    <filter id="filter125" out="00:00:15.880">
      <property name="start">1</property>
      <property name="level">00:00:14.920=1;00:00:15.880=0</property>
      <property name="mlt_service">brightness</property>
      <property name="shotcut:filter">fadeOutBrightness</property>
      <property name="alpha">1</property>
      <property name="shotcut:animOut">00:00:01.000</property>
    </filter>
  </producer>
  <producer id="producer51" in="00:00:00.000" out="03:59:59.960">
    <property name="length">04:00:00.000</property>
    <property name="eof">pause</property>
    <property name="resource">sources/images/jpg/dornroeschen.jpg</property>
    <property name="ttl">1</property>
    <property name="aspect_ratio">1</property>
    <property name="progressive">1</property>
    <property name="seekable">1</property>
    <property name="mlt_service">qimage</property>
    <property name="shotcut:caption">dornroeschen.jpg</property>
    <property name="shotcut:hash">71e25f1aea4ed9720cca4c227ea3fa63</property>
    <property name="ignore_points">0</property>
    <property name="global_feed">1</property>
    <property name="xml">was here</property>
    <filter id="filter126" out="00:00:07.000">
      <property name="background">color:#00000000</property>
      <property name="mlt_service">affine</property>
      <property name="shotcut:filter">affineSizePosition</property>
      <property name="transition.fill">1</property>
      <property name="transition.distort">0</property>
      <property name="transition.rect">200.348 614.913 599.455 400 1</property>
      <property name="transition.valign">middle</property>
      <property name="transition.halign">center</property>
      <property name="shotcut:animIn">00:00:00.000</property>
      <property name="shotcut:animOut">00:00:00.000</property>
      <property name="transition.threads">0</property>
    </filter>
    <filter id="filter127" out="00:00:07.000">
      <property name="start">1</property>
      <property name="level">00:00:00.000=0;00:00:00.960=1</property>
      <property name="mlt_service">brightness</property>
      <property name="shotcut:filter">fadeInBrightness</property>
      <property name="alpha">1</property>
      <property name="shotcut:animIn">00:00:01.000</property>
    </filter>
    <filter id="filter128" out="00:00:07.000">
      <property name="start">1</property>
      <property name="level">00:00:06.040=1;00:00:07.000=0</property>
      <property name="mlt_service">brightness</property>
      <property name="shotcut:filter">fadeOutBrightness</property>
      <property name="alpha">1</property>
      <property name="shotcut:animOut">00:00:01.000</property>
    </filter>
  </producer>
  <producer id="producer52" in="00:00:00.000" out="03:59:59.960">
    <property name="length">04:00:00.000</property>
    <property name="eof">pause</property>
    <property name="resource">sources/images/jpg/nuts.jpg</property>
    <property name="ttl">1</property>
    <property name="aspect_ratio">1</property>
    <property name="progressive">1</property>
    <property name="seekable">1</property>
    <property name="mlt_service">qimage</property>
    <property name="creation_time">2021-03-05T03:18:59</property>
    <property name="shotcut:caption">nuts.jpg</property>
    <property name="shotcut:hash">736551bb690b2e3113e78061c8bf0d4f</property>
    <property name="ignore_points">0</property>
    <property name="global_feed">1</property>
    <property name="xml">was here</property>
    <filter id="filter129" out="00:00:06.200">
      <property name="background">color:#00000000</property>
      <property name="mlt_service">affine</property>
      <property name="shotcut:filter">affineSizePosition</property>
      <property name="transition.fill">1</property>
      <property name="transition.distort">0</property>
      <property name="transition.rect">200.348 614.913 599.455 400 1</property>
      <property name="transition.valign">middle</property>
      <property name="transition.halign">center</property>
      <property name="shotcut:animIn">00:00:00.000</property>
      <property name="shotcut:animOut">00:00:00.000</property>
      <property name="transition.threads">0</property>
    </filter>
    <filter id="filter132" out="00:00:06.200">
      <property name="start">1</property>
      <property name="level">00:00:00.000=0;00:00:00.960=1</property>
      <property name="mlt_service">brightness</property>
      <property name="shotcut:filter">fadeInBrightness</property>
      <property name="alpha">1</property>
      <property name="shotcut:animIn">00:00:01.000</property>
    </filter>
    <filter id="filter133" out="00:00:06.200">
      <property name="start">1</property>
      <property name="level">00:00:05.240=1;00:00:06.200=0</property>
      <property name="mlt_service">brightness</property>
      <property name="shotcut:filter">fadeOutBrightness</property>
      <property name="alpha">1</property>
      <property name="shotcut:animOut">00:00:01.000</property>
    </filter>
  </producer>
  <producer id="producer53" in="00:00:00.000" out="03:59:59.960">
    <property name="length">04:00:00.000</property>
    <property name="eof">pause</property>
    <property name="resource">sources/images/jpg/reichskriegsflagge.jpg</property>
    <property name="ttl">1</property>
    <property name="aspect_ratio">1</property>
    <property name="progressive">1</property>
    <property name="seekable">1</property>
    <property name="mlt_service">qimage</property>
    <property name="creation_time">2021-03-05T03:22:06</property>
    <property name="shotcut:caption">reichskriegsflagge.jpg</property>
    <property name="shotcut:hash">4f0a216f713889a1e01b04d3dd51b7b5</property>
    <property name="ignore_points">0</property>
    <property name="global_feed">1</property>
    <property name="xml">was here</property>
    <filter id="filter134" out="00:00:08.400">
      <property name="background">color:#00000000</property>
      <property name="mlt_service">affine</property>
      <property name="shotcut:filter">affineSizePosition</property>
      <property name="transition.fill">1</property>
      <property name="transition.distort">0</property>
      <property name="transition.rect">200.348 614.913 599.455 400 1</property>
      <property name="transition.valign">middle</property>
      <property name="transition.halign">center</property>
      <property name="shotcut:animIn">00:00:00.000</property>
      <property name="shotcut:animOut">00:00:00.000</property>
      <property name="transition.threads">0</property>
      <property name="transition.fix_rotate_x">0</property>
    </filter>
    <filter id="filter135" out="00:00:08.400">
      <property name="start">1</property>
      <property name="level">00:00:00.000=0;00:00:00.960=1</property>
      <property name="mlt_service">brightness</property>
      <property name="shotcut:filter">fadeInBrightness</property>
      <property name="alpha">1</property>
      <property name="shotcut:animIn">00:00:01.000</property>
    </filter>
    <filter id="filter136" out="00:00:08.400">
      <property name="start">1</property>
      <property name="level">00:00:07.440=1;00:00:08.400=0</property>
      <property name="mlt_service">brightness</property>
      <property name="shotcut:filter">fadeOutBrightness</property>
      <property name="alpha">1</property>
      <property name="shotcut:animOut">00:00:01.000</property>
    </filter>
  </producer>
  <producer id="producer54" in="00:00:00.000" out="03:59:59.960">
    <property name="length">04:00:00.000</property>
    <property name="eof">pause</property>
    <property name="resource">sources/images/jpg/pitchforks.jpg</property>
    <property name="ttl">1</property>
    <property name="aspect_ratio">1</property>
    <property name="progressive">1</property>
    <property name="seekable">1</property>
    <property name="mlt_service">qimage</property>
    <property name="creation_time">2021-03-05T03:25:10</property>
    <property name="shotcut:caption">pitchforks.jpg</property>
    <property name="shotcut:hash">22a2267f1e166f8861ed96424e949675</property>
    <property name="ignore_points">0</property>
    <property name="global_feed">1</property>
    <property name="xml">was here</property>
    <filter id="filter137" in="00:00:00.120" out="00:00:09.840">
      <property name="background">color:#00000000</property>
      <property name="mlt_service">affine</property>
      <property name="shotcut:filter">affineSizePosition</property>
      <property name="transition.fill">1</property>
      <property name="transition.distort">0</property>
      <property name="transition.rect">200.348 614.913 599.455 400 1</property>
      <property name="transition.valign">middle</property>
      <property name="transition.halign">center</property>
      <property name="shotcut:animIn">00:00:00.000</property>
      <property name="shotcut:animOut">00:00:00.000</property>
      <property name="transition.threads">0</property>
      <property name="transition.fix_rotate_x">0</property>
    </filter>
    <filter id="filter138" in="00:00:00.120" out="00:00:09.840">
      <property name="start">1</property>
      <property name="level">00:00:00.000=0;00:00:00.960=1</property>
      <property name="mlt_service">brightness</property>
      <property name="shotcut:filter">fadeInBrightness</property>
      <property name="alpha">1</property>
      <property name="shotcut:animIn">00:00:01.000</property>
    </filter>
    <filter id="filter139" in="00:00:00.120" out="00:00:09.840">
      <property name="start">1</property>
      <property name="level">00:00:08.760=1;00:00:09.720=0</property>
      <property name="mlt_service">brightness</property>
      <property name="shotcut:filter">fadeOutBrightness</property>
      <property name="alpha">1</property>
      <property name="shotcut:animOut">00:00:01.000</property>
    </filter>
  </producer>
  <producer id="producer55" in="00:00:00.000" out="03:59:59.960">
    <property name="length">04:00:00.000</property>
    <property name="eof">pause</property>
    <property name="resource">sources/images/jpg/arier.jpg</property>
    <property name="ttl">1</property>
    <property name="aspect_ratio">1</property>
    <property name="progressive">1</property>
    <property name="seekable">1</property>
    <property name="mlt_service">qimage</property>
    <property name="creation_time">2021-03-05T03:32:30</property>
    <property name="shotcut:caption">arier.jpg</property>
    <property name="shotcut:hash">bce5697d21e46afcaca6d12c5dcc3228</property>
    <property name="ignore_points">0</property>
    <property name="global_feed">1</property>
    <property name="xml">was here</property>
    <filter id="filter140" out="00:00:03.480">
      <property name="background">color:#00000000</property>
      <property name="mlt_service">affine</property>
      <property name="shotcut:filter">affineSizePosition</property>
      <property name="transition.fill">1</property>
      <property name="transition.distort">0</property>
      <property name="transition.rect">1272.29 155.51 599.455 337.193 1</property>
      <property name="transition.valign">middle</property>
      <property name="transition.halign">center</property>
      <property name="shotcut:animIn">00:00:00.000</property>
      <property name="shotcut:animOut">00:00:00.000</property>
      <property name="transition.threads">0</property>
    </filter>
    <filter id="filter141" out="00:00:03.480">
      <property name="start">1</property>
      <property name="level">00:00:00.000=0;00:00:00.960=1</property>
      <property name="mlt_service">brightness</property>
      <property name="shotcut:filter">fadeInBrightness</property>
      <property name="alpha">1</property>
      <property name="shotcut:animIn">00:00:01.000</property>
    </filter>
    <filter id="filter142" out="00:00:03.480">
      <property name="start">1</property>
      <property name="level">00:00:02.520=1;00:00:03.480=0</property>
      <property name="mlt_service">brightness</property>
      <property name="shotcut:filter">fadeOutBrightness</property>
      <property name="alpha">1</property>
      <property name="shotcut:animOut">00:00:01.000</property>
    </filter>
  </producer>
  <producer id="producer56" in="00:00:00.000" out="00:00:18.080">
    <property name="length">00:00:18.120</property>
    <property name="eof">pause</property>
    <property name="resource">sources/videos/mp4/fahrraddemo_cut.mp4</property>
    <property name="audio_index">1</property>
    <property name="video_index">0</property>
    <property name="mute_on_pause">0</property>
    <property name="mlt_service">avformat-novalidate</property>
    <property name="seekable">1</property>
    <property name="aspect_ratio">1</property>
    <property name="creation_time">2021-03-08T04:43:42</property>
    <property name="shotcut:hash">ea5d00838aeaad9f78171333b9f24c8e</property>
    <property name="ignore_points">0</property>
    <property name="shotcut:caption">fahrraddemo_cut.mp4</property>
    <property name="global_feed">1</property>
    <property name="xml">was here</property>
    <filter id="filter143" out="00:00:16.560">
      <property name="background">color:#00000000</property>
      <property name="mlt_service">affine</property>
      <property name="shotcut:filter">affineSizePosition</property>
      <property name="transition.fill">1</property>
      <property name="transition.distort">0</property>
      <property name="transition.rect">10.7463 529.254 998.209 561.493 1</property>
      <property name="transition.valign">middle</property>
      <property name="transition.halign">center</property>
      <property name="shotcut:animIn">00:00:00.000</property>
      <property name="shotcut:animOut">00:00:00.000</property>
      <property name="transition.threads">0</property>
    </filter>
    <filter id="filter144" out="00:00:16.560">
      <property name="start">1</property>
      <property name="level">00:00:00.000=0;00:00:00.960=1</property>
      <property name="mlt_service">brightness</property>
      <property name="shotcut:filter">fadeInBrightness</property>
      <property name="alpha">1</property>
      <property name="shotcut:animIn">00:00:01.000</property>
    </filter>
    <filter id="filter145" out="00:00:16.560">
      <property name="start">1</property>
      <property name="level">00:00:15.600=1;00:00:16.560=0</property>
      <property name="mlt_service">brightness</property>
      <property name="shotcut:filter">fadeOutBrightness</property>
      <property name="alpha">1</property>
      <property name="shotcut:animOut">00:00:01.000</property>
    </filter>
    <filter id="filter146" out="00:00:16.560">
      <property name="window">75</property>
      <property name="max_gain">20dB</property>
      <property name="level">12</property>
      <property name="mlt_service">volume</property>
    </filter>
  </producer>
  <producer id="producer57" in="00:00:00.000" out="03:59:59.960">
    <property name="length">04:00:00.000</property>
    <property name="eof">pause</property>
    <property name="resource">sources/images/jpg/hitler_statlin_mao.jpg</property>
    <property name="ttl">1</property>
    <property name="aspect_ratio">1</property>
    <property name="progressive">1</property>
    <property name="seekable">1</property>
    <property name="mlt_service">qimage</property>
    <property name="creation_time">2021-03-05T04:56:38</property>
    <property name="shotcut:caption">hitler_statlin_mao.jpg</property>
    <property name="shotcut:hash">4cb4ae58d1493ae9b3f9bc9de77df6fd</property>
    <property name="ignore_points">0</property>
    <property name="global_feed">1</property>
    <property name="xml">was here</property>
    <filter id="filter147" out="00:00:06.040">
      <property name="start">1</property>
      <property name="level">00:00:00.000=0;00:00:00.960=1</property>
      <property name="mlt_service">brightness</property>
      <property name="shotcut:filter">fadeInBrightness</property>
      <property name="alpha">1</property>
      <property name="shotcut:animIn">00:00:01.000</property>
    </filter>
    <filter id="filter148" out="00:00:06.040">
      <property name="background">color:#00000000</property>
      <property name="mlt_service">affine</property>
      <property name="shotcut:filter">affineSizePosition</property>
      <property name="transition.fill">1</property>
      <property name="transition.distort">0</property>
      <property name="transition.rect">170.943 601.509 653.432 408.395 1</property>
      <property name="transition.valign">middle</property>
      <property name="transition.halign">center</property>
      <property name="shotcut:animIn">00:00:00.000</property>
      <property name="shotcut:animOut">00:00:00.000</property>
      <property name="transition.threads">0</property>
      <property name="transition.fix_rotate_x">0</property>
    </filter>
    <filter id="filter149" out="00:00:06.000">
      <property name="start">1</property>
      <property name="level">00:00:05.040=1;00:00:06.000=0</property>
      <property name="mlt_service">brightness</property>
      <property name="shotcut:filter">fadeOutBrightness</property>
      <property name="alpha">1</property>
      <property name="shotcut:animOut">00:00:01.000</property>
    </filter>
  </producer>
  <producer id="producer58" in="00:00:00.000" out="03:59:59.960">
    <property name="length">04:00:00.000</property>
    <property name="eof">pause</property>
    <property name="resource">sources/images/jpg/ddr.jpg</property>
    <property name="ttl">1</property>
    <property name="aspect_ratio">1</property>
    <property name="progressive">1</property>
    <property name="seekable">1</property>
    <property name="mlt_service">qimage</property>
    <property name="creation_time">2021-03-05T10:08:13</property>
    <property name="shotcut:caption">ddr.jpg</property>
    <property name="shotcut:hash">c5a19a9a30aa63d84de390d32988adca</property>
    <property name="ignore_points">0</property>
    <property name="global_feed">1</property>
    <property name="xml">was here</property>
    <filter id="filter150" out="00:00:14.520">
      <property name="background">color:#00000000</property>
      <property name="mlt_service">affine</property>
      <property name="shotcut:filter">affineSizePosition</property>
      <property name="transition.fill">1</property>
      <property name="transition.distort">0</property>
      <property name="transition.rect">1223.21 163.644 666.985 309.09 1</property>
      <property name="transition.valign">middle</property>
      <property name="transition.halign">center</property>
      <property name="shotcut:animIn">00:00:00.000</property>
      <property name="shotcut:animOut">00:00:00.000</property>
      <property name="transition.threads">0</property>
    </filter>
    <filter id="filter151" out="00:00:14.520">
      <property name="start">1</property>
      <property name="level">00:00:00.000=0;00:00:00.960=1</property>
      <property name="mlt_service">brightness</property>
      <property name="shotcut:filter">fadeInBrightness</property>
      <property name="alpha">1</property>
      <property name="shotcut:animIn">00:00:01.000</property>
    </filter>
    <filter id="filter152" out="00:00:14.520">
      <property name="start">1</property>
      <property name="level">00:00:13.560=1;00:00:14.520=0</property>
      <property name="mlt_service">brightness</property>
      <property name="shotcut:filter">fadeOutBrightness</property>
      <property name="alpha">1</property>
      <property name="shotcut:animOut">00:00:01.000</property>
    </filter>
  </producer>
  <producer id="producer59" in="00:00:00.000" out="03:59:59.960">
    <property name="length">04:00:00.000</property>
    <property name="eof">pause</property>
    <property name="resource">sources/images/jpg/helene_fischer_wm_2014.jpg</property>
    <property name="ttl">1</property>
    <property name="aspect_ratio">1</property>
    <property name="progressive">1</property>
    <property name="seekable">1</property>
    <property name="mlt_service">qimage</property>
    <property name="creation_time">2021-03-05T03:52:08</property>
    <property name="shotcut:caption">helene_fischer_wm_2014.jpg</property>
    <property name="shotcut:hash">9399e17d6482f4259fee580526d38f97</property>
    <property name="ignore_points">0</property>
    <property name="global_feed">1</property>
    <property name="xml">was here</property>
    <filter id="filter153" in="00:00:01.520" out="00:00:05.040">
      <property name="background">color:#00000000</property>
      <property name="mlt_service">affine</property>
      <property name="shotcut:filter">affineSizePosition</property>
      <property name="transition.fill">1</property>
      <property name="transition.distort">0</property>
      <property name="transition.rect">200.348 614.913 614.149 449.154 1</property>
      <property name="transition.valign">middle</property>
      <property name="transition.halign">center</property>
      <property name="shotcut:animIn">00:00:00.000</property>
      <property name="shotcut:animOut">00:00:00.000</property>
      <property name="transition.threads">0</property>
      <property name="transition.fix_rotate_x">0</property>
    </filter>
    <filter id="filter154" in="00:00:01.520" out="00:00:05.040">
      <property name="start">1</property>
      <property name="level">00:00:00.000=0;00:00:00.960=1</property>
      <property name="mlt_service">brightness</property>
      <property name="shotcut:filter">fadeInBrightness</property>
      <property name="alpha">1</property>
      <property name="shotcut:animIn">00:00:01.000</property>
    </filter>
    <filter id="filter155" in="00:00:01.520" out="00:00:05.040">
      <property name="start">1</property>
      <property name="level">00:00:02.560=1;00:00:03.520=0</property>
      <property name="mlt_service">brightness</property>
      <property name="shotcut:filter">fadeOutBrightness</property>
      <property name="alpha">1</property>
      <property name="shotcut:animOut">00:00:01.000</property>
    </filter>
  </producer>
  <producer id="producer60" in="00:00:00.000" out="03:59:59.960">
    <property name="length">04:00:00.000</property>
    <property name="eof">pause</property>
    <property name="resource">sources/images/jpg/auschwitz.jpg</property>
    <property name="ttl">1</property>
    <property name="aspect_ratio">1</property>
    <property name="progressive">1</property>
    <property name="seekable">1</property>
    <property name="mlt_service">qimage</property>
    <property name="creation_time">2021-03-05T03:58:18</property>
    <property name="shotcut:caption">auschwitz.jpg</property>
    <property name="shotcut:hash">568c025cdb0a82fc9ccced603685f777</property>
    <property name="ignore_points">0</property>
    <property name="global_feed">1</property>
    <property name="xml">was here</property>
    <filter id="filter156" out="00:00:04.280">
      <property name="background">color:#00000000</property>
      <property name="mlt_service">affine</property>
      <property name="shotcut:filter">affineSizePosition</property>
      <property name="transition.fill">1</property>
      <property name="transition.distort">0</property>
      <property name="transition.rect">167.093 580.722 672.853 467.938 1</property>
      <property name="transition.valign">middle</property>
      <property name="transition.halign">center</property>
      <property name="shotcut:animIn">00:00:00.000</property>
      <property name="shotcut:animOut">00:00:00.000</property>
      <property name="transition.threads">0</property>
      <property name="transition.fix_rotate_x">0</property>
    </filter>
    <filter id="filter157" out="00:00:04.280">
      <property name="start">1</property>
      <property name="level">00:00:00.000=0;00:00:00.960=1</property>
      <property name="mlt_service">brightness</property>
      <property name="shotcut:filter">fadeInBrightness</property>
      <property name="alpha">1</property>
      <property name="shotcut:animIn">00:00:01.000</property>
    </filter>
    <filter id="filter158" out="00:00:04.280">
      <property name="start">1</property>
      <property name="level">00:00:03.320=1;00:00:04.280=0</property>
      <property name="mlt_service">brightness</property>
      <property name="shotcut:filter">fadeOutBrightness</property>
      <property name="alpha">1</property>
      <property name="shotcut:animOut">00:00:01.000</property>
    </filter>
  </producer>
  <producer id="producer61" in="00:00:00.000" out="03:59:59.960">
    <property name="length">04:00:00.000</property>
    <property name="eof">pause</property>
    <property name="resource">sources/images/jpg/einstein.jpg</property>
    <property name="ttl">1</property>
    <property name="aspect_ratio">1</property>
    <property name="progressive">1</property>
    <property name="seekable">1</property>
    <property name="mlt_service">qimage</property>
    <property name="creation_time">2021-03-05T04:00:08</property>
    <property name="shotcut:caption">einstein.jpg</property>
    <property name="shotcut:hash">74fbfa0b7952b37fae1806aa38782a5a</property>
    <property name="ignore_points">0</property>
    <property name="global_feed">1</property>
    <property name="xml">was here</property>
    <filter id="filter159" out="00:00:06.640">
      <property name="background">color:#00000000</property>
      <property name="mlt_service">affine</property>
      <property name="shotcut:filter">affineSizePosition</property>
      <property name="transition.fill">1</property>
      <property name="transition.distort">0</property>
      <property name="transition.rect">200.348 614.913 599.455 400 1</property>
      <property name="transition.valign">middle</property>
      <property name="transition.halign">center</property>
      <property name="shotcut:animIn">00:00:00.000</property>
      <property name="shotcut:animOut">00:00:00.000</property>
      <property name="transition.threads">0</property>
    </filter>
    <filter id="filter160" out="00:00:06.640">
      <property name="start">1</property>
      <property name="level">00:00:00.000=0;00:00:00.960=1</property>
      <property name="mlt_service">brightness</property>
      <property name="shotcut:filter">fadeInBrightness</property>
      <property name="alpha">1</property>
      <property name="shotcut:animIn">00:00:01.000</property>
    </filter>
    <filter id="filter161" out="00:00:06.640">
      <property name="start">1</property>
      <property name="level">00:00:05.680=1;00:00:06.640=0</property>
      <property name="mlt_service">brightness</property>
      <property name="shotcut:filter">fadeOutBrightness</property>
      <property name="alpha">1</property>
      <property name="shotcut:animOut">00:00:01.000</property>
    </filter>
  </producer>
  <producer id="producer62" in="00:00:00.000" out="03:59:59.960">
    <property name="length">04:00:00.000</property>
    <property name="eof">pause</property>
    <property name="resource">sources/images/jpg/barbaren.jpg</property>
    <property name="ttl">1</property>
    <property name="aspect_ratio">1</property>
    <property name="progressive">1</property>
    <property name="seekable">1</property>
    <property name="mlt_service">qimage</property>
    <property name="creation_time">2021-03-05T04:05:22</property>
    <property name="shotcut:caption">barbaren.jpg</property>
    <property name="shotcut:hash">32d6ade2c823cd74308ccc927a51f497</property>
    <property name="ignore_points">0</property>
    <property name="global_feed">1</property>
    <property name="xml">was here</property>
    <filter id="filter162" out="00:00:07.160">
      <property name="background">color:#00000000</property>
      <property name="mlt_service">affine</property>
      <property name="shotcut:filter">affineSizePosition</property>
      <property name="transition.fill">1</property>
      <property name="transition.distort">0</property>
      <property name="transition.rect">130.497 623.859 787.246 394.186 1</property>
      <property name="transition.valign">middle</property>
      <property name="transition.halign">center</property>
      <property name="shotcut:animIn">00:00:00.000</property>
      <property name="shotcut:animOut">00:00:00.000</property>
      <property name="transition.threads">0</property>
    </filter>
    <filter id="filter163" out="00:00:07.160">
      <property name="start">1</property>
      <property name="level">00:00:00.000=0;00:00:00.960=1</property>
      <property name="mlt_service">brightness</property>
      <property name="shotcut:filter">fadeInBrightness</property>
      <property name="alpha">1</property>
      <property name="shotcut:animIn">00:00:01.000</property>
    </filter>
    <filter id="filter164" out="00:00:07.160">
      <property name="start">1</property>
      <property name="level">00:00:06.200=1;00:00:07.160=0</property>
      <property name="mlt_service">brightness</property>
      <property name="shotcut:filter">fadeOutBrightness</property>
      <property name="alpha">1</property>
      <property name="shotcut:animOut">00:00:01.000</property>
    </filter>
  </producer>
  <producer id="producer63" in="00:00:00.000" out="03:59:59.960">
    <property name="length">04:00:00.000</property>
    <property name="eof">pause</property>
    <property name="resource">sources/images/jpg/nichtwaehler.jpg</property>
    <property name="ttl">1</property>
    <property name="aspect_ratio">1</property>
    <property name="progressive">1</property>
    <property name="seekable">1</property>
    <property name="mlt_service">qimage</property>
    <property name="shotcut:caption">nichtwaehler.jpg</property>
    <property name="shotcut:hash">f96edbde10d161917a31ee263ea18b7c</property>
    <property name="ignore_points">0</property>
    <property name="global_feed">1</property>
    <property name="xml">was here</property>
    <filter id="filter165" out="00:00:06.960">
      <property name="background">color:#00000000</property>
      <property name="mlt_service">affine</property>
      <property name="shotcut:filter">affineSizePosition</property>
      <property name="transition.fill">1</property>
      <property name="transition.distort">0</property>
      <property name="transition.rect">73.0909 620.261 809.03 411.515 1</property>
      <property name="transition.valign">middle</property>
      <property name="transition.halign">center</property>
      <property name="shotcut:animIn">00:00:00.000</property>
      <property name="shotcut:animOut">00:00:00.000</property>
      <property name="transition.threads">0</property>
      <property name="transition.fix_rotate_x">0</property>
    </filter>
    <filter id="filter166" out="00:00:06.960">
      <property name="start">1</property>
      <property name="level">00:00:00.000=0;00:00:00.960=1</property>
      <property name="mlt_service">brightness</property>
      <property name="shotcut:filter">fadeInBrightness</property>
      <property name="alpha">1</property>
      <property name="shotcut:animIn">00:00:01.000</property>
    </filter>
    <filter id="filter167" out="00:00:06.960">
      <property name="start">1</property>
      <property name="level">00:00:06.000=1;00:00:06.960=0</property>
      <property name="mlt_service">brightness</property>
      <property name="shotcut:filter">fadeOutBrightness</property>
      <property name="alpha">1</property>
      <property name="shotcut:animOut">00:00:01.000</property>
    </filter>
  </producer>
  <producer id="producer64" in="00:00:00.000" out="03:59:59.960">
    <property name="length">04:00:00.000</property>
    <property name="eof">pause</property>
    <property name="resource">sources/images/jpg/punkt_12.jpg</property>
    <property name="ttl">1</property>
    <property name="aspect_ratio">1</property>
    <property name="progressive">1</property>
    <property name="seekable">1</property>
    <property name="mlt_service">qimage</property>
    <property name="creation_time">2021-03-05T04:19:58</property>
    <property name="shotcut:caption">punkt_12.jpg</property>
    <property name="shotcut:hash">c0d48ad7a8491d79aba3f08aa9f6ddcc</property>
    <property name="ignore_points">0</property>
    <property name="global_feed">1</property>
    <property name="xml">was here</property>
    <filter id="filter168" in="00:00:00.040" out="00:00:06.600">
      <property name="background">color:#00000000</property>
      <property name="mlt_service">affine</property>
      <property name="shotcut:filter">affineSizePosition</property>
      <property name="transition.fill">1</property>
      <property name="transition.distort">0</property>
      <property name="transition.rect">30.5367 638.687 904.82 337.12 1</property>
      <property name="transition.valign">middle</property>
      <property name="transition.halign">center</property>
      <property name="shotcut:animIn">00:00:00.000</property>
      <property name="shotcut:animOut">00:00:00.000</property>
      <property name="transition.threads">0</property>
    </filter>
    <filter id="filter169" in="00:00:00.040" out="00:00:06.600">
      <property name="start">1</property>
      <property name="level">00:00:00.000=0;00:00:00.960=1</property>
      <property name="mlt_service">brightness</property>
      <property name="shotcut:filter">fadeInBrightness</property>
      <property name="alpha">1</property>
      <property name="shotcut:animIn">00:00:01.000</property>
    </filter>
  </producer>
  <producer id="producer65" in="00:00:00.000" out="03:59:59.960">
    <property name="length">04:00:00.000</property>
    <property name="eof">pause</property>
    <property name="resource">sources/images/jpg/deutschland.jpg</property>
    <property name="ttl">1</property>
    <property name="aspect_ratio">1</property>
    <property name="progressive">1</property>
    <property name="seekable">1</property>
    <property name="mlt_service">qimage</property>
    <property name="creation_time">2021-03-05T10:07:53</property>
    <property name="shotcut:caption">deutschland.jpg</property>
    <property name="shotcut:hash">c4af23ec8f0cf62ed780491ba9440043</property>
    <property name="ignore_points">0</property>
    <property name="global_feed">1</property>
    <property name="xml">was here</property>
    <filter id="filter170" out="00:00:13.520">
      <property name="background">color:#00000000</property>
      <property name="mlt_service">affine</property>
      <property name="shotcut:filter">affineSizePosition</property>
      <property name="transition.fill">1</property>
      <property name="transition.distort">0</property>
      <property name="transition.rect">1223.21 99.6719 666.985 435.331 1</property>
      <property name="transition.valign">middle</property>
      <property name="transition.halign">center</property>
      <property name="shotcut:animIn">00:00:00.000</property>
      <property name="shotcut:animOut">00:00:00.000</property>
      <property name="transition.threads">0</property>
      <property name="transition.fix_rotate_x">0</property>
    </filter>
    <filter id="filter171" out="00:00:13.520">
      <property name="start">1</property>
      <property name="level">00:00:00.000=0;00:00:00.960=1</property>
      <property name="mlt_service">brightness</property>
      <property name="shotcut:filter">fadeInBrightness</property>
      <property name="alpha">1</property>
      <property name="shotcut:animIn">00:00:01.000</property>
    </filter>
    <filter id="filter172" out="00:00:13.520">
      <property name="start">1</property>
      <property name="level">00:00:12.560=1;00:00:13.520=0</property>
      <property name="mlt_service">brightness</property>
      <property name="shotcut:filter">fadeOutBrightness</property>
      <property name="alpha">1</property>
      <property name="shotcut:animOut">00:00:01.000</property>
    </filter>
  </producer>
  <producer id="producer66" in="00:00:00.000" out="03:59:59.960">
    <property name="length">04:00:00.000</property>
    <property name="eof">pause</property>
    <property name="resource">sources/images/png/antifa2.png</property>
    <property name="ttl">1</property>
    <property name="aspect_ratio">1</property>
    <property name="progressive">1</property>
    <property name="seekable">1</property>
    <property name="mlt_service">qimage</property>
    <property name="creation_time">2021-03-05T03:55:15</property>
    <property name="shotcut:caption">antifa2.png</property>
    <property name="shotcut:hash">7b33f44d31709c5717e1bedc400849d1</property>
    <property name="ignore_points">0</property>
    <property name="global_feed">1</property>
    <property name="xml">was here</property>
    <filter id="filter173" out="00:00:07.120">
      <property name="background">color:#00000000</property>
      <property name="mlt_service">affine</property>
      <property name="shotcut:filter">affineSizePosition</property>
      <property name="transition.fill">1</property>
      <property name="transition.distort">0</property>
      <property name="transition.rect">1343.18 113.97 400 400 1</property>
      <property name="transition.valign">middle</property>
      <property name="transition.halign">center</property>
      <property name="shotcut:animIn">00:00:00.000</property>
      <property name="shotcut:animOut">00:00:00.000</property>
      <property name="transition.threads">0</property>
      <property name="transition.fix_rotate_x">0</property>
    </filter>
    <filter id="filter174" out="00:00:07.120">
      <property name="start">1</property>
      <property name="level">00:00:00.000=0;00:00:00.960=1</property>
      <property name="mlt_service">brightness</property>
      <property name="shotcut:filter">fadeInBrightness</property>
      <property name="alpha">1</property>
      <property name="shotcut:animIn">00:00:01.000</property>
    </filter>
  </producer>
  <producer id="producer67" in="00:00:00.000" out="03:59:59.960">
    <property name="length">04:00:00.000</property>
    <property name="eof">pause</property>
    <property name="resource">sources/images/jpg/wuerde_unantastbar.jpg</property>
    <property name="ttl">1</property>
    <property name="aspect_ratio">1</property>
    <property name="progressive">1</property>
    <property name="seekable">1</property>
    <property name="mlt_service">qimage</property>
    <property name="shotcut:caption">wuerde_unantastbar.jpg</property>
    <property name="shotcut:hash">e80ff0f25e3db0ab3a332ba3f86be9ec</property>
    <property name="ignore_points">0</property>
    <property name="global_feed">1</property>
    <property name="xml">was here</property>
    <filter id="filter175" in="00:00:00.720" out="00:00:07.640">
      <property name="background">color:#00000000</property>
      <property name="mlt_service">affine</property>
      <property name="shotcut:filter">affineSizePosition</property>
      <property name="transition.fill">1</property>
      <property name="transition.distort">0</property>
      <property name="transition.rect">129.027 582.649 737.088 491.085 1</property>
      <property name="transition.valign">middle</property>
      <property name="transition.halign">center</property>
      <property name="shotcut:animIn">00:00:00.000</property>
      <property name="shotcut:animOut">00:00:00.000</property>
      <property name="transition.threads">0</property>
      <property name="transition.fix_rotate_x">0</property>
    </filter>
    <filter id="filter176" in="00:00:00.720" out="00:00:07.640">
      <property name="start">1</property>
      <property name="level">00:00:00.000=0;00:00:00.960=1</property>
      <property name="mlt_service">brightness</property>
      <property name="shotcut:filter">fadeInBrightness</property>
      <property name="alpha">1</property>
      <property name="shotcut:animIn">00:00:01.000</property>
    </filter>
  </producer>
  <producer id="producer68" in="00:00:00.000" out="03:59:59.960">
    <property name="length">04:00:00.000</property>
    <property name="eof">pause</property>
    <property name="resource">sources/images/jpg/vikings.jpg</property>
    <property name="ttl">1</property>
    <property name="aspect_ratio">1</property>
    <property name="progressive">1</property>
    <property name="seekable">1</property>
    <property name="mlt_service">qimage</property>
    <property name="creation_time">2021-03-05T05:46:29</property>
    <property name="shotcut:caption">vikings.jpg</property>
    <property name="shotcut:hash">6fa90dde61f2420b8ae7e3bab1d2327f</property>
    <property name="ignore_points">0</property>
    <property name="global_feed">1</property>
    <property name="xml">was here</property>
    <filter id="filter177" out="00:00:06.640">
      <property name="background">color:#00000000</property>
      <property name="mlt_service">affine</property>
      <property name="shotcut:filter">affineSizePosition</property>
      <property name="transition.fill">1</property>
      <property name="transition.distort">0</property>
      <property name="transition.rect">129.027 582.649 737.088 491.085 1</property>
      <property name="transition.valign">middle</property>
      <property name="transition.halign">center</property>
      <property name="shotcut:animIn">00:00:00.000</property>
      <property name="shotcut:animOut">00:00:00.000</property>
      <property name="transition.threads">0</property>
      <property name="transition.fix_rotate_x">0</property>
    </filter>
    <filter id="filter178" out="00:00:06.640">
      <property name="start">1</property>
      <property name="level">00:00:00.000=0;00:00:00.960=1</property>
      <property name="mlt_service">brightness</property>
      <property name="shotcut:filter">fadeInBrightness</property>
      <property name="alpha">1</property>
      <property name="shotcut:animIn">00:00:01.000</property>
    </filter>
  </producer>
  <producer id="producer69" in="00:00:00.000" out="03:59:59.960">
    <property name="length">04:00:00.000</property>
    <property name="eof">pause</property>
    <property name="resource">sources/images/jpg/handtuch_kampf.jpg</property>
    <property name="ttl">1</property>
    <property name="aspect_ratio">1</property>
    <property name="progressive">1</property>
    <property name="seekable">1</property>
    <property name="mlt_service">qimage</property>
    <property name="creation_time">2021-03-05T05:40:06</property>
    <property name="shotcut:caption">handtuch_kampf.jpg</property>
    <property name="shotcut:hash">37ec9b726119d63704b76777229335c4</property>
    <property name="ignore_points">0</property>
    <property name="global_feed">1</property>
    <property name="xml">was here</property>
    <filter id="filter179" out="00:00:06.080">
      <property name="background">color:#00000000</property>
      <property name="mlt_service">affine</property>
      <property name="shotcut:filter">affineSizePosition</property>
      <property name="transition.fill">1</property>
      <property name="transition.distort">0</property>
      <property name="transition.rect">161.291 582.649 637.019 475.633 1</property>
      <property name="transition.valign">middle</property>
      <property name="transition.halign">center</property>
      <property name="shotcut:animIn">00:00:00.000</property>
      <property name="shotcut:animOut">00:00:00.000</property>
      <property name="transition.threads">0</property>
      <property name="transition.fix_rotate_x">0</property>
    </filter>
    <filter id="filter180" out="00:00:06.080">
      <property name="start">1</property>
      <property name="level">00:00:00.000=0;00:00:00.960=1</property>
      <property name="mlt_service">brightness</property>
      <property name="shotcut:filter">fadeInBrightness</property>
      <property name="alpha">1</property>
      <property name="shotcut:animIn">00:00:01.000</property>
    </filter>
  </producer>
  <producer id="producer70" in="00:00:00.000" out="00:01:47.320">
    <property name="length">00:01:47.360</property>
    <property name="eof">pause</property>
    <property name="resource">sources/videos/mp4/the_chemical_brothers_dont_think.mp4</property>
    <property name="audio_index">1</property>
    <property name="video_index">0</property>
    <property name="mute_on_pause">0</property>
    <property name="mlt_service">avformat-novalidate</property>
    <property name="seekable">1</property>
    <property name="aspect_ratio">1</property>
    <property name="creation_time">2021-03-09T04:54:31</property>
    <property name="shotcut:hash">42786f9d371ce23bff9a9f1908e2ad19</property>
    <property name="ignore_points">0</property>
    <property name="shotcut:caption">the_chemical_brothers_dont_think.mp4</property>
    <property name="global_feed">1</property>
    <property name="xml">was here</property>
  </producer>
  <producer id="producer71" in="00:00:00.000" out="00:01:47.320">
    <property name="length">00:01:47.360</property>
    <property name="eof">pause</property>
    <property name="resource">sources/videos/mp4/the_chemical_brothers_dont_think.mp4</property>
    <property name="audio_index">1</property>
    <property name="video_index">0</property>
    <property name="mute_on_pause">0</property>
    <property name="mlt_service">avformat-novalidate</property>
    <property name="seekable">1</property>
    <property name="aspect_ratio">1</property>
    <property name="creation_time">2021-03-09T04:54:31</property>
    <property name="shotcut:hash">42786f9d371ce23bff9a9f1908e2ad19</property>
    <property name="ignore_points">0</property>
    <property name="shotcut:caption">the_chemical_brothers_dont_think.mp4</property>
    <property name="global_feed">1</property>
    <property name="xml">was here</property>
    <filter id="filter181" in="00:00:11.600" out="00:00:26.800">
      <property name="background">color:#00000000</property>
      <property name="mlt_service">affine</property>
      <property name="shotcut:filter">affineSizePosition</property>
      <property name="transition.fill">1</property>
      <property name="transition.distort">0</property>
      <property name="transition.rect">1152.63 648.478 764.444 429.75 1</property>
      <property name="transition.valign">middle</property>
      <property name="transition.halign">center</property>
      <property name="shotcut:animIn">00:00:00.000</property>
      <property name="shotcut:animOut">00:00:00.000</property>
      <property name="transition.threads">0</property>
    </filter>
    <filter id="filter182" in="00:00:11.600" out="00:00:26.800">
      <property name="window">75</property>
      <property name="max_gain">20dB</property>
      <property name="level">-5</property>
      <property name="mlt_service">volume</property>
    </filter>
  </producer>
  <producer id="producer72" in="00:00:00.000" out="00:01:47.320">
    <property name="length">00:01:47.360</property>
    <property name="eof">pause</property>
    <property name="resource">sources/videos/mp4/the_chemical_brothers_dont_think.mp4</property>
    <property name="audio_index">1</property>
    <property name="video_index">0</property>
    <property name="mute_on_pause">0</property>
    <property name="mlt_service">avformat-novalidate</property>
    <property name="seekable">1</property>
    <property name="aspect_ratio">1</property>
    <property name="creation_time">2021-03-09T04:54:31</property>
    <property name="shotcut:hash">42786f9d371ce23bff9a9f1908e2ad19</property>
    <property name="ignore_points">0</property>
    <property name="shotcut:caption">the_chemical_brothers_dont_think.mp4</property>
    <property name="global_feed">1</property>
    <property name="xml">was here</property>
  </producer>
  <producer id="producer73" in="00:00:00.000" out="00:01:47.320">
    <property name="length">00:01:47.360</property>
    <property name="eof">pause</property>
    <property name="resource">sources/videos/mp4/the_chemical_brothers_dont_think.mp4</property>
    <property name="audio_index">1</property>
    <property name="video_index">0</property>
    <property name="mute_on_pause">0</property>
    <property name="mlt_service">avformat-novalidate</property>
    <property name="seekable">1</property>
    <property name="aspect_ratio">1</property>
    <property name="creation_time">2021-03-09T04:54:31</property>
    <property name="shotcut:hash">42786f9d371ce23bff9a9f1908e2ad19</property>
    <property name="ignore_points">0</property>
    <property name="shotcut:caption">the_chemical_brothers_dont_think.mp4</property>
    <property name="global_feed">1</property>
    <property name="xml">was here</property>
    <filter id="filter183" in="00:00:28.040" out="00:00:34.200">
      <property name="background">color:#00000000</property>
      <property name="mlt_service">affine</property>
      <property name="shotcut:filter">affineSizePosition</property>
      <property name="transition.fill">1</property>
      <property name="transition.distort">0</property>
      <property name="transition.rect">1152.63 648.478 764.444 429.75 1</property>
      <property name="transition.valign">middle</property>
      <property name="transition.halign">center</property>
      <property name="shotcut:animIn">00:00:00.000</property>
      <property name="shotcut:animOut">00:00:00.000</property>
      <property name="transition.threads">0</property>
    </filter>
    <filter id="filter184" in="00:00:28.040" out="00:00:34.200">
      <property name="window">75</property>
      <property name="max_gain">20dB</property>
      <property name="level">-5</property>
      <property name="mlt_service">volume</property>
    </filter>
  </producer>
  <producer id="producer74" in="00:00:00.000" out="00:01:47.320">
    <property name="length">00:01:47.360</property>
    <property name="eof">pause</property>
    <property name="resource">sources/videos/mp4/the_chemical_brothers_dont_think.mp4</property>
    <property name="audio_index">1</property>
    <property name="video_index">0</property>
    <property name="mute_on_pause">0</property>
    <property name="mlt_service">avformat-novalidate</property>
    <property name="seekable">1</property>
    <property name="aspect_ratio">1</property>
    <property name="creation_time">2021-03-09T04:54:31</property>
    <property name="shotcut:hash">42786f9d371ce23bff9a9f1908e2ad19</property>
    <property name="ignore_points">0</property>
    <property name="shotcut:caption">the_chemical_brothers_dont_think.mp4</property>
    <property name="global_feed">1</property>
    <property name="xml">was here</property>
  </producer>
  <producer id="producer75" in="00:00:00.000" out="00:01:47.320">
    <property name="length">00:01:47.360</property>
    <property name="eof">pause</property>
    <property name="resource">sources/videos/mp4/the_chemical_brothers_dont_think.mp4</property>
    <property name="audio_index">1</property>
    <property name="video_index">0</property>
    <property name="mute_on_pause">0</property>
    <property name="mlt_service">avformat-novalidate</property>
    <property name="seekable">1</property>
    <property name="aspect_ratio">1</property>
    <property name="creation_time">2021-03-09T04:54:31</property>
    <property name="shotcut:hash">42786f9d371ce23bff9a9f1908e2ad19</property>
    <property name="ignore_points">0</property>
    <property name="shotcut:caption">the_chemical_brothers_dont_think.mp4</property>
    <property name="global_feed">1</property>
    <property name="xml">was here</property>
    <filter id="filter185" in="00:00:35.320" out="00:00:41.640">
      <property name="background">color:#00000000</property>
      <property name="mlt_service">affine</property>
      <property name="shotcut:filter">affineSizePosition</property>
      <property name="transition.fill">1</property>
      <property name="transition.distort">0</property>
      <property name="transition.rect">1152.63 648.478 764.444 429.75 1</property>
      <property name="transition.valign">middle</property>
      <property name="transition.halign">center</property>
      <property name="shotcut:animIn">00:00:00.000</property>
      <property name="shotcut:animOut">00:00:00.000</property>
      <property name="transition.threads">0</property>
    </filter>
    <filter id="filter186" in="00:00:35.320" out="00:00:41.640">
      <property name="window">75</property>
      <property name="max_gain">20dB</property>
      <property name="level">-5</property>
      <property name="mlt_service">volume</property>
    </filter>
  </producer>
  <producer id="producer76" in="00:00:00.000" out="00:01:47.320">
    <property name="length">00:01:47.360</property>
    <property name="eof">pause</property>
    <property name="resource">sources/videos/mp4/the_chemical_brothers_dont_think.mp4</property>
    <property name="audio_index">1</property>
    <property name="video_index">0</property>
    <property name="mute_on_pause">0</property>
    <property name="mlt_service">avformat-novalidate</property>
    <property name="seekable">1</property>
    <property name="aspect_ratio">1</property>
    <property name="creation_time">2021-03-09T04:54:31</property>
    <property name="shotcut:hash">42786f9d371ce23bff9a9f1908e2ad19</property>
    <property name="ignore_points">0</property>
    <property name="shotcut:caption">the_chemical_brothers_dont_think.mp4</property>
    <property name="global_feed">1</property>
    <property name="xml">was here</property>
  </producer>
  <producer id="producer77" in="00:00:00.000" out="00:01:47.320">
    <property name="length">00:01:47.360</property>
    <property name="eof">pause</property>
    <property name="resource">sources/videos/mp4/the_chemical_brothers_dont_think.mp4</property>
    <property name="audio_index">1</property>
    <property name="video_index">0</property>
    <property name="mute_on_pause">0</property>
    <property name="mlt_service">avformat-novalidate</property>
    <property name="seekable">1</property>
    <property name="aspect_ratio">1</property>
    <property name="creation_time">2021-03-09T04:54:31</property>
    <property name="shotcut:hash">42786f9d371ce23bff9a9f1908e2ad19</property>
    <property name="ignore_points">0</property>
    <property name="shotcut:caption">the_chemical_brothers_dont_think.mp4</property>
    <property name="global_feed">1</property>
    <property name="xml">was here</property>
    <filter id="filter187" in="00:00:42.760" out="00:00:49.000">
      <property name="background">color:#00000000</property>
      <property name="mlt_service">affine</property>
      <property name="shotcut:filter">affineSizePosition</property>
      <property name="transition.fill">1</property>
      <property name="transition.distort">0</property>
      <property name="transition.rect">1152.63 648.478 764.444 429.75 1</property>
      <property name="transition.valign">middle</property>
      <property name="transition.halign">center</property>
      <property name="shotcut:animIn">00:00:00.000</property>
      <property name="shotcut:animOut">00:00:00.000</property>
      <property name="transition.threads">0</property>
      <property name="transition.fix_rotate_x">0</property>
    </filter>
    <filter id="filter188" in="00:00:42.760" out="00:00:49.000">
      <property name="window">75</property>
      <property name="max_gain">20dB</property>
      <property name="level">-5</property>
      <property name="mlt_service">volume</property>
    </filter>
  </producer>
  <producer id="producer78" in="00:00:00.000" out="00:01:47.320">
    <property name="length">00:01:47.360</property>
    <property name="eof">pause</property>
    <property name="resource">sources/videos/mp4/the_chemical_brothers_dont_think.mp4</property>
    <property name="audio_index">1</property>
    <property name="video_index">0</property>
    <property name="mute_on_pause">0</property>
    <property name="mlt_service">avformat-novalidate</property>
    <property name="seekable">1</property>
    <property name="aspect_ratio">1</property>
    <property name="creation_time">2021-03-09T04:54:31</property>
    <property name="shotcut:hash">42786f9d371ce23bff9a9f1908e2ad19</property>
    <property name="ignore_points">0</property>
    <property name="shotcut:caption">the_chemical_brothers_dont_think.mp4</property>
    <property name="global_feed">1</property>
    <property name="xml">was here</property>
  </producer>
  <producer id="producer79" in="00:00:00.000" out="00:01:47.320">
    <property name="length">00:01:47.360</property>
    <property name="eof">pause</property>
    <property name="resource">sources/videos/mp4/the_chemical_brothers_dont_think.mp4</property>
    <property name="audio_index">1</property>
    <property name="video_index">0</property>
    <property name="mute_on_pause">0</property>
    <property name="mlt_service">avformat-novalidate</property>
    <property name="seekable">1</property>
    <property name="aspect_ratio">1</property>
    <property name="creation_time">2021-03-09T04:54:31</property>
    <property name="shotcut:hash">42786f9d371ce23bff9a9f1908e2ad19</property>
    <property name="ignore_points">0</property>
    <property name="shotcut:caption">the_chemical_brothers_dont_think.mp4</property>
    <property name="global_feed">1</property>
    <property name="xml">was here</property>
    <filter id="filter189" in="00:00:53.240" out="00:01:02.920">
      <property name="background">color:#00000000</property>
      <property name="mlt_service">affine</property>
      <property name="shotcut:filter">affineSizePosition</property>
      <property name="transition.fill">1</property>
      <property name="transition.distort">0</property>
      <property name="transition.rect">1152.63 648.478 764.444 429.75 1</property>
      <property name="transition.valign">middle</property>
      <property name="transition.halign">center</property>
      <property name="shotcut:animIn">00:00:00.000</property>
      <property name="shotcut:animOut">00:00:00.000</property>
      <property name="transition.threads">0</property>
      <property name="transition.fix_rotate_x">0</property>
    </filter>
    <filter id="filter190" in="00:00:53.240" out="00:01:02.920">
      <property name="window">75</property>
      <property name="max_gain">20dB</property>
      <property name="level">-5</property>
      <property name="mlt_service">volume</property>
    </filter>
  </producer>
  <producer id="producer80" in="00:00:00.000" out="00:01:47.320">
    <property name="length">00:01:47.360</property>
    <property name="eof">pause</property>
    <property name="resource">sources/videos/mp4/the_chemical_brothers_dont_think.mp4</property>
    <property name="audio_index">-1</property>
    <property name="video_index">0</property>
    <property name="mute_on_pause">0</property>
    <property name="mlt_service">avformat-novalidate</property>
    <property name="seekable">1</property>
    <property name="aspect_ratio">1</property>
    <property name="creation_time">2021-03-09T04:54:31</property>
    <property name="shotcut:hash">42786f9d371ce23bff9a9f1908e2ad19</property>
    <property name="ignore_points">0</property>
    <property name="shotcut:caption">the_chemical_brothers_dont_think.mp4</property>
    <property name="global_feed">1</property>
    <property name="xml">was here</property>
    <property name="shotcut:defaultAudioIndex">1</property>
    <filter id="filter191" in="00:01:02.960" out="00:01:47.320">
      <property name="background">color:#00000000</property>
      <property name="mlt_service">affine</property>
      <property name="shotcut:filter">affineSizePosition</property>
      <property name="transition.fill">1</property>
      <property name="transition.distort">0</property>
      <property name="transition.rect">1152.63 648.478 764.444 429.75 1</property>
      <property name="transition.valign">middle</property>
      <property name="transition.halign">center</property>
      <property name="shotcut:animIn">00:00:00.000</property>
      <property name="shotcut:animOut">00:00:00.000</property>
      <property name="transition.threads">0</property>
      <property name="transition.fix_rotate_x">0</property>
    </filter>
    <filter id="filter192" in="00:01:02.960" out="00:01:47.320">
      <property name="window">75</property>
      <property name="max_gain">20dB</property>
      <property name="level">-5</property>
      <property name="mlt_service">volume</property>
    </filter>
  </producer>
  <producer id="producer81" in="00:00:00.000" out="03:59:59.960">
    <property name="length">04:00:00.000</property>
    <property name="eof">pause</property>
    <property name="resource">sources/images/jpg/kategorischer_imperativ.jpg</property>
    <property name="ttl">1</property>
    <property name="aspect_ratio">1</property>
    <property name="progressive">1</property>
    <property name="seekable">1</property>
    <property name="mlt_service">qimage</property>
    <property name="creation_time">2021-03-05T04:40:18</property>
    <property name="shotcut:caption">kategorischer_imperativ.jpg</property>
    <property name="shotcut:hash">8cc5e34715edd3224f0166d0ff69bdc1</property>
    <property name="ignore_points">0</property>
    <property name="global_feed">1</property>
    <property name="xml">was here</property>
    <filter id="filter193" out="00:00:07.640">
      <property name="background">color:#00000000</property>
      <property name="mlt_service">affine</property>
      <property name="shotcut:filter">affineSizePosition</property>
      <property name="transition.fill">1</property>
      <property name="transition.distort">0</property>
      <property name="transition.rect">22.0461 601.328 924.569 415.306 1</property>
      <property name="transition.valign">middle</property>
      <property name="transition.halign">center</property>
      <property name="shotcut:animIn">00:00:00.000</property>
      <property name="shotcut:animOut">00:00:00.000</property>
      <property name="transition.threads">0</property>
    </filter>
    <filter id="filter194" out="00:00:07.640">
      <property name="start">1</property>
      <property name="level">00:00:00.000=0;00:00:00.960=1</property>
      <property name="mlt_service">brightness</property>
      <property name="shotcut:filter">fadeInBrightness</property>
      <property name="alpha">1</property>
      <property name="shotcut:animIn">00:00:01.000</property>
    </filter>
    <filter id="filter195" out="00:00:07.640">
      <property name="start">1</property>
      <property name="level">00:00:06.680=1;00:00:07.640=0</property>
      <property name="mlt_service">brightness</property>
      <property name="shotcut:filter">fadeOutBrightness</property>
      <property name="alpha">1</property>
      <property name="shotcut:animOut">00:00:01.000</property>
    </filter>
  </producer>
  <producer id="producer82" in="00:00:00.000" out="03:59:59.960">
    <property name="length">04:00:00.000</property>
    <property name="eof">pause</property>
    <property name="resource">sources/images/jpg/ddr.jpg</property>
    <property name="ttl">1</property>
    <property name="aspect_ratio">1</property>
    <property name="progressive">1</property>
    <property name="seekable">1</property>
    <property name="mlt_service">qimage</property>
    <property name="creation_time">2021-03-05T10:08:13</property>
    <property name="shotcut:caption">ddr.jpg</property>
    <property name="shotcut:hash">c5a19a9a30aa63d84de390d32988adca</property>
    <property name="ignore_points">0</property>
    <property name="global_feed">1</property>
    <property name="xml">was here</property>
    <filter id="filter196" out="00:00:29.400">
      <property name="background">color:#00000000</property>
      <property name="mlt_service">affine</property>
      <property name="shotcut:filter">affineSizePosition</property>
      <property name="transition.fill">1</property>
      <property name="transition.distort">0</property>
      <property name="transition.rect">1223.21 163.644 666.985 309.09 1</property>
      <property name="transition.valign">middle</property>
      <property name="transition.halign">center</property>
      <property name="shotcut:animIn">00:00:00.000</property>
      <property name="shotcut:animOut">00:00:00.000</property>
      <property name="transition.threads">0</property>
    </filter>
    <filter id="filter197" out="00:00:29.400">
      <property name="start">1</property>
      <property name="level">00:00:00.000=0;00:00:00.960=1</property>
      <property name="mlt_service">brightness</property>
      <property name="shotcut:filter">fadeInBrightness</property>
      <property name="alpha">1</property>
      <property name="shotcut:animIn">00:00:01.000</property>
    </filter>
    <filter id="filter198" out="00:00:29.400">
      <property name="start">1</property>
      <property name="level">00:00:28.440=1;00:00:29.400=0</property>
      <property name="mlt_service">brightness</property>
      <property name="shotcut:filter">fadeOutBrightness</property>
      <property name="alpha">1</property>
      <property name="shotcut:animOut">00:00:01.000</property>
    </filter>
  </producer>
  <producer id="producer83" in="00:00:00.000" out="03:59:59.960">
    <property name="length">04:00:00.000</property>
    <property name="eof">pause</property>
    <property name="resource">sources/images/jpg/eu.jpg</property>
    <property name="ttl">1</property>
    <property name="aspect_ratio">1</property>
    <property name="progressive">1</property>
    <property name="seekable">1</property>
    <property name="mlt_service">qimage</property>
    <property name="creation_time">2021-03-05T10:13:31</property>
    <property name="shotcut:caption">eu.jpg</property>
    <property name="shotcut:hash">ceb0347668fd00d8f19613b229e800a7</property>
    <property name="ignore_points">0</property>
    <property name="global_feed">1</property>
    <property name="xml">was here</property>
    <filter id="filter199" out="00:00:08.360">
      <property name="background">color:#00000000</property>
      <property name="mlt_service">affine</property>
      <property name="shotcut:filter">affineSizePosition</property>
      <property name="transition.fill">1</property>
      <property name="transition.distort">0</property>
      <property name="transition.rect">1311.32 47.1177 458.708 525.09 1</property>
      <property name="transition.valign">middle</property>
      <property name="transition.halign">center</property>
      <property name="shotcut:animIn">00:00:00.000</property>
      <property name="shotcut:animOut">00:00:00.000</property>
      <property name="transition.threads">0</property>
    </filter>
    <filter id="filter200" out="00:00:08.360">
      <property name="start">1</property>
      <property name="level">00:00:00.000=0;00:00:00.960=1</property>
      <property name="mlt_service">brightness</property>
      <property name="shotcut:filter">fadeInBrightness</property>
      <property name="alpha">1</property>
      <property name="shotcut:animIn">00:00:01.000</property>
    </filter>
    <filter id="filter201" out="00:00:08.360">
      <property name="start">1</property>
      <property name="level">00:00:07.400=1;00:00:08.360=0</property>
      <property name="mlt_service">brightness</property>
      <property name="shotcut:filter">fadeOutBrightness</property>
      <property name="alpha">1</property>
      <property name="shotcut:animOut">00:00:01.000</property>
    </filter>
  </producer>
  <producer id="producer84" in="00:00:00.000" out="03:59:59.960">
    <property name="length">04:00:00.000</property>
    <property name="eof">pause</property>
    <property name="resource">sources/images/jpg/hitlers_leiche.jpg</property>
    <property name="ttl">1</property>
    <property name="aspect_ratio">1</property>
    <property name="progressive">1</property>
    <property name="seekable">1</property>
    <property name="mlt_service">qimage</property>
    <property name="creation_time">2021-03-05T10:38:50</property>
    <property name="shotcut:caption">hitlers_leiche.jpg</property>
    <property name="shotcut:hash">d24ed6710ab2b3f55f57ff0f8cb147f1</property>
    <property name="ignore_points">0</property>
    <property name="global_feed">1</property>
    <property name="xml">was here</property>
    <filter id="filter202" out="00:00:01.960">
      <property name="background">color:#00000000</property>
      <property name="mlt_service">affine</property>
      <property name="shotcut:filter">affineSizePosition</property>
      <property name="transition.fill">1</property>
      <property name="transition.distort">0</property>
      <property name="transition.rect">1211.18 40.6311 654.518 428.663 1</property>
      <property name="transition.valign">middle</property>
      <property name="transition.halign">center</property>
      <property name="shotcut:animIn">00:00:00.000</property>
      <property name="shotcut:animOut">00:00:00.000</property>
      <property name="transition.threads">0</property>
      <property name="transition.fix_rotate_x">0</property>
    </filter>
  </producer>
  <producer id="producer85" in="00:00:00.000" out="03:59:59.960">
    <property name="length">04:00:00.000</property>
    <property name="eof">pause</property>
    <property name="resource">sources/images/jpg/luftwaffe.jpg</property>
    <property name="ttl">1</property>
    <property name="aspect_ratio">1</property>
    <property name="progressive">1</property>
    <property name="seekable">1</property>
    <property name="mlt_service">qimage</property>
    <property name="creation_time">2021-03-05T10:42:34</property>
    <property name="shotcut:caption">luftwaffe.jpg</property>
    <property name="shotcut:hash">0651f9bd3f68a901198811eee64a023b</property>
    <property name="ignore_points">0</property>
    <property name="global_feed">1</property>
    <property name="xml">was here</property>
    <filter id="filter203" out="00:00:05.160">
      <property name="background">color:#00000000</property>
      <property name="mlt_service">affine</property>
      <property name="shotcut:filter">affineSizePosition</property>
      <property name="transition.fill">1</property>
      <property name="transition.distort">0</property>
      <property name="transition.rect">1284.98 32.0654 492.589 437.68 1</property>
      <property name="transition.valign">middle</property>
      <property name="transition.halign">center</property>
      <property name="shotcut:animIn">00:00:00.000</property>
      <property name="shotcut:animOut">00:00:00.000</property>
      <property name="transition.threads">0</property>
      <property name="transition.fix_rotate_x">0</property>
    </filter>
    <filter id="filter204" out="00:00:05.160">
      <property name="start">1</property>
      <property name="level">00:00:00.000=0;00:00:00.960=1</property>
      <property name="mlt_service">brightness</property>
      <property name="shotcut:filter">fadeInBrightness</property>
      <property name="alpha">1</property>
      <property name="shotcut:animIn">00:00:01.000</property>
    </filter>
    <filter id="filter205" out="00:00:05.160">
      <property name="start">1</property>
      <property name="level">00:00:04.200=1;00:00:05.160=0</property>
      <property name="mlt_service">brightness</property>
      <property name="shotcut:filter">fadeOutBrightness</property>
      <property name="alpha">1</property>
      <property name="shotcut:animOut">00:00:01.000</property>
    </filter>
  </producer>
  <producer id="producer86" in="00:00:00.000" out="03:59:59.960">
    <property name="length">04:00:00.000</property>
    <property name="eof">pause</property>
    <property name="resource">sources/images/jpg/botonwerk_bad_lausick.jpg</property>
    <property name="ttl">1</property>
    <property name="aspect_ratio">1</property>
    <property name="progressive">1</property>
    <property name="seekable">1</property>
    <property name="mlt_service">qimage</property>
    <property name="creation_time">2021-03-05T10:54:44</property>
    <property name="shotcut:caption">botonwerk_bad_lausick.jpg</property>
    <property name="shotcut:hash">d717068fcfe9ad2db57a4856aa01f557</property>
    <property name="ignore_points">0</property>
    <property name="global_feed">1</property>
    <property name="xml">was here</property>
    <filter id="filter206" out="00:00:05.040">
      <property name="background">color:#00000000</property>
      <property name="mlt_service">affine</property>
      <property name="shotcut:filter">affineSizePosition</property>
      <property name="transition.fill">1</property>
      <property name="transition.distort">0</property>
      <property name="transition.rect">1284.98 32.0654 492.589 437.68 1</property>
      <property name="transition.valign">middle</property>
      <property name="transition.halign">center</property>
      <property name="shotcut:animIn">00:00:00.000</property>
      <property name="shotcut:animOut">00:00:00.000</property>
      <property name="transition.threads">0</property>
      <property name="transition.fix_rotate_x">0</property>
    </filter>
    <filter id="filter207" out="00:00:05.040">
      <property name="start">1</property>
      <property name="level">00:00:00.000=0;00:00:00.960=1</property>
      <property name="mlt_service">brightness</property>
      <property name="shotcut:filter">fadeInBrightness</property>
      <property name="alpha">1</property>
      <property name="shotcut:animIn">00:00:01.000</property>
    </filter>
    <filter id="filter208" out="00:00:05.040">
      <property name="start">1</property>
      <property name="level">00:00:04.080=1;00:00:05.040=0</property>
      <property name="mlt_service">brightness</property>
      <property name="shotcut:filter">fadeOutBrightness</property>
      <property name="alpha">1</property>
      <property name="shotcut:animOut">00:00:01.000</property>
    </filter>
  </producer>
  <producer id="producer87" in="00:00:00.000" out="03:59:59.960">
    <property name="length">04:00:00.000</property>
    <property name="eof">pause</property>
    <property name="resource">sources/images/jpg/flasche_rose.jpg</property>
    <property name="ttl">1</property>
    <property name="aspect_ratio">1</property>
    <property name="progressive">1</property>
    <property name="seekable">1</property>
    <property name="mlt_service">qimage</property>
    <property name="creation_time">2021-03-05T10:32:10</property>
    <property name="shotcut:caption">flasche_rose.jpg</property>
    <property name="shotcut:hash">b1c57e195e9be131feae7c5274d08422</property>
    <property name="ignore_points">0</property>
    <property name="global_feed">1</property>
    <property name="xml">was here</property>
    <filter id="filter209" out="00:00:05.960">
      <property name="background">color:#00000000</property>
      <property name="mlt_service">affine</property>
      <property name="shotcut:filter">affineSizePosition</property>
      <property name="transition.fill">1</property>
      <property name="transition.distort">0</property>
      <property name="transition.rect">1401.64 17.0131 265.353 460.258 1</property>
      <property name="transition.valign">middle</property>
      <property name="transition.halign">center</property>
      <property name="shotcut:animIn">00:00:00.000</property>
      <property name="shotcut:animOut">00:00:00.000</property>
      <property name="transition.threads">0</property>
      <property name="transition.fix_rotate_x">0</property>
    </filter>
    <filter id="filter210" out="00:00:05.960">
      <property name="start">1</property>
      <property name="level">00:00:00.000=0;00:00:00.960=1</property>
      <property name="mlt_service">brightness</property>
      <property name="shotcut:filter">fadeInBrightness</property>
      <property name="alpha">1</property>
      <property name="shotcut:animIn">00:00:01.000</property>
    </filter>
    <filter id="filter211" out="00:00:05.960">
      <property name="start">1</property>
      <property name="level">00:00:05.000=1;00:00:05.960=0</property>
      <property name="mlt_service">brightness</property>
      <property name="shotcut:filter">fadeOutBrightness</property>
      <property name="alpha">1</property>
      <property name="shotcut:animOut">00:00:01.000</property>
    </filter>
  </producer>
  <producer id="producer88" in="00:00:00.000" out="03:59:59.960">
    <property name="length">04:00:00.000</property>
    <property name="eof">pause</property>
    <property name="resource">sources/images/jpg/kriegsfuehrende_staaten_im_zweiten_weltkrieg.jpg</property>
    <property name="ttl">1</property>
    <property name="aspect_ratio">1</property>
    <property name="progressive">1</property>
    <property name="seekable">1</property>
    <property name="mlt_service">qimage</property>
    <property name="creation_time">2021-03-08T03:48:48</property>
    <property name="shotcut:caption">kriegsfuehrende_staaten_im_zweiten_weltkrieg.jpg</property>
    <property name="shotcut:hash">3badd61c1805810839ff4821ee5aa6b8</property>
    <property name="ignore_points">0</property>
    <property name="global_feed">1</property>
    <property name="xml">was here</property>
    <filter id="filter212" out="00:00:05.120">
      <property name="background">color:#00000000</property>
      <property name="mlt_service">affine</property>
      <property name="shotcut:filter">affineSizePosition</property>
      <property name="transition.fill">1</property>
      <property name="transition.distort">0</property>
      <property name="transition.rect">1140 11.9542 729.209 475.516 1</property>
      <property name="transition.valign">middle</property>
      <property name="transition.halign">center</property>
      <property name="shotcut:animIn">00:00:00.000</property>
      <property name="shotcut:animOut">00:00:00.000</property>
      <property name="transition.threads">0</property>
    </filter>
    <filter id="filter213" out="00:00:05.120">
      <property name="start">1</property>
      <property name="level">00:00:00.000=0;00:00:00.960=1</property>
      <property name="mlt_service">brightness</property>
      <property name="shotcut:filter">fadeInBrightness</property>
      <property name="alpha">1</property>
      <property name="shotcut:animIn">00:00:01.000</property>
    </filter>
    <filter id="filter214" out="00:00:05.120">
      <property name="start">1</property>
      <property name="level">00:00:04.160=1;00:00:05.120=0</property>
      <property name="mlt_service">brightness</property>
      <property name="shotcut:filter">fadeOutBrightness</property>
      <property name="alpha">1</property>
      <property name="shotcut:animOut">00:00:01.000</property>
    </filter>
  </producer>
  <producer id="producer89" in="00:00:00.000" out="03:59:59.960">
    <property name="length">04:00:00.000</property>
    <property name="eof">pause</property>
    <property name="resource">sources/images/jpg/britischer_bomber.jpg</property>
    <property name="ttl">1</property>
    <property name="aspect_ratio">1</property>
    <property name="progressive">1</property>
    <property name="seekable">1</property>
    <property name="mlt_service">qimage</property>
    <property name="creation_time">2021-03-05T10:19:43</property>
    <property name="shotcut:caption">britischer_bomber.jpg</property>
    <property name="shotcut:hash">d6af5908fd16f74f0504aa6090e674b1</property>
    <property name="ignore_points">0</property>
    <property name="global_feed">1</property>
    <property name="xml">was here</property>
    <filter id="filter215" out="00:00:03.520">
      <property name="background">color:#00000000</property>
      <property name="mlt_service">affine</property>
      <property name="shotcut:filter">affineSizePosition</property>
      <property name="transition.fill">1</property>
      <property name="transition.distort">0</property>
      <property name="transition.rect">1468.8 14.3265 405.767 460.258 1</property>
      <property name="transition.valign">middle</property>
      <property name="transition.halign">center</property>
      <property name="shotcut:animIn">00:00:00.000</property>
      <property name="shotcut:animOut">00:00:00.000</property>
      <property name="transition.threads">0</property>
      <property name="transition.fix_rotate_x">0</property>
    </filter>
    <filter id="filter216" out="00:00:03.520">
      <property name="start">1</property>
      <property name="level">00:00:00.000=0;00:00:00.960=1</property>
      <property name="mlt_service">brightness</property>
      <property name="shotcut:filter">fadeInBrightness</property>
      <property name="alpha">1</property>
      <property name="shotcut:animIn">00:00:01.000</property>
    </filter>
    <filter id="filter217" out="00:00:03.520">
      <property name="start">1</property>
      <property name="level">00:00:02.560=1;00:00:03.520=0</property>
      <property name="mlt_service">brightness</property>
      <property name="shotcut:filter">fadeOutBrightness</property>
      <property name="alpha">1</property>
      <property name="shotcut:animOut">00:00:01.000</property>
    </filter>
  </producer>
  <producer id="producer90" in="00:00:00.000" out="03:59:59.960">
    <property name="length">04:00:00.000</property>
    <property name="eof">pause</property>
    <property name="resource">sources/images/jpg/flasche_rose.jpg</property>
    <property name="ttl">1</property>
    <property name="aspect_ratio">1</property>
    <property name="progressive">1</property>
    <property name="seekable">1</property>
    <property name="mlt_service">qimage</property>
    <property name="creation_time">2021-03-05T10:32:10</property>
    <property name="shotcut:caption">flasche_rose.jpg</property>
    <property name="shotcut:hash">b1c57e195e9be131feae7c5274d08422</property>
    <property name="ignore_points">0</property>
    <property name="global_feed">1</property>
    <property name="xml">was here</property>
    <filter id="filter218" out="00:00:04.160">
      <property name="background">color:#00000000</property>
      <property name="mlt_service">affine</property>
      <property name="shotcut:filter">affineSizePosition</property>
      <property name="transition.fill">1</property>
      <property name="transition.distort">0</property>
      <property name="transition.rect">1401.64 17.0131 265.353 460.258 1</property>
      <property name="transition.valign">middle</property>
      <property name="transition.halign">center</property>
      <property name="shotcut:animIn">00:00:00.000</property>
      <property name="shotcut:animOut">00:00:00.000</property>
      <property name="transition.threads">0</property>
      <property name="transition.fix_rotate_x">0</property>
    </filter>
    <filter id="filter219" out="00:00:04.160">
      <property name="start">1</property>
      <property name="level">00:00:00.000=0;00:00:00.960=1</property>
      <property name="mlt_service">brightness</property>
      <property name="shotcut:filter">fadeInBrightness</property>
      <property name="alpha">1</property>
      <property name="shotcut:animIn">00:00:01.000</property>
    </filter>
    <filter id="filter220" out="00:00:04.160">
      <property name="start">1</property>
      <property name="level">00:00:03.200=1;00:00:04.160=0</property>
      <property name="mlt_service">brightness</property>
      <property name="shotcut:filter">fadeOutBrightness</property>
      <property name="alpha">1</property>
      <property name="shotcut:animOut">00:00:01.000</property>
    </filter>
  </producer>
  <producer id="producer91" in="00:00:00.000" out="03:59:59.960">
    <property name="length">04:00:00.000</property>
    <property name="eof">pause</property>
    <property name="resource">sources/images/jpg/kapitulation.jpg</property>
    <property name="ttl">1</property>
    <property name="aspect_ratio">1</property>
    <property name="progressive">1</property>
    <property name="seekable">1</property>
    <property name="mlt_service">qimage</property>
    <property name="creation_time">2021-03-05T10:52:20</property>
    <property name="shotcut:caption">kapitulation.jpg</property>
    <property name="shotcut:hash">a64e4c6626eb27161b2596420c4514fb</property>
    <property name="ignore_points">0</property>
    <property name="global_feed">1</property>
    <property name="xml">was here</property>
    <filter id="filter221" out="00:00:03.320">
      <property name="background">color:#00000000</property>
      <property name="mlt_service">affine</property>
      <property name="shotcut:filter">affineSizePosition</property>
      <property name="transition.fill">1</property>
      <property name="transition.distort">0</property>
      <property name="transition.rect">1270.62 18.043 481.486 460.945 1</property>
      <property name="transition.valign">middle</property>
      <property name="transition.halign">center</property>
      <property name="shotcut:animIn">00:00:00.000</property>
      <property name="shotcut:animOut">00:00:00.000</property>
      <property name="transition.threads">0</property>
      <property name="transition.fix_rotate_x">0</property>
    </filter>
    <filter id="filter222" out="00:00:03.320">
      <property name="start">1</property>
      <property name="level">00:00:00.000=0;00:00:00.960=1</property>
      <property name="mlt_service">brightness</property>
      <property name="shotcut:filter">fadeInBrightness</property>
      <property name="alpha">1</property>
      <property name="shotcut:animIn">00:00:01.000</property>
    </filter>
    <filter id="filter223" out="00:00:03.320">
      <property name="start">1</property>
      <property name="level">00:00:02.360=1;00:00:03.320=0</property>
      <property name="mlt_service">brightness</property>
      <property name="shotcut:filter">fadeOutBrightness</property>
      <property name="alpha">1</property>
      <property name="shotcut:animOut">00:00:01.000</property>
    </filter>
  </producer>
  <producer id="producer92" in="00:00:00.000" out="03:59:59.960">
    <property name="length">04:00:00.000</property>
    <property name="eof">pause</property>
    <property name="resource">sources/images/jpg/kleidung_ist_gegen_gott.jpg</property>
    <property name="ttl">1</property>
    <property name="aspect_ratio">1</property>
    <property name="progressive">1</property>
    <property name="seekable">1</property>
    <property name="mlt_service">qimage</property>
    <property name="creation_time">2021-03-05T06:25:25</property>
    <property name="shotcut:caption">kleidung_ist_gegen_gott.jpg</property>
    <property name="shotcut:hash">df33e57231f18ba750b8c1adecdae698</property>
    <property name="ignore_points">0</property>
    <property name="global_feed">1</property>
    <property name="xml">was here</property>
    <filter id="filter224" out="00:00:06.280">
      <property name="start">1</property>
      <property name="level">00:00:00.000=0;00:00:00.960=1</property>
      <property name="mlt_service">brightness</property>
      <property name="shotcut:filter">fadeInBrightness</property>
      <property name="alpha">1</property>
      <property name="shotcut:animIn">00:00:01.000</property>
    </filter>
    <filter id="filter225" out="00:00:06.280">
      <property name="background">color:#00000000</property>
      <property name="mlt_service">affine</property>
      <property name="shotcut:filter">affineSizePosition</property>
      <property name="transition.fill">1</property>
      <property name="transition.distort">0</property>
      <property name="transition.rect">1212.77 233.698 588 799.396 1</property>
      <property name="transition.valign">middle</property>
      <property name="transition.halign">center</property>
      <property name="shotcut:animIn">00:00:00.000</property>
      <property name="shotcut:animOut">00:00:00.000</property>
      <property name="transition.threads">0</property>
    </filter>
  </producer>
  <producer id="producer93" in="00:00:00.000" out="03:59:59.960">
    <property name="length">04:00:00.000</property>
    <property name="eof">pause</property>
    <property name="resource">sources/images/jpg/haeuserkampf.jpg</property>
    <property name="ttl">1</property>
    <property name="aspect_ratio">1</property>
    <property name="progressive">1</property>
    <property name="seekable">1</property>
    <property name="mlt_service">qimage</property>
    <property name="shotcut:caption">haeuserkampf.jpg</property>
    <property name="shotcut:hash">b9d11a405be152adc3be56b2e5b8fa20</property>
    <property name="ignore_points">0</property>
    <property name="global_feed">1</property>
    <property name="xml">was here</property>
    <filter id="filter226" out="00:00:05.400">
      <property name="background">color:#00000000</property>
      <property name="mlt_service">affine</property>
      <property name="shotcut:filter">affineSizePosition</property>
      <property name="transition.fill">1</property>
      <property name="transition.distort">0</property>
      <property name="transition.rect">271.178 595.396 595.056 429.63 1</property>
      <property name="transition.valign">middle</property>
      <property name="transition.halign">center</property>
      <property name="shotcut:animIn">00:00:00.000</property>
      <property name="shotcut:animOut">00:00:00.000</property>
      <property name="transition.threads">0</property>
      <property name="transition.fix_rotate_x">0</property>
    </filter>
    <filter id="filter227" out="00:00:05.400">
      <property name="start">1</property>
      <property name="level">00:00:00.000=0;00:00:00.960=1</property>
      <property name="mlt_service">brightness</property>
      <property name="shotcut:filter">fadeInBrightness</property>
      <property name="alpha">1</property>
      <property name="shotcut:animIn">00:00:01.000</property>
    </filter>
    <filter id="filter228" out="00:00:05.400">
      <property name="start">1</property>
      <property name="level">00:00:04.440=1;00:00:05.400=0</property>
      <property name="mlt_service">brightness</property>
      <property name="shotcut:filter">fadeOutBrightness</property>
      <property name="alpha">1</property>
      <property name="shotcut:animOut">00:00:01.000</property>
    </filter>
  </producer>
  <playlist id="playlist2">
    <property name="shotcut:video">1</property>
    <property name="shotcut:name">V3</property>
    <blank length="00:00:03.960"/>
    <entry producer="producer50" in="00:00:00.000" out="00:00:15.880"/>
    <blank length="00:00:06.880"/>
    <entry producer="producer51" in="00:00:00.000" out="00:00:07.000"/>
    <blank length="00:00:00.120"/>
    <entry producer="producer52" in="00:00:00.000" out="00:00:06.200"/>
    <blank length="00:00:00.280"/>
    <entry producer="producer53" in="00:00:00.000" out="00:00:08.400"/>
    <blank length="00:00:12.400"/>
    <entry producer="producer54" in="00:00:00.120" out="00:00:09.840"/>
    <blank length="00:00:00.200"/>
    <entry producer="producer55" in="00:00:00.000" out="00:00:03.480"/>
    <entry producer="producer56" in="00:00:00.000" out="00:00:16.560"/>
    <blank length="00:00:03.640"/>
    <entry producer="producer57" in="00:00:00.000" out="00:00:06.000"/>
    <blank length="00:00:00.040"/>
    <entry producer="producer58" in="00:00:00.040" out="00:00:14.520"/>
    <blank length="00:00:03.720"/>
    <entry producer="producer59" in="00:00:01.520" out="00:00:05.040"/>
    <blank length="00:00:03.240"/>
    <entry producer="producer60" in="00:00:00.000" out="00:00:04.280"/>
    <blank length="00:00:02.040"/>
    <entry producer="producer61" in="00:00:00.000" out="00:00:06.640"/>
    <entry producer="producer62" in="00:00:00.000" out="00:00:07.160"/>
    <blank length="00:00:00.120"/>
    <entry producer="producer63" in="00:00:00.000" out="00:00:06.960"/>
    <blank length="00:00:00.040"/>
    <entry producer="producer64" in="00:00:00.040" out="00:00:06.600"/>
    <entry producer="producer65" in="00:00:00.000" out="00:00:13.520"/>
    <entry producer="producer66" in="00:00:00.000" out="00:00:07.120"/>
    <entry producer="producer67" in="00:00:00.720" out="00:00:07.640"/>
    <blank length="00:00:00.320"/>
    <entry producer="producer68" in="00:00:00.000" out="00:00:06.640"/>
    <entry producer="producer69" in="00:00:00.000" out="00:00:06.080"/>
    <blank length="00:00:00.920"/>
    <entry producer="producer70" in="00:00:00.000" out="00:00:11.560"/>
    <entry producer="producer71" in="00:00:11.600" out="00:00:26.800"/>
    <entry producer="producer72" in="00:00:26.840" out="00:00:28.000"/>
    <entry producer="producer73" in="00:00:28.040" out="00:00:34.200"/>
    <entry producer="producer74" in="00:00:34.240" out="00:00:35.280"/>
    <entry producer="producer75" in="00:00:35.320" out="00:00:41.640"/>
    <entry producer="producer76" in="00:00:41.680" out="00:00:42.720"/>
    <entry producer="producer77" in="00:00:42.760" out="00:00:49.000"/>
    <entry producer="producer78" in="00:00:49.040" out="00:00:53.200"/>
    <entry producer="producer79" in="00:00:53.240" out="00:01:02.920"/>
    <entry producer="producer80" in="00:01:02.960" out="00:01:47.320"/>
    <blank length="00:05:34.560"/>
    <entry producer="producer81" in="00:00:00.000" out="00:00:07.640"/>
    <entry producer="producer82" in="00:00:00.000" out="00:00:29.400"/>
    <entry producer="producer83" in="00:00:00.000" out="00:00:08.360"/>
    <blank length="00:00:31.480"/>
    <entry producer="producer84" in="00:00:00.000" out="00:00:01.960"/>
    <entry producer="producer85" in="00:00:00.040" out="00:00:05.160"/>
    <blank length="00:00:03.640"/>
    <entry producer="producer86" in="00:00:00.000" out="00:00:05.040"/>
    <blank length="00:00:01.520"/>
    <entry producer="producer87" in="00:00:00.000" out="00:00:05.960"/>
    <blank length="00:00:17.440"/>
    <entry producer="producer88" in="00:00:00.000" out="00:00:05.120"/>
    <blank length="00:00:00.400"/>
    <entry producer="producer89" in="00:00:00.000" out="00:00:03.520"/>
    <blank length="00:00:13.640"/>
    <entry producer="producer90" in="00:00:00.000" out="00:00:04.160"/>
    <blank length="00:00:14.000"/>
    <entry producer="producer91" in="00:00:00.000" out="00:00:03.320"/>
    <blank length="00:00:46.360"/>
    <entry producer="producer92" in="00:00:00.000" out="00:00:06.280"/>
    <blank length="00:00:01.080"/>
    <entry producer="producer93" in="00:00:00.000" out="00:00:05.360"/>
  </playlist>
  <producer id="producer94" in="00:00:00.000" out="00:09:22.920">
    <property name="length">00:09:22.960</property>
    <property name="eof">pause</property>
    <property name="resource">sources/videos/mp4/rammstein_deutschland_official_video_800p_25fps_av1_128kbit_aac.mp4</property>
    <property name="audio_index">1</property>
    <property name="video_index">0</property>
    <property name="mute_on_pause">0</property>
    <property name="mlt_service">avformat-novalidate</property>
    <property name="seekable">1</property>
    <property name="aspect_ratio">1</property>
    <property name="creation_time">2021-03-05T02:33:35</property>
    <property name="shotcut:hash">90fbe86b70e26c0e139c645fa6df843e</property>
    <property name="ignore_points">0</property>
    <property name="shotcut:caption">rammstein_deutschland_official_video_800p_25fps_av1_128kbit_aac.mp4</property>
    <property name="global_feed">1</property>
    <property name="xml">was here</property>
    <filter id="filter229" out="00:01:12.480">
      <property name="background">color:#00000000</property>
      <property name="mlt_service">affine</property>
      <property name="shotcut:filter">affineSizePosition</property>
      <property name="transition.fill">1</property>
      <property name="transition.distort">0</property>
      <property name="transition.rect">6.22642 75.0943 1180.08 491.698 1</property>
      <property name="transition.valign">middle</property>
      <property name="transition.halign">center</property>
      <property name="shotcut:animIn">00:00:00.000</property>
      <property name="shotcut:animOut">00:00:00.000</property>
      <property name="transition.threads">0</property>
    </filter>
    <filter id="filter230" out="00:01:12.480">
      <property name="start">1</property>
      <property name="level">00:00:00.000=0;00:00:00.960=1</property>
      <property name="mlt_service">brightness</property>
      <property name="shotcut:filter">fadeInBrightness</property>
      <property name="alpha">1</property>
      <property name="shotcut:animIn">00:00:01.000</property>
    </filter>
    <filter id="filter231" out="00:01:12.480">
      <property name="window">75</property>
      <property name="max_gain">20dB</property>
      <property name="level">-5</property>
      <property name="mlt_service">volume</property>
    </filter>
  </producer>
  <producer id="producer95" in="00:00:00.000" out="00:09:22.920">
    <property name="length">00:09:22.960</property>
    <property name="eof">pause</property>
    <property name="resource">sources/videos/mp4/rammstein_deutschland_official_video_800p_25fps_av1_128kbit_aac.mp4</property>
    <property name="audio_index">1</property>
    <property name="video_index">0</property>
    <property name="mute_on_pause">0</property>
    <property name="mlt_service">avformat-novalidate</property>
    <property name="seekable">1</property>
    <property name="aspect_ratio">1</property>
    <property name="creation_time">2021-03-05T02:33:35</property>
    <property name="shotcut:hash">90fbe86b70e26c0e139c645fa6df843e</property>
    <property name="ignore_points">0</property>
    <property name="shotcut:caption">rammstein_deutschland_official_video_800p_25fps_av1_128kbit_aac.mp4</property>
    <property name="global_feed">1</property>
    <property name="xml">was here</property>
    <filter id="filter232" out="00:00:28.960">
      <property name="background">color:#00000000</property>
      <property name="mlt_service">affine</property>
      <property name="shotcut:filter">affineSizePosition</property>
      <property name="transition.fill">1</property>
      <property name="transition.distort">0</property>
      <property name="transition.rect">6.22642 75.0943 1180.08 491.698 1</property>
      <property name="transition.valign">middle</property>
      <property name="transition.halign">center</property>
      <property name="shotcut:animIn">00:00:00.000</property>
      <property name="shotcut:animOut">00:00:00.000</property>
      <property name="transition.threads">0</property>
    </filter>
    <filter id="filter233" out="00:00:28.960">
      <property name="window">75</property>
      <property name="max_gain">20dB</property>
      <property name="level">0</property>
      <property name="mlt_service">volume</property>
      <property name="disable">0</property>
    </filter>
  </producer>
  <producer id="producer96" in="00:00:00.000" out="00:09:22.920">
    <property name="length">00:09:22.960</property>
    <property name="eof">pause</property>
    <property name="resource">sources/videos/mp4/rammstein_deutschland_official_video_800p_25fps_av1_128kbit_aac.mp4</property>
    <property name="audio_index">1</property>
    <property name="video_index">0</property>
    <property name="mute_on_pause">0</property>
    <property name="mlt_service">avformat-novalidate</property>
    <property name="seekable">1</property>
    <property name="aspect_ratio">1</property>
    <property name="creation_time">2021-03-05T02:33:35</property>
    <property name="shotcut:hash">90fbe86b70e26c0e139c645fa6df843e</property>
    <property name="ignore_points">0</property>
    <property name="shotcut:caption">rammstein_deutschland_official_video_800p_25fps_av1_128kbit_aac.mp4</property>
    <property name="global_feed">1</property>
    <property name="xml">was here</property>
    <filter id="filter234" in="00:00:29.000" out="00:00:39.880">
      <property name="background">color:#00000000</property>
      <property name="mlt_service">affine</property>
      <property name="shotcut:filter">affineSizePosition</property>
      <property name="transition.fill">1</property>
      <property name="transition.distort">0</property>
      <property name="transition.rect">6.22642 75.0943 1180.08 491.698 1</property>
      <property name="transition.valign">middle</property>
      <property name="transition.halign">center</property>
      <property name="shotcut:animIn">00:00:00.000</property>
      <property name="shotcut:animOut">00:00:00.000</property>
      <property name="transition.threads">0</property>
      <property name="transition.fix_rotate_x">0</property>
    </filter>
    <filter id="filter235" in="00:00:29.000" out="00:00:39.880">
      <property name="window">75</property>
      <property name="max_gain">20dB</property>
      <property name="level">-3</property>
      <property name="mlt_service">volume</property>
      <property name="disable">0</property>
    </filter>
  </producer>
  <producer id="producer97" in="00:00:00.000" out="00:09:22.920">
    <property name="length">00:09:22.960</property>
    <property name="eof">pause</property>
    <property name="resource">sources/videos/mp4/rammstein_deutschland_official_video_800p_25fps_av1_128kbit_aac.mp4</property>
    <property name="audio_index">1</property>
    <property name="video_index">0</property>
    <property name="mute_on_pause">0</property>
    <property name="mlt_service">avformat-novalidate</property>
    <property name="seekable">1</property>
    <property name="aspect_ratio">1</property>
    <property name="creation_time">2021-03-05T02:33:35</property>
    <property name="shotcut:hash">90fbe86b70e26c0e139c645fa6df843e</property>
    <property name="ignore_points">0</property>
    <property name="shotcut:caption">rammstein_deutschland_official_video_800p_25fps_av1_128kbit_aac.mp4</property>
    <property name="global_feed">1</property>
    <property name="xml">was here</property>
    <filter id="filter236" in="00:00:39.920" out="00:01:12.400">
      <property name="background">color:#00000000</property>
      <property name="mlt_service">affine</property>
      <property name="shotcut:filter">affineSizePosition</property>
      <property name="transition.fill">1</property>
      <property name="transition.distort">0</property>
      <property name="transition.rect">6.22642 75.0943 1180.08 491.698 1</property>
      <property name="transition.valign">middle</property>
      <property name="transition.halign">center</property>
      <property name="shotcut:animIn">00:00:00.000</property>
      <property name="shotcut:animOut">00:00:00.000</property>
      <property name="transition.threads">0</property>
    </filter>
    <filter id="filter237" in="00:00:39.920" out="00:01:12.400">
      <property name="window">75</property>
      <property name="max_gain">20dB</property>
      <property name="level">0</property>
      <property name="mlt_service">volume</property>
    </filter>
  </producer>
  <producer id="producer98" in="00:00:00.000" out="00:09:22.920">
    <property name="length">00:09:22.960</property>
    <property name="eof">pause</property>
    <property name="resource">sources/videos/mp4/rammstein_deutschland_official_video_800p_25fps_av1_128kbit_aac.mp4</property>
    <property name="audio_index">1</property>
    <property name="video_index">0</property>
    <property name="mute_on_pause">0</property>
    <property name="mlt_service">avformat-novalidate</property>
    <property name="seekable">1</property>
    <property name="aspect_ratio">1</property>
    <property name="creation_time">2021-03-05T02:33:35</property>
    <property name="shotcut:hash">90fbe86b70e26c0e139c645fa6df843e</property>
    <property name="ignore_points">0</property>
    <property name="shotcut:caption">rammstein_deutschland_official_video_800p_25fps_av1_128kbit_aac.mp4</property>
    <property name="global_feed">1</property>
    <property name="xml">was here</property>
    <filter id="filter238" in="00:01:12.440" out="00:02:08.320">
      <property name="background">color:#00000000</property>
      <property name="mlt_service">affine</property>
      <property name="shotcut:filter">affineSizePosition</property>
      <property name="transition.fill">1</property>
      <property name="transition.distort">0</property>
      <property name="transition.rect">6.22642 75.0943 1180.08 491.698 1</property>
      <property name="transition.valign">middle</property>
      <property name="transition.halign">center</property>
      <property name="shotcut:animIn">00:00:00.000</property>
      <property name="shotcut:animOut">00:00:00.000</property>
      <property name="transition.threads">0</property>
      <property name="transition.fix_rotate_x">0</property>
    </filter>
    <filter id="filter239" in="00:01:12.440" out="00:02:08.320">
      <property name="window">75</property>
      <property name="max_gain">20dB</property>
      <property name="level">-10</property>
      <property name="mlt_service">volume</property>
    </filter>
  </producer>
  <producer id="producer99" in="00:00:00.000" out="00:09:22.920">
    <property name="length">00:09:22.960</property>
    <property name="eof">pause</property>
    <property name="resource">sources/videos/mp4/rammstein_deutschland_official_video_800p_25fps_av1_128kbit_aac.mp4</property>
    <property name="audio_index">1</property>
    <property name="video_index">0</property>
    <property name="mute_on_pause">0</property>
    <property name="mlt_service">avformat-novalidate</property>
    <property name="seekable">1</property>
    <property name="aspect_ratio">1</property>
    <property name="creation_time">2021-03-05T02:33:35</property>
    <property name="shotcut:hash">90fbe86b70e26c0e139c645fa6df843e</property>
    <property name="ignore_points">0</property>
    <property name="shotcut:caption">rammstein_deutschland_official_video_800p_25fps_av1_128kbit_aac.mp4</property>
    <property name="global_feed">1</property>
    <property name="xml">was here</property>
    <filter id="filter240" in="00:02:08.360" out="00:02:09.240">
      <property name="window">75</property>
      <property name="max_gain">20dB</property>
      <property name="level">-10</property>
      <property name="mlt_service">volume</property>
    </filter>
  </producer>
  <producer id="producer100" in="00:00:00.000" out="00:01:45.640">
    <property name="length">00:01:45.680</property>
    <property name="eof">pause</property>
    <property name="resource">sources/videos/mp4/black_swan_club_scene.mp4</property>
    <property name="audio_index">1</property>
    <property name="video_index">0</property>
    <property name="mute_on_pause">0</property>
    <property name="mlt_service">avformat-novalidate</property>
    <property name="seekable">1</property>
    <property name="aspect_ratio">1</property>
    <property name="creation_time">2021-03-09T04:09:34</property>
    <property name="shotcut:hash">0535a4ee6490394e5cdc9946d9531a09</property>
    <property name="ignore_points">0</property>
    <property name="shotcut:caption">black_swan_club_scene.mp4</property>
    <property name="global_feed">1</property>
    <property name="xml">was here</property>
    <filter id="filter241" out="00:00:15.200">
      <property name="background">color:#00000000</property>
      <property name="mlt_service">affine</property>
      <property name="shotcut:filter">affineSizePosition</property>
      <property name="transition.fill">1</property>
      <property name="transition.distort">0</property>
      <property name="transition.rect">15.6102 9.1245 1146.67 644.625 1</property>
      <property name="transition.valign">middle</property>
      <property name="transition.halign">center</property>
      <property name="shotcut:animIn">00:00:00.000</property>
      <property name="shotcut:animOut">00:00:00.000</property>
      <property name="transition.threads">0</property>
    </filter>
    <filter id="filter242" out="00:00:15.200">
      <property name="window">75</property>
      <property name="max_gain">20dB</property>
      <property name="level">24</property>
      <property name="mlt_service">volume</property>
    </filter>
  </producer>
  <producer id="producer101" in="00:00:00.000" out="00:01:45.640">
    <property name="length">00:01:45.680</property>
    <property name="eof">pause</property>
    <property name="resource">sources/videos/mp4/black_swan_club_scene.mp4</property>
    <property name="audio_index">1</property>
    <property name="video_index">0</property>
    <property name="mute_on_pause">0</property>
    <property name="mlt_service">avformat-novalidate</property>
    <property name="seekable">1</property>
    <property name="aspect_ratio">1</property>
    <property name="creation_time">2021-03-09T04:09:34</property>
    <property name="shotcut:hash">0535a4ee6490394e5cdc9946d9531a09</property>
    <property name="ignore_points">0</property>
    <property name="shotcut:caption">black_swan_club_scene.mp4</property>
    <property name="global_feed">1</property>
    <property name="xml">was here</property>
    <filter id="filter243" in="00:00:16.440" out="00:00:22.600">
      <property name="background">color:#00000000</property>
      <property name="mlt_service">affine</property>
      <property name="shotcut:filter">affineSizePosition</property>
      <property name="transition.fill">1</property>
      <property name="transition.distort">0</property>
      <property name="transition.rect">15.888 9.1245 1146.67 644.625 1</property>
      <property name="transition.valign">middle</property>
      <property name="transition.halign">center</property>
      <property name="shotcut:animIn">00:00:00.000</property>
      <property name="shotcut:animOut">00:00:00.000</property>
      <property name="transition.threads">0</property>
    </filter>
    <filter id="filter244" in="00:00:16.440" out="00:00:22.600">
      <property name="window">75</property>
      <property name="max_gain">20dB</property>
      <property name="level">20</property>
      <property name="mlt_service">volume</property>
    </filter>
  </producer>
  <producer id="producer102" in="00:00:00.000" out="00:01:45.640">
    <property name="length">00:01:45.680</property>
    <property name="eof">pause</property>
    <property name="resource">sources/videos/mp4/black_swan_club_scene.mp4</property>
    <property name="audio_index">1</property>
    <property name="video_index">0</property>
    <property name="mute_on_pause">0</property>
    <property name="mlt_service">avformat-novalidate</property>
    <property name="seekable">1</property>
    <property name="aspect_ratio">1</property>
    <property name="creation_time">2021-03-09T04:09:34</property>
    <property name="shotcut:hash">0535a4ee6490394e5cdc9946d9531a09</property>
    <property name="ignore_points">0</property>
    <property name="shotcut:caption">black_swan_club_scene.mp4</property>
    <property name="global_feed">1</property>
    <property name="xml">was here</property>
    <filter id="filter245" in="00:00:23.720" out="00:00:30.040">
      <property name="background">color:#00000000</property>
      <property name="mlt_service">affine</property>
      <property name="shotcut:filter">affineSizePosition</property>
      <property name="transition.fill">1</property>
      <property name="transition.distort">0</property>
      <property name="transition.rect">15.888 9.1245 1146.67 644.625 1</property>
      <property name="transition.valign">middle</property>
      <property name="transition.halign">center</property>
      <property name="shotcut:animIn">00:00:00.000</property>
      <property name="shotcut:animOut">00:00:00.000</property>
      <property name="transition.threads">0</property>
    </filter>
    <filter id="filter246" in="00:00:23.720" out="00:00:30.040">
      <property name="window">75</property>
      <property name="max_gain">20dB</property>
      <property name="level">20</property>
      <property name="mlt_service">volume</property>
    </filter>
  </producer>
  <producer id="producer103" in="00:00:00.000" out="00:01:45.640">
    <property name="length">00:01:45.680</property>
    <property name="eof">pause</property>
    <property name="resource">sources/videos/mp4/black_swan_club_scene.mp4</property>
    <property name="audio_index">1</property>
    <property name="video_index">0</property>
    <property name="mute_on_pause">0</property>
    <property name="mlt_service">avformat-novalidate</property>
    <property name="seekable">1</property>
    <property name="aspect_ratio">1</property>
    <property name="creation_time">2021-03-09T04:09:34</property>
    <property name="shotcut:hash">0535a4ee6490394e5cdc9946d9531a09</property>
    <property name="ignore_points">0</property>
    <property name="shotcut:caption">black_swan_club_scene.mp4</property>
    <property name="global_feed">1</property>
    <property name="xml">was here</property>
    <filter id="filter247" in="00:00:31.160" out="00:00:37.400">
      <property name="background">color:#00000000</property>
      <property name="mlt_service">affine</property>
      <property name="shotcut:filter">affineSizePosition</property>
      <property name="transition.fill">1</property>
      <property name="transition.distort">0</property>
      <property name="transition.rect">15.888 9.1245 1146.67 644.625 1</property>
      <property name="transition.valign">middle</property>
      <property name="transition.halign">center</property>
      <property name="shotcut:animIn">00:00:00.000</property>
      <property name="shotcut:animOut">00:00:00.000</property>
      <property name="transition.threads">0</property>
      <property name="transition.fix_rotate_x">0</property>
    </filter>
    <filter id="filter248" in="00:00:31.160" out="00:00:37.400">
      <property name="window">75</property>
      <property name="max_gain">20dB</property>
      <property name="level">20</property>
      <property name="mlt_service">volume</property>
    </filter>
  </producer>
  <producer id="producer104" in="00:00:00.000" out="00:01:45.640">
    <property name="length">00:01:45.680</property>
    <property name="eof">pause</property>
    <property name="resource">sources/videos/mp4/black_swan_club_scene.mp4</property>
    <property name="audio_index">1</property>
    <property name="video_index">0</property>
    <property name="mute_on_pause">0</property>
    <property name="mlt_service">avformat-novalidate</property>
    <property name="seekable">1</property>
    <property name="aspect_ratio">1</property>
    <property name="creation_time">2021-03-09T04:09:34</property>
    <property name="shotcut:hash">0535a4ee6490394e5cdc9946d9531a09</property>
    <property name="ignore_points">0</property>
    <property name="shotcut:caption">black_swan_club_scene.mp4</property>
    <property name="global_feed">1</property>
    <property name="xml">was here</property>
    <filter id="filter249" in="00:00:41.640" out="00:00:51.320">
      <property name="background">color:#00000000</property>
      <property name="mlt_service">affine</property>
      <property name="shotcut:filter">affineSizePosition</property>
      <property name="transition.fill">1</property>
      <property name="transition.distort">0</property>
      <property name="transition.rect">15.888 9.1245 1146.67 644.625 1</property>
      <property name="transition.valign">middle</property>
      <property name="transition.halign">center</property>
      <property name="shotcut:animIn">00:00:00.000</property>
      <property name="shotcut:animOut">00:00:00.000</property>
      <property name="transition.threads">0</property>
      <property name="transition.fix_rotate_x">0</property>
    </filter>
    <filter id="filter250" in="00:00:41.640" out="00:00:51.320">
      <property name="window">75</property>
      <property name="max_gain">20dB</property>
      <property name="level">20</property>
      <property name="mlt_service">volume</property>
    </filter>
  </producer>
  <producer id="producer105" in="00:00:00.000" out="00:01:45.640">
    <property name="length">00:01:45.680</property>
    <property name="eof">pause</property>
    <property name="resource">sources/videos/mp4/black_swan_club_scene.mp4</property>
    <property name="audio_index">1</property>
    <property name="video_index">0</property>
    <property name="mute_on_pause">0</property>
    <property name="mlt_service">avformat-novalidate</property>
    <property name="seekable">1</property>
    <property name="aspect_ratio">1</property>
    <property name="creation_time">2021-03-09T04:09:34</property>
    <property name="shotcut:hash">0535a4ee6490394e5cdc9946d9531a09</property>
    <property name="ignore_points">0</property>
    <property name="shotcut:caption">black_swan_club_scene.mp4</property>
    <property name="global_feed">1</property>
    <property name="xml">was here</property>
    <filter id="filter251" in="00:00:51.360" out="00:01:13.680">
      <property name="background">color:#00000000</property>
      <property name="mlt_service">affine</property>
      <property name="shotcut:filter">affineSizePosition</property>
      <property name="transition.fill">1</property>
      <property name="transition.distort">0</property>
      <property name="transition.rect">15.888 9.1245 1146.67 644.625 1</property>
      <property name="transition.valign">middle</property>
      <property name="transition.halign">center</property>
      <property name="shotcut:animIn">00:00:00.000</property>
      <property name="shotcut:animOut">00:00:00.000</property>
      <property name="transition.threads">0</property>
      <property name="transition.fix_rotate_x">0</property>
    </filter>
    <filter id="filter252" in="00:00:51.360" out="00:01:13.680">
      <property name="window">75</property>
      <property name="max_gain">20dB</property>
      <property name="level">7</property>
      <property name="mlt_service">volume</property>
    </filter>
  </producer>
  <producer id="producer106" in="00:00:00.000" out="00:01:45.640">
    <property name="length">00:01:45.680</property>
    <property name="eof">pause</property>
    <property name="resource">sources/videos/mp4/black_swan_club_scene.mp4</property>
    <property name="audio_index">1</property>
    <property name="video_index">0</property>
    <property name="mute_on_pause">0</property>
    <property name="mlt_service">avformat-novalidate</property>
    <property name="seekable">1</property>
    <property name="aspect_ratio">1</property>
    <property name="creation_time">2021-03-09T04:09:34</property>
    <property name="shotcut:hash">0535a4ee6490394e5cdc9946d9531a09</property>
    <property name="ignore_points">0</property>
    <property name="shotcut:caption">black_swan_club_scene.mp4</property>
    <property name="global_feed">1</property>
    <property name="xml">was here</property>
    <filter id="filter253" in="00:01:13.720" out="00:01:14.560">
      <property name="background">color:#00000000</property>
      <property name="mlt_service">affine</property>
      <property name="shotcut:filter">affineSizePosition</property>
      <property name="transition.fill">1</property>
      <property name="transition.distort">0</property>
      <property name="transition.rect">15.888 9.1245 1146.67 644.625 1</property>
      <property name="transition.valign">middle</property>
      <property name="transition.halign">center</property>
      <property name="shotcut:animIn">00:00:00.000</property>
      <property name="shotcut:animOut">00:00:00.000</property>
      <property name="transition.threads">0</property>
      <property name="transition.fix_rotate_x">0</property>
    </filter>
    <filter id="filter254" in="00:01:13.720" out="00:01:14.560">
      <property name="window">75</property>
      <property name="max_gain">20dB</property>
      <property name="level">14</property>
      <property name="mlt_service">volume</property>
    </filter>
  </producer>
  <producer id="producer107" in="00:00:00.000" out="00:01:45.640">
    <property name="length">00:01:45.680</property>
    <property name="eof">pause</property>
    <property name="resource">sources/videos/mp4/black_swan_club_scene.mp4</property>
    <property name="audio_index">1</property>
    <property name="video_index">0</property>
    <property name="mute_on_pause">0</property>
    <property name="mlt_service">avformat-novalidate</property>
    <property name="seekable">1</property>
    <property name="aspect_ratio">1</property>
    <property name="creation_time">2021-03-09T04:09:34</property>
    <property name="shotcut:hash">0535a4ee6490394e5cdc9946d9531a09</property>
    <property name="ignore_points">0</property>
    <property name="shotcut:caption">black_swan_club_scene.mp4</property>
    <property name="global_feed">1</property>
    <property name="xml">was here</property>
    <filter id="filter255" in="00:01:14.600" out="00:01:35.720">
      <property name="background">color:#00000000</property>
      <property name="mlt_service">affine</property>
      <property name="shotcut:filter">affineSizePosition</property>
      <property name="transition.fill">1</property>
      <property name="transition.distort">0</property>
      <property name="transition.rect">15.888 9.1245 1146.67 644.625 1</property>
      <property name="transition.valign">middle</property>
      <property name="transition.halign">center</property>
      <property name="shotcut:animIn">00:00:00.000</property>
      <property name="shotcut:animOut">00:00:00.000</property>
      <property name="transition.threads">0</property>
      <property name="transition.fix_rotate_x">0</property>
    </filter>
  </producer>
  <producer id="producer108" in="00:00:00.000" out="00:01:45.640">
    <property name="length">00:01:45.680</property>
    <property name="eof">pause</property>
    <property name="resource">sources/videos/mp4/black_swan_club_scene.mp4</property>
    <property name="audio_index">1</property>
    <property name="video_index">0</property>
    <property name="mute_on_pause">0</property>
    <property name="mlt_service">avformat-novalidate</property>
    <property name="seekable">1</property>
    <property name="aspect_ratio">1</property>
    <property name="creation_time">2021-03-09T04:09:34</property>
    <property name="shotcut:hash">0535a4ee6490394e5cdc9946d9531a09</property>
    <property name="ignore_points">0</property>
    <property name="shotcut:caption">black_swan_club_scene.mp4</property>
    <property name="global_feed">1</property>
    <property name="xml">was here</property>
    <filter id="filter256" in="00:01:35.760" out="00:01:45.640">
      <property name="background">color:#00000000</property>
      <property name="mlt_service">affine</property>
      <property name="shotcut:filter">affineSizePosition</property>
      <property name="transition.fill">1</property>
      <property name="transition.distort">0</property>
      <property name="transition.rect">15.888 9.1245 1393.85 784.042 1</property>
      <property name="transition.valign">middle</property>
      <property name="transition.halign">center</property>
      <property name="shotcut:animIn">00:00:00.000</property>
      <property name="shotcut:animOut">00:00:00.000</property>
      <property name="transition.threads">0</property>
      <property name="transition.fix_rotate_x">0</property>
    </filter>
  </producer>
  <producer id="producer109" in="00:00:00.000" out="00:09:22.920">
    <property name="length">00:09:22.960</property>
    <property name="eof">pause</property>
    <property name="resource">sources/videos/mp4/rammstein_deutschland_official_video_800p_25fps_av1_128kbit_aac.mp4</property>
    <property name="audio_index">1</property>
    <property name="video_index">0</property>
    <property name="mute_on_pause">0</property>
    <property name="mlt_service">avformat-novalidate</property>
    <property name="seekable">1</property>
    <property name="aspect_ratio">1</property>
    <property name="creation_time">2021-03-05T02:33:35</property>
    <property name="shotcut:hash">90fbe86b70e26c0e139c645fa6df843e</property>
    <property name="ignore_points">0</property>
    <property name="shotcut:caption">rammstein_deutschland_official_video_800p_25fps_av1_128kbit_aac.mp4</property>
    <property name="global_feed">1</property>
    <property name="xml">was here</property>
    <filter id="filter257" in="00:02:08.640" out="00:02:40.960">
      <property name="window">75</property>
      <property name="max_gain">20dB</property>
      <property name="level">-6</property>
      <property name="mlt_service">volume</property>
    </filter>
  </producer>
  <producer id="producer110" in="00:00:00.000" out="00:09:22.920">
    <property name="length">00:09:22.960</property>
    <property name="eof">pause</property>
    <property name="resource">sources/videos/mp4/rammstein_deutschland_official_video_800p_25fps_av1_128kbit_aac.mp4</property>
    <property name="audio_index">1</property>
    <property name="video_index">0</property>
    <property name="mute_on_pause">0</property>
    <property name="mlt_service">avformat-novalidate</property>
    <property name="seekable">1</property>
    <property name="aspect_ratio">1</property>
    <property name="creation_time">2021-03-05T02:33:35</property>
    <property name="shotcut:hash">90fbe86b70e26c0e139c645fa6df843e</property>
    <property name="ignore_points">0</property>
    <property name="shotcut:caption">rammstein_deutschland_official_video_800p_25fps_av1_128kbit_aac.mp4</property>
    <property name="global_feed">1</property>
    <property name="xml">was here</property>
    <filter id="filter258" in="00:02:41.000" out="00:02:44.360">
      <property name="background">color:#00000000</property>
      <property name="mlt_service">affine</property>
      <property name="shotcut:filter">affineSizePosition</property>
      <property name="transition.fill">1</property>
      <property name="transition.distort">0</property>
      <property name="transition.rect">6.22642 75.0943 1180.08 491.698 1</property>
      <property name="transition.valign">middle</property>
      <property name="transition.halign">center</property>
      <property name="shotcut:animIn">00:00:00.000</property>
      <property name="shotcut:animOut">00:00:00.000</property>
      <property name="transition.threads">0</property>
      <property name="transition.fix_rotate_x">0</property>
    </filter>
    <filter id="filter259" in="00:02:41.000" out="00:02:44.360">
      <property name="window">75</property>
      <property name="max_gain">20dB</property>
      <property name="level">-10</property>
      <property name="mlt_service">volume</property>
    </filter>
  </producer>
  <producer id="producer111" in="00:00:00.000" out="00:09:22.920">
    <property name="length">00:09:22.960</property>
    <property name="eof">pause</property>
    <property name="resource">sources/videos/mp4/rammstein_deutschland_official_video_800p_25fps_av1_128kbit_aac.mp4</property>
    <property name="audio_index">1</property>
    <property name="video_index">0</property>
    <property name="mute_on_pause">0</property>
    <property name="mlt_service">avformat-novalidate</property>
    <property name="seekable">1</property>
    <property name="aspect_ratio">1</property>
    <property name="creation_time">2021-03-05T02:33:35</property>
    <property name="shotcut:hash">90fbe86b70e26c0e139c645fa6df843e</property>
    <property name="ignore_points">0</property>
    <property name="shotcut:caption">rammstein_deutschland_official_video_800p_25fps_av1_128kbit_aac.mp4</property>
    <property name="global_feed">1</property>
    <property name="xml">was here</property>
  </producer>
  <producer id="producer112" in="00:00:00.000" out="00:09:22.920">
    <property name="length">00:09:22.960</property>
    <property name="eof">pause</property>
    <property name="resource">sources/videos/mp4/rammstein_deutschland_official_video_800p_25fps_av1_128kbit_aac.mp4</property>
    <property name="audio_index">1</property>
    <property name="video_index">0</property>
    <property name="mute_on_pause">0</property>
    <property name="mlt_service">avformat-novalidate</property>
    <property name="seekable">1</property>
    <property name="aspect_ratio">1</property>
    <property name="creation_time">2021-03-05T02:33:35</property>
    <property name="shotcut:hash">90fbe86b70e26c0e139c645fa6df843e</property>
    <property name="ignore_points">0</property>
    <property name="shotcut:caption">rammstein_deutschland_official_video_800p_25fps_av1_128kbit_aac.mp4</property>
    <property name="global_feed">1</property>
    <property name="xml">was here</property>
    <filter id="filter260" in="00:02:45.440" out="00:02:48.280">
      <property name="background">color:#00000000</property>
      <property name="mlt_service">affine</property>
      <property name="shotcut:filter">affineSizePosition</property>
      <property name="transition.fill">1</property>
      <property name="transition.distort">0</property>
      <property name="transition.rect">6.22642 75.0943 1180.08 491.698 1</property>
      <property name="transition.valign">middle</property>
      <property name="transition.halign">center</property>
      <property name="shotcut:animIn">00:00:00.000</property>
      <property name="shotcut:animOut">00:00:00.000</property>
      <property name="transition.threads">0</property>
      <property name="transition.fix_rotate_x">0</property>
    </filter>
    <filter id="filter261" in="00:02:45.440" out="00:02:48.280">
      <property name="window">75</property>
      <property name="max_gain">20dB</property>
      <property name="level">-10</property>
      <property name="mlt_service">volume</property>
    </filter>
  </producer>
  <producer id="producer113" in="00:00:00.000" out="00:09:22.920">
    <property name="length">00:09:22.960</property>
    <property name="eof">pause</property>
    <property name="resource">sources/videos/mp4/rammstein_deutschland_official_video_800p_25fps_av1_128kbit_aac.mp4</property>
    <property name="audio_index">1</property>
    <property name="video_index">0</property>
    <property name="mute_on_pause">0</property>
    <property name="mlt_service">avformat-novalidate</property>
    <property name="seekable">1</property>
    <property name="aspect_ratio">1</property>
    <property name="creation_time">2021-03-05T02:33:35</property>
    <property name="shotcut:hash">90fbe86b70e26c0e139c645fa6df843e</property>
    <property name="ignore_points">0</property>
    <property name="shotcut:caption">rammstein_deutschland_official_video_800p_25fps_av1_128kbit_aac.mp4</property>
    <property name="global_feed">1</property>
    <property name="xml">was here</property>
  </producer>
  <producer id="producer114" in="00:00:00.000" out="00:09:22.920">
    <property name="length">00:09:22.960</property>
    <property name="eof">pause</property>
    <property name="resource">sources/videos/mp4/rammstein_deutschland_official_video_800p_25fps_av1_128kbit_aac.mp4</property>
    <property name="audio_index">1</property>
    <property name="video_index">0</property>
    <property name="mute_on_pause">0</property>
    <property name="mlt_service">avformat-novalidate</property>
    <property name="seekable">1</property>
    <property name="aspect_ratio">1</property>
    <property name="creation_time">2021-03-05T02:33:35</property>
    <property name="shotcut:hash">90fbe86b70e26c0e139c645fa6df843e</property>
    <property name="ignore_points">0</property>
    <property name="shotcut:caption">rammstein_deutschland_official_video_800p_25fps_av1_128kbit_aac.mp4</property>
    <property name="global_feed">1</property>
    <property name="xml">was here</property>
    <filter id="filter262" in="00:02:49.480" out="00:02:52.360">
      <property name="background">color:#00000000</property>
      <property name="mlt_service">affine</property>
      <property name="shotcut:filter">affineSizePosition</property>
      <property name="transition.fill">1</property>
      <property name="transition.distort">0</property>
      <property name="transition.rect">6.22642 75.0943 1180.08 491.698 1</property>
      <property name="transition.valign">middle</property>
      <property name="transition.halign">center</property>
      <property name="shotcut:animIn">00:00:00.000</property>
      <property name="shotcut:animOut">00:00:00.000</property>
      <property name="transition.threads">0</property>
      <property name="transition.fix_rotate_x">0</property>
    </filter>
    <filter id="filter263" in="00:02:49.480" out="00:02:52.360">
      <property name="window">75</property>
      <property name="max_gain">20dB</property>
      <property name="level">-10</property>
      <property name="mlt_service">volume</property>
    </filter>
  </producer>
  <producer id="producer115" in="00:00:00.000" out="00:09:22.920">
    <property name="length">00:09:22.960</property>
    <property name="eof">pause</property>
    <property name="resource">sources/videos/mp4/rammstein_deutschland_official_video_800p_25fps_av1_128kbit_aac.mp4</property>
    <property name="audio_index">1</property>
    <property name="video_index">0</property>
    <property name="mute_on_pause">0</property>
    <property name="mlt_service">avformat-novalidate</property>
    <property name="seekable">1</property>
    <property name="aspect_ratio">1</property>
    <property name="creation_time">2021-03-05T02:33:35</property>
    <property name="shotcut:hash">90fbe86b70e26c0e139c645fa6df843e</property>
    <property name="ignore_points">0</property>
    <property name="shotcut:caption">rammstein_deutschland_official_video_800p_25fps_av1_128kbit_aac.mp4</property>
    <property name="global_feed">1</property>
    <property name="xml">was here</property>
  </producer>
  <producer id="producer116" in="00:00:00.000" out="00:09:22.920">
    <property name="length">00:09:22.960</property>
    <property name="eof">pause</property>
    <property name="resource">sources/videos/mp4/rammstein_deutschland_official_video_800p_25fps_av1_128kbit_aac.mp4</property>
    <property name="audio_index">1</property>
    <property name="video_index">0</property>
    <property name="mute_on_pause">0</property>
    <property name="mlt_service">avformat-novalidate</property>
    <property name="seekable">1</property>
    <property name="aspect_ratio">1</property>
    <property name="creation_time">2021-03-05T02:33:35</property>
    <property name="shotcut:hash">90fbe86b70e26c0e139c645fa6df843e</property>
    <property name="ignore_points">0</property>
    <property name="shotcut:caption">rammstein_deutschland_official_video_800p_25fps_av1_128kbit_aac.mp4</property>
    <property name="global_feed">1</property>
    <property name="xml">was here</property>
    <filter id="filter264" in="00:02:53.360" out="00:02:55.600">
      <property name="background">color:#00000000</property>
      <property name="mlt_service">affine</property>
      <property name="shotcut:filter">affineSizePosition</property>
      <property name="transition.fill">1</property>
      <property name="transition.distort">0</property>
      <property name="transition.rect">6.22642 75.0943 1180.08 491.698 1</property>
      <property name="transition.valign">middle</property>
      <property name="transition.halign">center</property>
      <property name="shotcut:animIn">00:00:00.000</property>
      <property name="shotcut:animOut">00:00:00.000</property>
      <property name="transition.threads">0</property>
      <property name="transition.fix_rotate_x">0</property>
    </filter>
    <filter id="filter265" in="00:02:53.360" out="00:02:55.600">
      <property name="window">75</property>
      <property name="max_gain">20dB</property>
      <property name="level">-10</property>
      <property name="mlt_service">volume</property>
    </filter>
  </producer>
  <producer id="producer117" in="00:00:00.000" out="00:09:22.920">
    <property name="length">00:09:22.960</property>
    <property name="eof">pause</property>
    <property name="resource">sources/videos/mp4/rammstein_deutschland_official_video_800p_25fps_av1_128kbit_aac.mp4</property>
    <property name="audio_index">1</property>
    <property name="video_index">0</property>
    <property name="mute_on_pause">0</property>
    <property name="mlt_service">avformat-novalidate</property>
    <property name="seekable">1</property>
    <property name="aspect_ratio">1</property>
    <property name="creation_time">2021-03-05T02:33:35</property>
    <property name="shotcut:hash">90fbe86b70e26c0e139c645fa6df843e</property>
    <property name="ignore_points">0</property>
    <property name="shotcut:caption">rammstein_deutschland_official_video_800p_25fps_av1_128kbit_aac.mp4</property>
    <property name="global_feed">1</property>
    <property name="xml">was here</property>
    <filter id="filter266" in="00:02:55.200" out="00:02:56.840">
      <property name="background">color:#00000000</property>
      <property name="mlt_service">affine</property>
      <property name="shotcut:filter">affineSizePosition</property>
      <property name="transition.fill">1</property>
      <property name="transition.distort">0</property>
      <property name="transition.rect">6.22642 75.0943 1180.08 491.698 1</property>
      <property name="transition.valign">middle</property>
      <property name="transition.halign">center</property>
      <property name="shotcut:animIn">00:00:00.000</property>
      <property name="shotcut:animOut">00:00:00.000</property>
      <property name="transition.threads">0</property>
      <property name="transition.fix_rotate_x">0</property>
    </filter>
    <filter id="filter267" in="00:02:55.200" out="00:02:56.840">
      <property name="window">75</property>
      <property name="max_gain">20dB</property>
      <property name="level">-10</property>
      <property name="mlt_service">volume</property>
    </filter>
  </producer>
  <producer id="producer118" in="00:00:00.000" out="00:09:22.920">
    <property name="length">00:09:22.960</property>
    <property name="eof">pause</property>
    <property name="resource">sources/videos/mp4/rammstein_deutschland_official_video_800p_25fps_av1_128kbit_aac.mp4</property>
    <property name="audio_index">1</property>
    <property name="video_index">0</property>
    <property name="mute_on_pause">0</property>
    <property name="mlt_service">avformat-novalidate</property>
    <property name="seekable">1</property>
    <property name="aspect_ratio">1</property>
    <property name="creation_time">2021-03-05T02:33:35</property>
    <property name="shotcut:hash">90fbe86b70e26c0e139c645fa6df843e</property>
    <property name="ignore_points">0</property>
    <property name="shotcut:caption">rammstein_deutschland_official_video_800p_25fps_av1_128kbit_aac.mp4</property>
    <property name="global_feed">1</property>
    <property name="xml">was here</property>
    <filter id="filter268" in="00:02:56.880" out="00:03:13.240">
      <property name="amount">5</property>
      <property name="mlt_service">choppy</property>
    </filter>
    <filter id="filter269" in="00:02:56.880" out="00:03:13.240">
      <property name="version">0.3</property>
      <property name="mlt_service">frei0r.saturat0r</property>
      <property name="threads">0</property>
      <property name="0">0</property>
    </filter>
    <filter id="filter270" in="00:02:56.880" out="00:03:13.240">
      <property name="window">75</property>
      <property name="max_gain">20dB</property>
      <property name="level">-12</property>
      <property name="mlt_service">volume</property>
    </filter>
    <filter id="filter271" in="00:02:56.880" out="00:03:13.240">
      <property name="mlt_service">ladspa.1216</property>
      <property name="0">30</property>
      <property name="1">7.5</property>
      <property name="2">0.5</property>
      <property name="3">0.75</property>
      <property name="4">0</property>
      <property name="5">-10</property>
      <property name="6">-17.5</property>
      <property name="instances">2</property>
    </filter>
  </producer>
  <producer id="producer119" in="00:00:00.000" out="00:09:22.920">
    <property name="length">00:09:22.960</property>
    <property name="eof">pause</property>
    <property name="resource">sources/videos/mp4/rammstein_deutschland_official_video_800p_25fps_av1_128kbit_aac.mp4</property>
    <property name="audio_index">1</property>
    <property name="video_index">0</property>
    <property name="mute_on_pause">0</property>
    <property name="mlt_service">avformat-novalidate</property>
    <property name="seekable">1</property>
    <property name="aspect_ratio">1</property>
    <property name="creation_time">2021-03-05T02:33:35</property>
    <property name="shotcut:hash">90fbe86b70e26c0e139c645fa6df843e</property>
    <property name="ignore_points">0</property>
    <property name="shotcut:caption">rammstein_deutschland_official_video_800p_25fps_av1_128kbit_aac.mp4</property>
    <property name="global_feed">1</property>
    <property name="xml">was here</property>
    <filter id="filter272" in="00:03:13.280" out="00:03:55.960">
      <property name="window">75</property>
      <property name="max_gain">20dB</property>
      <property name="level">-6</property>
      <property name="mlt_service">volume</property>
    </filter>
  </producer>
  <producer id="producer120" in="00:00:00.000" out="00:09:22.920">
    <property name="length">00:09:22.960</property>
    <property name="eof">pause</property>
    <property name="resource">sources/videos/mp4/rammstein_deutschland_official_video_800p_25fps_av1_128kbit_aac.mp4</property>
    <property name="audio_index">1</property>
    <property name="video_index">0</property>
    <property name="mute_on_pause">0</property>
    <property name="mlt_service">avformat-novalidate</property>
    <property name="seekable">1</property>
    <property name="aspect_ratio">1</property>
    <property name="creation_time">2021-03-05T02:33:35</property>
    <property name="shotcut:hash">90fbe86b70e26c0e139c645fa6df843e</property>
    <property name="ignore_points">0</property>
    <property name="shotcut:caption">rammstein_deutschland_official_video_800p_25fps_av1_128kbit_aac.mp4</property>
    <property name="global_feed">1</property>
    <property name="xml">was here</property>
    <filter id="filter273" in="00:03:56.000" out="00:04:33.560">
      <property name="amount">5</property>
      <property name="mlt_service">choppy</property>
    </filter>
    <filter id="filter274" in="00:03:56.000" out="00:04:33.560">
      <property name="version">0.3</property>
      <property name="mlt_service">frei0r.saturat0r</property>
      <property name="threads">0</property>
      <property name="0">0</property>
    </filter>
    <filter id="filter275" in="00:03:56.000" out="00:04:33.560">
      <property name="window">75</property>
      <property name="max_gain">20dB</property>
      <property name="level">-12</property>
      <property name="mlt_service">volume</property>
    </filter>
    <filter id="filter276" in="00:03:56.000" out="00:04:33.560">
      <property name="mlt_service">ladspa.1216</property>
      <property name="0">30</property>
      <property name="1">7.5</property>
      <property name="2">0.5</property>
      <property name="3">0.75</property>
      <property name="4">0</property>
      <property name="5">-10</property>
      <property name="6">-17.5</property>
      <property name="instances">2</property>
    </filter>
  </producer>
  <producer id="producer121" in="00:00:00.000" out="00:09:22.920">
    <property name="length">00:09:22.960</property>
    <property name="eof">pause</property>
    <property name="resource">sources/videos/mp4/rammstein_deutschland_official_video_800p_25fps_av1_128kbit_aac.mp4</property>
    <property name="audio_index">1</property>
    <property name="video_index">0</property>
    <property name="mute_on_pause">0</property>
    <property name="mlt_service">avformat-novalidate</property>
    <property name="seekable">1</property>
    <property name="aspect_ratio">1</property>
    <property name="creation_time">2021-03-05T02:33:35</property>
    <property name="shotcut:hash">90fbe86b70e26c0e139c645fa6df843e</property>
    <property name="ignore_points">0</property>
    <property name="shotcut:caption">rammstein_deutschland_official_video_800p_25fps_av1_128kbit_aac.mp4</property>
    <property name="global_feed">1</property>
    <property name="xml">was here</property>
    <filter id="filter277" in="00:04:33.600" out="00:04:47.680">
      <property name="window">75</property>
      <property name="max_gain">20dB</property>
      <property name="level">-6</property>
      <property name="mlt_service">volume</property>
    </filter>
  </producer>
  <producer id="producer122" in="00:00:00.000" out="00:09:22.920">
    <property name="length">00:09:22.960</property>
    <property name="eof">pause</property>
    <property name="resource">sources/videos/mp4/rammstein_deutschland_official_video_800p_25fps_av1_128kbit_aac.mp4</property>
    <property name="audio_index">1</property>
    <property name="video_index">0</property>
    <property name="mute_on_pause">0</property>
    <property name="mlt_service">avformat-novalidate</property>
    <property name="seekable">1</property>
    <property name="aspect_ratio">1</property>
    <property name="creation_time">2021-03-05T02:33:35</property>
    <property name="shotcut:hash">90fbe86b70e26c0e139c645fa6df843e</property>
    <property name="ignore_points">0</property>
    <property name="shotcut:caption">rammstein_deutschland_official_video_800p_25fps_av1_128kbit_aac.mp4</property>
    <property name="global_feed">1</property>
    <property name="xml">was here</property>
    <filter id="filter278" in="00:04:47.720" out="00:04:49.840">
      <property name="amount">5</property>
      <property name="mlt_service">choppy</property>
    </filter>
    <filter id="filter279" in="00:04:47.720" out="00:04:49.840">
      <property name="version">0.3</property>
      <property name="mlt_service">frei0r.saturat0r</property>
      <property name="threads">0</property>
      <property name="0">0</property>
    </filter>
    <filter id="filter280" in="00:04:47.720" out="00:04:49.840">
      <property name="window">75</property>
      <property name="max_gain">20dB</property>
      <property name="level">-12</property>
      <property name="mlt_service">volume</property>
    </filter>
    <filter id="filter281" in="00:04:47.720" out="00:04:49.840">
      <property name="mlt_service">ladspa.1216</property>
      <property name="0">30</property>
      <property name="1">7.5</property>
      <property name="2">0.5</property>
      <property name="3">0.75</property>
      <property name="4">0</property>
      <property name="5">-10</property>
      <property name="6">-17.5</property>
      <property name="instances">2</property>
    </filter>
  </producer>
  <producer id="producer123" in="00:00:00.000" out="00:09:22.920">
    <property name="length">00:09:22.960</property>
    <property name="eof">pause</property>
    <property name="resource">sources/videos/mp4/rammstein_deutschland_official_video_800p_25fps_av1_128kbit_aac.mp4</property>
    <property name="audio_index">1</property>
    <property name="video_index">0</property>
    <property name="mute_on_pause">0</property>
    <property name="mlt_service">avformat-novalidate</property>
    <property name="seekable">1</property>
    <property name="aspect_ratio">1</property>
    <property name="creation_time">2021-03-05T02:33:35</property>
    <property name="shotcut:hash">90fbe86b70e26c0e139c645fa6df843e</property>
    <property name="ignore_points">0</property>
    <property name="shotcut:caption">rammstein_deutschland_official_video_800p_25fps_av1_128kbit_aac.mp4</property>
    <property name="global_feed">1</property>
    <property name="xml">was here</property>
    <filter id="filter282" in="00:04:49.880" out="00:05:04.520">
      <property name="window">75</property>
      <property name="max_gain">20dB</property>
      <property name="level">-6</property>
      <property name="mlt_service">volume</property>
    </filter>
  </producer>
  <producer id="producer124" in="00:00:00.000" out="00:09:22.920">
    <property name="length">00:09:22.960</property>
    <property name="eof">pause</property>
    <property name="resource">sources/videos/mp4/rammstein_deutschland_official_video_800p_25fps_av1_128kbit_aac.mp4</property>
    <property name="audio_index">1</property>
    <property name="video_index">0</property>
    <property name="mute_on_pause">0</property>
    <property name="mlt_service">avformat-novalidate</property>
    <property name="seekable">1</property>
    <property name="aspect_ratio">1</property>
    <property name="creation_time">2021-03-05T02:33:35</property>
    <property name="shotcut:hash">90fbe86b70e26c0e139c645fa6df843e</property>
    <property name="ignore_points">0</property>
    <property name="shotcut:caption">rammstein_deutschland_official_video_800p_25fps_av1_128kbit_aac.mp4</property>
    <property name="global_feed">1</property>
    <property name="xml">was here</property>
    <filter id="filter283" in="00:05:04.560" out="00:05:07.880">
      <property name="background">color:#00000000</property>
      <property name="mlt_service">affine</property>
      <property name="shotcut:filter">affineSizePosition</property>
      <property name="transition.fill">1</property>
      <property name="transition.distort">0</property>
      <property name="transition.rect">6.22642 75.0943 1180.08 491.698 1</property>
      <property name="transition.valign">middle</property>
      <property name="transition.halign">center</property>
      <property name="shotcut:animIn">00:00:00.000</property>
      <property name="shotcut:animOut">00:00:00.000</property>
      <property name="transition.threads">0</property>
      <property name="transition.fix_rotate_x">0</property>
    </filter>
    <filter id="filter284" in="00:05:04.560" out="00:05:07.880">
      <property name="window">75</property>
      <property name="max_gain">20dB</property>
      <property name="level">-10</property>
      <property name="mlt_service">volume</property>
    </filter>
  </producer>
  <producer id="producer125" in="00:00:00.000" out="00:09:22.920">
    <property name="length">00:09:22.960</property>
    <property name="eof">pause</property>
    <property name="resource">sources/videos/mp4/rammstein_deutschland_official_video_800p_25fps_av1_128kbit_aac.mp4</property>
    <property name="audio_index">1</property>
    <property name="video_index">0</property>
    <property name="mute_on_pause">0</property>
    <property name="mlt_service">avformat-novalidate</property>
    <property name="seekable">1</property>
    <property name="aspect_ratio">1</property>
    <property name="creation_time">2021-03-05T02:33:35</property>
    <property name="shotcut:hash">90fbe86b70e26c0e139c645fa6df843e</property>
    <property name="ignore_points">0</property>
    <property name="shotcut:caption">rammstein_deutschland_official_video_800p_25fps_av1_128kbit_aac.mp4</property>
    <property name="global_feed">1</property>
    <property name="xml">was here</property>
  </producer>
  <producer id="producer126" in="00:00:00.000" out="00:09:22.920">
    <property name="length">00:09:22.960</property>
    <property name="eof">pause</property>
    <property name="resource">sources/videos/mp4/rammstein_deutschland_official_video_800p_25fps_av1_128kbit_aac.mp4</property>
    <property name="audio_index">1</property>
    <property name="video_index">0</property>
    <property name="mute_on_pause">0</property>
    <property name="mlt_service">avformat-novalidate</property>
    <property name="seekable">1</property>
    <property name="aspect_ratio">1</property>
    <property name="creation_time">2021-03-05T02:33:35</property>
    <property name="shotcut:hash">90fbe86b70e26c0e139c645fa6df843e</property>
    <property name="ignore_points">0</property>
    <property name="shotcut:caption">rammstein_deutschland_official_video_800p_25fps_av1_128kbit_aac.mp4</property>
    <property name="global_feed">1</property>
    <property name="xml">was here</property>
    <filter id="filter285" in="00:05:08.440" out="00:05:11.880">
      <property name="background">color:#00000000</property>
      <property name="mlt_service">affine</property>
      <property name="shotcut:filter">affineSizePosition</property>
      <property name="transition.fill">1</property>
      <property name="transition.distort">0</property>
      <property name="transition.rect">6.22642 75.0943 1180.08 491.698 1</property>
      <property name="transition.valign">middle</property>
      <property name="transition.halign">center</property>
      <property name="shotcut:animIn">00:00:00.000</property>
      <property name="shotcut:animOut">00:00:00.000</property>
      <property name="transition.threads">0</property>
      <property name="transition.fix_rotate_x">0</property>
    </filter>
    <filter id="filter286" in="00:05:08.440" out="00:05:11.880">
      <property name="window">75</property>
      <property name="max_gain">20dB</property>
      <property name="level">-10</property>
      <property name="mlt_service">volume</property>
    </filter>
  </producer>
  <producer id="producer127" in="00:00:00.000" out="00:09:22.920">
    <property name="length">00:09:22.960</property>
    <property name="eof">pause</property>
    <property name="resource">sources/videos/mp4/rammstein_deutschland_official_video_800p_25fps_av1_128kbit_aac.mp4</property>
    <property name="audio_index">1</property>
    <property name="video_index">0</property>
    <property name="mute_on_pause">0</property>
    <property name="mlt_service">avformat-novalidate</property>
    <property name="seekable">1</property>
    <property name="aspect_ratio">1</property>
    <property name="creation_time">2021-03-05T02:33:35</property>
    <property name="shotcut:hash">90fbe86b70e26c0e139c645fa6df843e</property>
    <property name="ignore_points">0</property>
    <property name="shotcut:caption">rammstein_deutschland_official_video_800p_25fps_av1_128kbit_aac.mp4</property>
    <property name="global_feed">1</property>
    <property name="xml">was here</property>
  </producer>
  <producer id="producer128" in="00:00:00.000" out="00:09:22.920">
    <property name="length">00:09:22.960</property>
    <property name="eof">pause</property>
    <property name="resource">sources/videos/mp4/rammstein_deutschland_official_video_800p_25fps_av1_128kbit_aac.mp4</property>
    <property name="audio_index">1</property>
    <property name="video_index">0</property>
    <property name="mute_on_pause">0</property>
    <property name="mlt_service">avformat-novalidate</property>
    <property name="seekable">1</property>
    <property name="aspect_ratio">1</property>
    <property name="creation_time">2021-03-05T02:33:35</property>
    <property name="shotcut:hash">90fbe86b70e26c0e139c645fa6df843e</property>
    <property name="ignore_points">0</property>
    <property name="shotcut:caption">rammstein_deutschland_official_video_800p_25fps_av1_128kbit_aac.mp4</property>
    <property name="global_feed">1</property>
    <property name="xml">was here</property>
    <filter id="filter287" in="00:05:12.720" out="00:05:15.680">
      <property name="background">color:#00000000</property>
      <property name="mlt_service">affine</property>
      <property name="shotcut:filter">affineSizePosition</property>
      <property name="transition.fill">1</property>
      <property name="transition.distort">0</property>
      <property name="transition.rect">6.22642 75.0943 1180.08 491.698 1</property>
      <property name="transition.valign">middle</property>
      <property name="transition.halign">center</property>
      <property name="shotcut:animIn">00:00:00.000</property>
      <property name="shotcut:animOut">00:00:00.000</property>
      <property name="transition.threads">0</property>
      <property name="transition.fix_rotate_x">0</property>
    </filter>
    <filter id="filter288" in="00:05:12.720" out="00:05:15.680">
      <property name="window">75</property>
      <property name="max_gain">20dB</property>
      <property name="level">-10</property>
      <property name="mlt_service">volume</property>
    </filter>
  </producer>
  <producer id="producer129" in="00:00:00.000" out="00:09:22.920">
    <property name="length">00:09:22.960</property>
    <property name="eof">pause</property>
    <property name="resource">sources/videos/mp4/rammstein_deutschland_official_video_800p_25fps_av1_128kbit_aac.mp4</property>
    <property name="audio_index">1</property>
    <property name="video_index">0</property>
    <property name="mute_on_pause">0</property>
    <property name="mlt_service">avformat-novalidate</property>
    <property name="seekable">1</property>
    <property name="aspect_ratio">1</property>
    <property name="creation_time">2021-03-05T02:33:35</property>
    <property name="shotcut:hash">90fbe86b70e26c0e139c645fa6df843e</property>
    <property name="ignore_points">0</property>
    <property name="shotcut:caption">rammstein_deutschland_official_video_800p_25fps_av1_128kbit_aac.mp4</property>
    <property name="global_feed">1</property>
    <property name="xml">was here</property>
  </producer>
  <producer id="producer130" in="00:00:00.000" out="00:09:22.920">
    <property name="length">00:09:22.960</property>
    <property name="eof">pause</property>
    <property name="resource">sources/videos/mp4/rammstein_deutschland_official_video_800p_25fps_av1_128kbit_aac.mp4</property>
    <property name="audio_index">1</property>
    <property name="video_index">0</property>
    <property name="mute_on_pause">0</property>
    <property name="mlt_service">avformat-novalidate</property>
    <property name="seekable">1</property>
    <property name="aspect_ratio">1</property>
    <property name="creation_time">2021-03-05T02:33:35</property>
    <property name="shotcut:hash">90fbe86b70e26c0e139c645fa6df843e</property>
    <property name="ignore_points">0</property>
    <property name="shotcut:caption">rammstein_deutschland_official_video_800p_25fps_av1_128kbit_aac.mp4</property>
    <property name="global_feed">1</property>
    <property name="xml">was here</property>
    <filter id="filter289" in="00:05:17.080" out="00:05:20.240">
      <property name="background">color:#00000000</property>
      <property name="mlt_service">affine</property>
      <property name="shotcut:filter">affineSizePosition</property>
      <property name="transition.fill">1</property>
      <property name="transition.distort">0</property>
      <property name="transition.rect">6.22642 75.0943 1180.08 491.698 1</property>
      <property name="transition.valign">middle</property>
      <property name="transition.halign">center</property>
      <property name="shotcut:animIn">00:00:00.000</property>
      <property name="shotcut:animOut">00:00:00.000</property>
      <property name="transition.threads">0</property>
      <property name="transition.fix_rotate_x">0</property>
    </filter>
    <filter id="filter290" in="00:05:17.080" out="00:05:20.240">
      <property name="window">75</property>
      <property name="max_gain">20dB</property>
      <property name="level">-10</property>
      <property name="mlt_service">volume</property>
    </filter>
  </producer>
  <producer id="producer131" in="00:00:00.000" out="00:09:22.920">
    <property name="length">00:09:22.960</property>
    <property name="eof">pause</property>
    <property name="resource">sources/videos/mp4/rammstein_deutschland_official_video_800p_25fps_av1_128kbit_aac.mp4</property>
    <property name="audio_index">1</property>
    <property name="video_index">0</property>
    <property name="mute_on_pause">0</property>
    <property name="mlt_service">avformat-novalidate</property>
    <property name="seekable">1</property>
    <property name="aspect_ratio">1</property>
    <property name="creation_time">2021-03-05T02:33:35</property>
    <property name="shotcut:hash">90fbe86b70e26c0e139c645fa6df843e</property>
    <property name="ignore_points">0</property>
    <property name="shotcut:caption">rammstein_deutschland_official_video_800p_25fps_av1_128kbit_aac.mp4</property>
    <property name="global_feed">1</property>
    <property name="xml">was here</property>
    <filter id="filter291" in="00:05:20.280" out="00:05:31.440">
      <property name="window">75</property>
      <property name="max_gain">20dB</property>
      <property name="level">-6</property>
      <property name="mlt_service">volume</property>
    </filter>
  </producer>
  <producer id="producer132" in="00:00:00.000" out="00:09:22.920">
    <property name="length">00:09:22.960</property>
    <property name="eof">pause</property>
    <property name="resource">sources/videos/mp4/rammstein_deutschland_official_video_800p_25fps_av1_128kbit_aac.mp4</property>
    <property name="audio_index">1</property>
    <property name="video_index">0</property>
    <property name="mute_on_pause">0</property>
    <property name="mlt_service">avformat-novalidate</property>
    <property name="seekable">1</property>
    <property name="aspect_ratio">1</property>
    <property name="creation_time">2021-03-05T02:33:35</property>
    <property name="shotcut:hash">90fbe86b70e26c0e139c645fa6df843e</property>
    <property name="ignore_points">0</property>
    <property name="shotcut:caption">rammstein_deutschland_official_video_800p_25fps_av1_128kbit_aac.mp4</property>
    <property name="global_feed">1</property>
    <property name="xml">was here</property>
    <filter id="filter292" in="00:05:31.480" out="00:06:08.840">
      <property name="amount">5</property>
      <property name="mlt_service">choppy</property>
    </filter>
    <filter id="filter293" in="00:05:31.480" out="00:06:08.840">
      <property name="version">0.3</property>
      <property name="mlt_service">frei0r.saturat0r</property>
      <property name="threads">0</property>
      <property name="0">0</property>
    </filter>
    <filter id="filter294" in="00:05:31.480" out="00:06:08.840">
      <property name="window">75</property>
      <property name="max_gain">20dB</property>
      <property name="level">-12</property>
      <property name="mlt_service">volume</property>
    </filter>
    <filter id="filter295" in="00:05:31.480" out="00:06:08.840">
      <property name="mlt_service">ladspa.1216</property>
      <property name="0">30</property>
      <property name="1">7.5</property>
      <property name="2">0.5</property>
      <property name="3">0.75</property>
      <property name="4">0</property>
      <property name="5">-10</property>
      <property name="6">-17.5</property>
      <property name="instances">2</property>
    </filter>
  </producer>
  <producer id="producer133" in="00:00:00.000" out="00:09:22.920">
    <property name="length">00:09:22.960</property>
    <property name="eof">pause</property>
    <property name="resource">sources/videos/mp4/rammstein_deutschland_official_video_800p_25fps_av1_128kbit_aac.mp4</property>
    <property name="audio_index">1</property>
    <property name="video_index">0</property>
    <property name="mute_on_pause">0</property>
    <property name="mlt_service">avformat-novalidate</property>
    <property name="seekable">1</property>
    <property name="aspect_ratio">1</property>
    <property name="creation_time">2021-03-05T02:33:35</property>
    <property name="shotcut:hash">90fbe86b70e26c0e139c645fa6df843e</property>
    <property name="ignore_points">0</property>
    <property name="shotcut:caption">rammstein_deutschland_official_video_800p_25fps_av1_128kbit_aac.mp4</property>
    <property name="global_feed">1</property>
    <property name="xml">was here</property>
    <filter id="filter296" in="00:06:08.880" out="00:06:23.560">
      <property name="window">75</property>
      <property name="max_gain">20dB</property>
      <property name="level">-3</property>
      <property name="mlt_service">volume</property>
    </filter>
  </producer>
  <producer id="producer134" in="00:00:00.000" out="00:09:22.920">
    <property name="length">00:09:22.960</property>
    <property name="eof">pause</property>
    <property name="resource">sources/videos/mp4/rammstein_deutschland_official_video_800p_25fps_av1_128kbit_aac.mp4</property>
    <property name="audio_index">1</property>
    <property name="video_index">0</property>
    <property name="mute_on_pause">0</property>
    <property name="mlt_service">avformat-novalidate</property>
    <property name="seekable">1</property>
    <property name="aspect_ratio">1</property>
    <property name="creation_time">2021-03-05T02:33:35</property>
    <property name="shotcut:hash">90fbe86b70e26c0e139c645fa6df843e</property>
    <property name="ignore_points">0</property>
    <property name="shotcut:caption">rammstein_deutschland_official_video_800p_25fps_av1_128kbit_aac.mp4</property>
    <property name="global_feed">1</property>
    <property name="xml">was here</property>
    <filter id="filter297" in="00:06:23.600" out="00:07:10.960">
      <property name="window">75</property>
      <property name="max_gain">20dB</property>
      <property name="level">-2</property>
      <property name="mlt_service">volume</property>
    </filter>
  </producer>
  <producer id="producer135" in="00:00:00.000" out="00:09:22.920">
    <property name="length">00:09:22.960</property>
    <property name="eof">pause</property>
    <property name="resource">sources/videos/mp4/rammstein_deutschland_official_video_800p_25fps_av1_128kbit_aac.mp4</property>
    <property name="audio_index">1</property>
    <property name="video_index">0</property>
    <property name="mute_on_pause">0</property>
    <property name="mlt_service">avformat-novalidate</property>
    <property name="seekable">1</property>
    <property name="aspect_ratio">1</property>
    <property name="creation_time">2021-03-05T02:33:35</property>
    <property name="shotcut:hash">90fbe86b70e26c0e139c645fa6df843e</property>
    <property name="ignore_points">0</property>
    <property name="shotcut:caption">rammstein_deutschland_official_video_800p_25fps_av1_128kbit_aac.mp4</property>
    <property name="global_feed">1</property>
    <property name="xml">was here</property>
    <filter id="filter298" in="00:07:11.000" out="00:07:17.960">
      <property name="background">color:#00000000</property>
      <property name="mlt_service">affine</property>
      <property name="shotcut:filter">affineSizePosition</property>
      <property name="transition.fill">1</property>
      <property name="transition.distort">0</property>
      <property name="transition.rect">6.22642 75.0943 1180.08 491.698 1</property>
      <property name="transition.valign">middle</property>
      <property name="transition.halign">center</property>
      <property name="shotcut:animIn">00:00:00.000</property>
      <property name="shotcut:animOut">00:00:00.000</property>
      <property name="transition.threads">0</property>
      <property name="transition.fix_rotate_x">0</property>
    </filter>
  </producer>
  <producer id="producer136" in="00:00:00.000" out="00:09:22.920">
    <property name="length">00:09:22.960</property>
    <property name="eof">pause</property>
    <property name="resource">sources/videos/mp4/rammstein_deutschland_official_video_800p_25fps_av1_128kbit_aac.mp4</property>
    <property name="audio_index">1</property>
    <property name="video_index">0</property>
    <property name="mute_on_pause">0</property>
    <property name="mlt_service">avformat-novalidate</property>
    <property name="seekable">1</property>
    <property name="aspect_ratio">1</property>
    <property name="creation_time">2021-03-05T02:33:35</property>
    <property name="shotcut:hash">90fbe86b70e26c0e139c645fa6df843e</property>
    <property name="ignore_points">0</property>
    <property name="shotcut:caption">rammstein_deutschland_official_video_800p_25fps_av1_128kbit_aac.mp4</property>
    <property name="global_feed">1</property>
    <property name="xml">was here</property>
    <filter id="filter299" in="00:07:18.000" out="00:07:42.600">
      <property name="window">75</property>
      <property name="max_gain">20dB</property>
      <property name="level">-6</property>
      <property name="mlt_service">volume</property>
    </filter>
    <filter id="filter300" in="00:07:18.000" out="00:07:42.600">
      <property name="background">color:#00000000</property>
      <property name="mlt_service">affine</property>
      <property name="shotcut:filter">affineSizePosition</property>
      <property name="transition.fill">1</property>
      <property name="transition.distort">0</property>
      <property name="transition.rect">6.22642 75.0943 1180.08 491.698 1</property>
      <property name="transition.valign">middle</property>
      <property name="transition.halign">center</property>
      <property name="shotcut:animIn">00:00:00.000</property>
      <property name="shotcut:animOut">00:00:00.000</property>
      <property name="transition.threads">0</property>
      <property name="transition.fix_rotate_x">0</property>
    </filter>
  </producer>
  <producer id="producer137" in="00:00:00.000" out="00:09:22.920">
    <property name="length">00:09:22.960</property>
    <property name="eof">pause</property>
    <property name="resource">sources/videos/mp4/rammstein_deutschland_official_video_800p_25fps_av1_128kbit_aac.mp4</property>
    <property name="audio_index">1</property>
    <property name="video_index">0</property>
    <property name="mute_on_pause">0</property>
    <property name="mlt_service">avformat-novalidate</property>
    <property name="seekable">1</property>
    <property name="aspect_ratio">1</property>
    <property name="creation_time">2021-03-05T02:33:35</property>
    <property name="shotcut:hash">90fbe86b70e26c0e139c645fa6df843e</property>
    <property name="ignore_points">0</property>
    <property name="shotcut:caption">rammstein_deutschland_official_video_800p_25fps_av1_128kbit_aac.mp4</property>
    <property name="global_feed">1</property>
    <property name="xml">was here</property>
    <filter id="filter301" in="00:07:42.640" out="00:08:22.880">
      <property name="window">75</property>
      <property name="max_gain">20dB</property>
      <property name="level">-7</property>
      <property name="mlt_service">volume</property>
    </filter>
    <filter id="filter302" in="00:07:42.640" out="00:08:22.880">
      <property name="background">color:#00000000</property>
      <property name="mlt_service">affine</property>
      <property name="shotcut:filter">affineSizePosition</property>
      <property name="transition.fill">1</property>
      <property name="transition.distort">0</property>
      <property name="transition.rect">6.22642 75.0943 1180.08 491.698 1</property>
      <property name="transition.valign">middle</property>
      <property name="transition.halign">center</property>
      <property name="shotcut:animIn">00:00:00.000</property>
      <property name="shotcut:animOut">00:00:00.000</property>
      <property name="transition.threads">0</property>
      <property name="transition.fix_rotate_x">0</property>
    </filter>
  </producer>
  <producer id="producer138" in="00:00:00.000" out="00:09:22.920">
    <property name="length">00:09:22.960</property>
    <property name="eof">pause</property>
    <property name="resource">sources/videos/mp4/rammstein_deutschland_official_video_800p_25fps_av1_128kbit_aac.mp4</property>
    <property name="audio_index">1</property>
    <property name="video_index">0</property>
    <property name="mute_on_pause">0</property>
    <property name="mlt_service">avformat-novalidate</property>
    <property name="seekable">1</property>
    <property name="aspect_ratio">1</property>
    <property name="creation_time">2021-03-05T02:33:35</property>
    <property name="shotcut:hash">90fbe86b70e26c0e139c645fa6df843e</property>
    <property name="ignore_points">0</property>
    <property name="shotcut:caption">rammstein_deutschland_official_video_800p_25fps_av1_128kbit_aac.mp4</property>
    <property name="global_feed">1</property>
    <property name="xml">was here</property>
    <filter id="filter303" in="00:08:22.920" out="00:09:22.920">
      <property name="window">75</property>
      <property name="max_gain">20dB</property>
      <property name="level">-3</property>
      <property name="mlt_service">volume</property>
    </filter>
    <filter id="filter304" in="00:08:22.920" out="00:09:22.920">
      <property name="background">color:#00000000</property>
      <property name="mlt_service">affine</property>
      <property name="shotcut:filter">affineSizePosition</property>
      <property name="transition.fill">1</property>
      <property name="transition.distort">0</property>
      <property name="transition.rect">6.22642 75.0943 1180.08 491.698 1</property>
      <property name="transition.valign">middle</property>
      <property name="transition.halign">center</property>
      <property name="shotcut:animIn">00:00:00.000</property>
      <property name="shotcut:animOut">00:00:00.000</property>
      <property name="transition.threads">0</property>
      <property name="transition.fix_rotate_x">0</property>
    </filter>
  </producer>
  <producer id="producer139" in="00:00:00.000" out="00:00:10.000">
    <property name="length">00:00:10.040</property>
    <property name="eof">pause</property>
    <property name="resource">sources/videos/mp4/feuersturm1.mp4</property>
    <property name="audio_index">1</property>
    <property name="video_index">0</property>
    <property name="mute_on_pause">0</property>
    <property name="mlt_service">avformat-novalidate</property>
    <property name="seekable">1</property>
    <property name="aspect_ratio">2.13333</property>
    <property name="creation_time">2021-03-08T04:10:51</property>
    <property name="shotcut:hash">39fed39699dcf96fd978c58eeb906312</property>
    <property name="ignore_points">0</property>
    <property name="shotcut:caption">feuersturm1.mp4</property>
    <property name="global_feed">1</property>
    <property name="xml">was here</property>
    <filter id="filter305" in="00:00:03.560" out="00:00:10.000">
      <property name="background">color:#00000000</property>
      <property name="mlt_service">affine</property>
      <property name="shotcut:filter">affineSizePosition</property>
      <property name="transition.fill">1</property>
      <property name="transition.distort">0</property>
      <property name="transition.rect">24.1791 83.2836 1719.4 967.164 1</property>
      <property name="transition.valign">middle</property>
      <property name="transition.halign">center</property>
      <property name="shotcut:animIn">00:00:00.000</property>
      <property name="shotcut:animOut">00:00:00.000</property>
      <property name="transition.threads">0</property>
    </filter>
    <filter id="filter306" in="00:00:03.560" out="00:00:10.000">
      <property name="start">1</property>
      <property name="level">00:00:05.480=1;00:00:06.440=0</property>
      <property name="mlt_service">brightness</property>
      <property name="shotcut:filter">fadeOutBrightness</property>
      <property name="alpha">1</property>
      <property name="shotcut:animOut">00:00:01.000</property>
    </filter>
    <filter id="filter307" in="00:00:03.560" out="00:00:10.000">
      <property name="window">75</property>
      <property name="max_gain">20dB</property>
      <property name="level">12</property>
      <property name="mlt_service">volume</property>
    </filter>
  </producer>
  <producer id="producer140" in="00:00:00.000" out="00:04:58.680">
    <property name="length">00:04:58.720</property>
    <property name="eof">pause</property>
    <property name="resource">sources/videos/mp4/kiz_hurra_die_welt_geht_unter_ft_henning_may_official_video_1080p_25fps_av1_128kbit_aac.mp4</property>
    <property name="audio_index">1</property>
    <property name="video_index">0</property>
    <property name="mute_on_pause">0</property>
    <property name="mlt_service">avformat-novalidate</property>
    <property name="seekable">1</property>
    <property name="aspect_ratio">1</property>
    <property name="creation_time">2021-03-05T06:19:31</property>
    <property name="shotcut:hash">f48e671c0d1482b9371125a03d7b0bb4</property>
    <property name="ignore_points">0</property>
    <property name="shotcut:caption">kiz_hurra_die_welt_geht_unter_ft_henning_may_official_video_1080p_25fps_av1_128kbit_aac.mp4</property>
    <property name="global_feed">1</property>
    <property name="xml">was here</property>
    <filter id="filter308" out="00:00:41.280">
      <property name="window">75</property>
      <property name="max_gain">20dB</property>
      <property name="level">0</property>
      <property name="mlt_service">volume</property>
    </filter>
    <filter id="filter309" out="00:00:41.280">
      <property name="window">75</property>
      <property name="max_gain">20dB</property>
      <property name="level">00:00:40.320=0;00:00:41.280=-60</property>
      <property name="mlt_service">volume</property>
      <property name="shotcut:filter">fadeOutVolume</property>
      <property name="shotcut:animOut">00:00:01.000</property>
    </filter>
    <filter id="filter310" out="00:00:41.280">
      <property name="background">color:#00000000</property>
      <property name="mlt_service">affine</property>
      <property name="shotcut:filter">affineSizePosition</property>
      <property name="transition.fill">1</property>
      <property name="transition.distort">0</property>
      <property name="transition.rect">18.1132 -31.8868 1107.63 623.04 1</property>
      <property name="transition.valign">middle</property>
      <property name="transition.halign">center</property>
      <property name="shotcut:animIn">00:00:00.000</property>
      <property name="shotcut:animOut">00:00:00.000</property>
      <property name="transition.threads">0</property>
      <property name="transition.fix_rotate_x">0</property>
    </filter>
    <filter id="filter311" out="00:00:41.280">
      <property name="start">1</property>
      <property name="level">00:00:40.320=1;00:00:41.280=0</property>
      <property name="mlt_service">brightness</property>
      <property name="shotcut:filter">fadeOutBrightness</property>
      <property name="alpha">1</property>
      <property name="shotcut:animOut">00:00:01.000</property>
    </filter>
  </producer>
  <playlist id="playlist3">
    <property name="shotcut:video">1</property>
    <property name="shotcut:name">V4</property>
    <entry producer="producer94" in="00:00:00.000" out="00:01:12.480"/>
    <entry producer="producer95" in="00:00:00.000" out="00:00:28.960"/>
    <entry producer="producer96" in="00:00:29.000" out="00:00:39.880"/>
    <entry producer="producer97" in="00:00:39.920" out="00:01:12.400"/>
    <blank length="00:00:00.040"/>
    <entry producer="producer98" in="00:01:12.440" out="00:02:08.320"/>
    <entry producer="producer99" in="00:02:08.360" out="00:02:09.240"/>
    <blank length="00:00:11.600"/>
    <entry producer="producer100" in="00:00:00.000" out="00:00:15.200"/>
    <blank length="00:00:01.200"/>
    <entry producer="producer101" in="00:00:16.440" out="00:00:22.600"/>
    <blank length="00:00:01.080"/>
    <entry producer="producer102" in="00:00:23.720" out="00:00:30.040"/>
    <blank length="00:00:01.080"/>
    <entry producer="producer103" in="00:00:31.160" out="00:00:37.400"/>
    <blank length="00:00:04.200"/>
    <entry producer="producer104" in="00:00:41.640" out="00:00:51.320"/>
    <entry producer="producer105" in="00:00:51.360" out="00:01:13.680"/>
    <entry producer="producer106" in="00:01:13.720" out="00:01:14.560"/>
    <entry producer="producer107" in="00:01:14.600" out="00:01:35.720"/>
    <entry producer="producer108" in="00:01:35.760" out="00:01:45.640"/>
    <entry producer="producer109" in="00:02:08.640" out="00:02:40.960"/>
    <entry producer="producer110" in="00:02:41.000" out="00:02:44.360"/>
    <entry producer="producer111" in="00:02:44.400" out="00:02:45.400"/>
    <entry producer="producer112" in="00:02:45.440" out="00:02:48.200"/>
    <entry producer="producer113" in="00:02:48.320" out="00:02:49.520"/>
    <entry producer="producer114" in="00:02:49.480" out="00:02:52.360"/>
    <entry producer="producer115" in="00:02:52.400" out="00:02:53.320"/>
    <entry producer="producer116" in="00:02:53.360" out="00:02:55.600"/>
    <entry producer="producer117" in="00:02:55.200" out="00:02:56.840"/>
    <entry producer="producer118" in="00:02:56.880" out="00:03:13.240"/>
    <entry producer="producer119" in="00:03:13.280" out="00:03:55.960"/>
    <entry producer="producer120" in="00:03:56.000" out="00:04:33.560"/>
    <entry producer="producer121" in="00:04:33.600" out="00:04:47.680"/>
    <entry producer="producer122" in="00:04:47.720" out="00:04:49.840"/>
    <entry producer="producer123" in="00:04:49.880" out="00:05:04.520"/>
    <entry producer="producer124" in="00:05:04.560" out="00:05:07.880"/>
    <entry producer="producer125" in="00:05:07.920" out="00:05:08.400"/>
    <entry producer="producer126" in="00:05:08.440" out="00:05:11.880"/>
    <entry producer="producer127" in="00:05:11.920" out="00:05:12.680"/>
    <entry producer="producer128" in="00:05:12.720" out="00:05:15.680"/>
    <entry producer="producer129" in="00:05:15.720" out="00:05:17.040"/>
    <entry producer="producer130" in="00:05:17.080" out="00:05:20.240"/>
    <entry producer="producer131" in="00:05:20.280" out="00:05:31.440"/>
    <entry producer="producer132" in="00:05:31.480" out="00:06:08.840"/>
    <entry producer="producer133" in="00:06:08.880" out="00:06:23.560"/>
    <entry producer="producer134" in="00:06:23.600" out="00:07:10.960"/>
    <entry producer="producer135" in="00:07:11.000" out="00:07:17.960"/>
    <entry producer="producer136" in="00:07:18.000" out="00:07:42.600"/>
    <entry producer="producer137" in="00:07:42.640" out="00:08:22.880"/>
    <entry producer="producer138" in="00:08:22.920" out="00:09:22.920"/>
    <blank length="00:00:17.400"/>
    <entry producer="producer139" in="00:00:03.560" out="00:00:10.000"/>
    <blank length="00:00:46.000"/>
    <entry producer="producer140" in="00:00:00.000" out="00:00:41.280"/>
  </playlist>
  <producer id="producer141" in="00:00:00.000" out="00:04:38.680">
    <property name="length">00:04:38.720</property>
    <property name="eof">pause</property>
    <property name="resource">sources/videos/mp4/be_deutsch_achtung_germans_on_the_rise_neo_magazin_royale_mit_jan_boehmermann_-_zdfneo_1080p_25fps_h264_128kbit_aac.mp4</property>
    <property name="audio_index">1</property>
    <property name="video_index">0</property>
    <property name="mute_on_pause">0</property>
    <property name="mlt_service">avformat-novalidate</property>
    <property name="seekable">1</property>
    <property name="aspect_ratio">1</property>
    <property name="shotcut:hash">adcf04aab02019acb657df638258ef8f</property>
    <property name="ignore_points">0</property>
    <property name="shotcut:caption">be_deutsch_achtung_germans_on_the_rise_neo_magazin_royale_mit_jan_boehmermann_-_zdfneo_1080p_25fps_h264_128kbit_aac.mp4</property>
    <property name="global_feed">1</property>
    <property name="xml">was here</property>
    <filter id="filter312" out="00:03:20.880">
      <property name="background">color:#00000000</property>
      <property name="mlt_service">affine</property>
      <property name="shotcut:filter">affineSizePosition</property>
      <property name="transition.fill">1</property>
      <property name="transition.distort">0</property>
      <property name="transition.rect">1019.5 570.709 899.368 505.895 1</property>
      <property name="transition.valign">middle</property>
      <property name="transition.halign">center</property>
      <property name="shotcut:animIn">00:00:00.000</property>
      <property name="shotcut:animOut">00:00:00.000</property>
      <property name="transition.threads">0</property>
      <property name="transition.fix_rotate_x">0</property>
    </filter>
    <filter id="filter313" out="00:03:20.880">
      <property name="window">75</property>
      <property name="max_gain">20dB</property>
      <property name="level">3</property>
      <property name="mlt_service">volume</property>
    </filter>
  </producer>
  <producer id="producer142" in="00:00:00.000" out="03:59:59.960">
    <property name="length">04:00:00.000</property>
    <property name="eof">pause</property>
    <property name="resource">sources/images/jpg/nina_warn_app.jpg</property>
    <property name="ttl">1</property>
    <property name="aspect_ratio">1</property>
    <property name="progressive">1</property>
    <property name="seekable">1</property>
    <property name="mlt_service">qimage</property>
    <property name="creation_time">2021-03-09T05:39:23</property>
    <property name="shotcut:caption">nina_warn_app.jpg</property>
    <property name="shotcut:hash">609be00ce8b1238fd66e8439282ff96b</property>
    <property name="ignore_points">0</property>
    <property name="global_feed">1</property>
    <property name="xml">was here</property>
    <filter id="filter314" out="00:00:00.840">
      <property name="background">color:#00000000</property>
      <property name="mlt_service">affine</property>
      <property name="shotcut:filter">affineSizePosition</property>
      <property name="transition.fill">1</property>
      <property name="transition.distort">0</property>
      <property name="transition.rect">1275.56 650.41 477.91 400.958 1</property>
      <property name="transition.valign">middle</property>
      <property name="transition.halign">center</property>
      <property name="shotcut:animIn">00:00:00.000</property>
      <property name="shotcut:animOut">00:00:00.000</property>
      <property name="transition.threads">0</property>
    </filter>
  </producer>
  <producer id="producer143" in="00:00:00.000" out="00:04:38.680">
    <property name="length">00:04:38.720</property>
    <property name="eof">pause</property>
    <property name="resource">sources/videos/mp4/be_deutsch_achtung_germans_on_the_rise_neo_magazin_royale_mit_jan_boehmermann_-_zdfneo_1080p_25fps_h264_128kbit_aac.mp4</property>
    <property name="audio_index">1</property>
    <property name="video_index">0</property>
    <property name="mute_on_pause">0</property>
    <property name="mlt_service">avformat-novalidate</property>
    <property name="seekable">1</property>
    <property name="aspect_ratio">1</property>
    <property name="shotcut:hash">adcf04aab02019acb657df638258ef8f</property>
    <property name="ignore_points">0</property>
    <property name="shotcut:caption">be_deutsch_achtung_germans_on_the_rise_neo_magazin_royale_mit_jan_boehmermann_-_zdfneo_1080p_25fps_h264_128kbit_aac.mp4</property>
    <property name="global_feed">1</property>
    <property name="xml">was here</property>
    <filter id="filter315" in="00:03:21.280" out="00:04:38.600">
      <property name="background">color:#00000000</property>
      <property name="mlt_service">affine</property>
      <property name="shotcut:filter">affineSizePosition</property>
      <property name="transition.fill">1</property>
      <property name="transition.distort">0</property>
      <property name="transition.rect">1019.5 570.709 899.368 505.895 1</property>
      <property name="transition.valign">middle</property>
      <property name="transition.halign">center</property>
      <property name="shotcut:animIn">00:00:00.000</property>
      <property name="shotcut:animOut">00:00:00.000</property>
      <property name="transition.threads">0</property>
      <property name="transition.fix_rotate_x">0</property>
    </filter>
    <filter id="filter316" in="00:03:21.280" out="00:04:38.600">
      <property name="start">1</property>
      <property name="level">00:01:16.360=1;00:01:17.320=0</property>
      <property name="mlt_service">brightness</property>
      <property name="shotcut:filter">fadeOutBrightness</property>
      <property name="alpha">1</property>
      <property name="shotcut:animOut">00:00:01.000</property>
    </filter>
  </producer>
  <producer id="producer144" in="00:00:00.000" out="00:02:49.200">
    <property name="length">00:02:49.240</property>
    <property name="eof">pause</property>
    <property name="resource">sources/videos/mp4/walter_moers_thomas_pigor_ich_hock_in_meinem_bonker_video_480p_25fps_h264_128kbit_aac.mp4</property>
    <property name="audio_index">1</property>
    <property name="video_index">0</property>
    <property name="mute_on_pause">0</property>
    <property name="mlt_service">avformat-novalidate</property>
    <property name="seekable">1</property>
    <property name="aspect_ratio">1</property>
    <property name="creation_time">2021-03-05T04:36:55</property>
    <property name="shotcut:hash">85fc7fc0c0ecb06af7d014115e97081a</property>
    <property name="ignore_points">0</property>
    <property name="shotcut:caption">walter_moers_thomas_pigor_ich_hock_in_meinem_bonker_video_480p_25fps_h264_128kbit_aac.mp4</property>
    <property name="global_feed">1</property>
    <property name="xml">was here</property>
    <filter id="filter317" in="00:00:06.920" out="00:01:01.480">
      <property name="background">color:#00000000</property>
      <property name="mlt_service">affine</property>
      <property name="shotcut:filter">affineSizePosition</property>
      <property name="transition.fill">1</property>
      <property name="transition.distort">0</property>
      <property name="transition.rect">1143.4 504.34 720 540 1</property>
      <property name="transition.valign">middle</property>
      <property name="transition.halign">center</property>
      <property name="shotcut:animIn">00:00:00.000</property>
      <property name="shotcut:animOut">00:00:00.000</property>
      <property name="transition.threads">0</property>
      <property name="transition.fix_rotate_x">0</property>
    </filter>
    <filter id="filter318" in="00:00:06.920" out="00:01:01.480">
      <property name="start">1</property>
      <property name="level">00:00:00.000=0;00:00:00.960=1</property>
      <property name="mlt_service">brightness</property>
      <property name="shotcut:filter">fadeInBrightness</property>
      <property name="alpha">1</property>
      <property name="shotcut:animIn">00:00:01.000</property>
    </filter>
  </producer>
  <producer id="producer145" in="00:00:00.000" out="00:02:49.200">
    <property name="length">00:02:49.240</property>
    <property name="eof">pause</property>
    <property name="resource">sources/videos/mp4/walter_moers_thomas_pigor_ich_hock_in_meinem_bonker_video_480p_25fps_h264_128kbit_aac.mp4</property>
    <property name="audio_index">1</property>
    <property name="video_index">0</property>
    <property name="mute_on_pause">0</property>
    <property name="mlt_service">avformat-novalidate</property>
    <property name="seekable">1</property>
    <property name="aspect_ratio">1</property>
    <property name="creation_time">2021-03-05T04:36:55</property>
    <property name="shotcut:hash">85fc7fc0c0ecb06af7d014115e97081a</property>
    <property name="ignore_points">0</property>
    <property name="shotcut:caption">walter_moers_thomas_pigor_ich_hock_in_meinem_bonker_video_480p_25fps_h264_128kbit_aac.mp4</property>
    <property name="global_feed">1</property>
    <property name="xml">was here</property>
  </producer>
  <producer id="producer146" in="00:00:00.000" out="00:02:49.200">
    <property name="length">00:02:49.240</property>
    <property name="eof">pause</property>
    <property name="resource">sources/videos/mp4/walter_moers_thomas_pigor_ich_hock_in_meinem_bonker_video_480p_25fps_h264_128kbit_aac.mp4</property>
    <property name="audio_index">1</property>
    <property name="video_index">0</property>
    <property name="mute_on_pause">0</property>
    <property name="mlt_service">avformat-novalidate</property>
    <property name="seekable">1</property>
    <property name="aspect_ratio">1</property>
    <property name="creation_time">2021-03-05T04:36:55</property>
    <property name="shotcut:hash">85fc7fc0c0ecb06af7d014115e97081a</property>
    <property name="ignore_points">0</property>
    <property name="shotcut:caption">walter_moers_thomas_pigor_ich_hock_in_meinem_bonker_video_480p_25fps_h264_128kbit_aac.mp4</property>
    <property name="global_feed">1</property>
    <property name="xml">was here</property>
    <filter id="filter319" in="00:01:09.240" out="00:01:44.320">
      <property name="background">color:#00000000</property>
      <property name="mlt_service">affine</property>
      <property name="shotcut:filter">affineSizePosition</property>
      <property name="transition.fill">1</property>
      <property name="transition.distort">0</property>
      <property name="transition.rect">1143.4 504.34 720 540 1</property>
      <property name="transition.valign">middle</property>
      <property name="transition.halign">center</property>
      <property name="shotcut:animIn">00:00:00.000</property>
      <property name="shotcut:animOut">00:00:00.000</property>
      <property name="transition.threads">0</property>
      <property name="transition.fix_rotate_x">0</property>
    </filter>
  </producer>
  <producer id="producer147" in="00:00:00.000" out="00:02:49.200">
    <property name="length">00:02:49.240</property>
    <property name="eof">pause</property>
    <property name="resource">sources/videos/mp4/walter_moers_thomas_pigor_ich_hock_in_meinem_bonker_video_480p_25fps_h264_128kbit_aac.mp4</property>
    <property name="audio_index">1</property>
    <property name="video_index">0</property>
    <property name="mute_on_pause">0</property>
    <property name="mlt_service">avformat-novalidate</property>
    <property name="seekable">1</property>
    <property name="aspect_ratio">1</property>
    <property name="creation_time">2021-03-05T04:36:55</property>
    <property name="shotcut:hash">85fc7fc0c0ecb06af7d014115e97081a</property>
    <property name="ignore_points">0</property>
    <property name="shotcut:caption">walter_moers_thomas_pigor_ich_hock_in_meinem_bonker_video_480p_25fps_h264_128kbit_aac.mp4</property>
    <property name="global_feed">1</property>
    <property name="xml">was here</property>
  </producer>
  <producer id="producer148" in="00:00:00.000" out="00:02:49.200">
    <property name="length">00:02:49.240</property>
    <property name="eof">pause</property>
    <property name="resource">sources/videos/mp4/walter_moers_thomas_pigor_ich_hock_in_meinem_bonker_video_480p_25fps_h264_128kbit_aac.mp4</property>
    <property name="audio_index">1</property>
    <property name="video_index">0</property>
    <property name="mute_on_pause">0</property>
    <property name="mlt_service">avformat-novalidate</property>
    <property name="seekable">1</property>
    <property name="aspect_ratio">1</property>
    <property name="creation_time">2021-03-05T04:36:55</property>
    <property name="shotcut:hash">85fc7fc0c0ecb06af7d014115e97081a</property>
    <property name="ignore_points">0</property>
    <property name="shotcut:caption">walter_moers_thomas_pigor_ich_hock_in_meinem_bonker_video_480p_25fps_h264_128kbit_aac.mp4</property>
    <property name="global_feed">1</property>
    <property name="xml">was here</property>
    <filter id="filter320" in="00:01:50.040" out="00:01:55.040">
      <property name="background">color:#00000000</property>
      <property name="mlt_service">affine</property>
      <property name="shotcut:filter">affineSizePosition</property>
      <property name="transition.fill">1</property>
      <property name="transition.distort">0</property>
      <property name="transition.rect">1143.4 504.34 720 540 1</property>
      <property name="transition.valign">middle</property>
      <property name="transition.halign">center</property>
      <property name="shotcut:animIn">00:00:00.000</property>
      <property name="shotcut:animOut">00:00:00.000</property>
      <property name="transition.threads">0</property>
      <property name="transition.fix_rotate_x">0</property>
    </filter>
  </producer>
  <producer id="producer149" in="00:00:00.000" out="00:02:49.200">
    <property name="length">00:02:49.240</property>
    <property name="eof">pause</property>
    <property name="resource">sources/videos/mp4/walter_moers_thomas_pigor_ich_hock_in_meinem_bonker_video_480p_25fps_h264_128kbit_aac.mp4</property>
    <property name="audio_index">1</property>
    <property name="video_index">0</property>
    <property name="mute_on_pause">0</property>
    <property name="mlt_service">avformat-novalidate</property>
    <property name="seekable">1</property>
    <property name="aspect_ratio">1</property>
    <property name="creation_time">2021-03-05T04:36:55</property>
    <property name="shotcut:hash">85fc7fc0c0ecb06af7d014115e97081a</property>
    <property name="ignore_points">0</property>
    <property name="shotcut:caption">walter_moers_thomas_pigor_ich_hock_in_meinem_bonker_video_480p_25fps_h264_128kbit_aac.mp4</property>
    <property name="global_feed">1</property>
    <property name="xml">was here</property>
  </producer>
  <producer id="producer150" in="00:00:00.000" out="00:02:49.200">
    <property name="length">00:02:49.240</property>
    <property name="eof">pause</property>
    <property name="resource">sources/videos/mp4/walter_moers_thomas_pigor_ich_hock_in_meinem_bonker_video_480p_25fps_h264_128kbit_aac.mp4</property>
    <property name="audio_index">1</property>
    <property name="video_index">0</property>
    <property name="mute_on_pause">0</property>
    <property name="mlt_service">avformat-novalidate</property>
    <property name="seekable">1</property>
    <property name="aspect_ratio">1</property>
    <property name="creation_time">2021-03-05T04:36:55</property>
    <property name="shotcut:hash">85fc7fc0c0ecb06af7d014115e97081a</property>
    <property name="ignore_points">0</property>
    <property name="shotcut:caption">walter_moers_thomas_pigor_ich_hock_in_meinem_bonker_video_480p_25fps_h264_128kbit_aac.mp4</property>
    <property name="global_feed">1</property>
    <property name="xml">was here</property>
    <filter id="filter321" in="00:02:12.960" out="00:02:40.480">
      <property name="background">color:#00000000</property>
      <property name="mlt_service">affine</property>
      <property name="shotcut:filter">affineSizePosition</property>
      <property name="transition.fill">1</property>
      <property name="transition.distort">0</property>
      <property name="transition.rect">1143.4 504.34 720 540 1</property>
      <property name="transition.valign">middle</property>
      <property name="transition.halign">center</property>
      <property name="shotcut:animIn">00:00:00.000</property>
      <property name="shotcut:animOut">00:00:00.000</property>
      <property name="transition.threads">0</property>
      <property name="transition.fix_rotate_x">0</property>
    </filter>
    <filter id="filter322" in="00:02:12.960" out="00:02:40.480">
      <property name="start">1</property>
      <property name="level">00:00:26.560=1;00:00:27.520=0</property>
      <property name="mlt_service">brightness</property>
      <property name="shotcut:filter">fadeOutBrightness</property>
      <property name="alpha">1</property>
      <property name="shotcut:animOut">00:00:01.000</property>
    </filter>
  </producer>
  <producer id="producer151" in="00:00:00.000" out="03:59:59.960">
    <property name="length">04:00:00.000</property>
    <property name="eof">pause</property>
    <property name="resource">sources/images/jpg/1500x500.jpg</property>
    <property name="ttl">1</property>
    <property name="aspect_ratio">1</property>
    <property name="progressive">1</property>
    <property name="seekable">1</property>
    <property name="mlt_service">qimage</property>
    <property name="creation_time">2017-09-16T02:47:12</property>
    <property name="shotcut:caption">1500x500.jpg</property>
    <property name="shotcut:hash">88f2bb3607fdb5802df18e58fa0002c6</property>
    <property name="ignore_points">0</property>
    <property name="global_feed">1</property>
    <property name="xml">was here</property>
  </producer>
  <playlist id="playlist4">
    <property name="shotcut:video">1</property>
    <property name="shotcut:name">V5</property>
    <entry producer="producer141" in="00:00:00.000" out="00:03:20.880"/>
    <blank length="00:01:26.240"/>
    <entry producer="producer142" in="00:00:00.000" out="00:00:00.840"/>
    <blank length="00:05:33.880"/>
    <entry producer="producer143" in="00:03:21.280" out="00:04:38.600"/>
    <entry producer="producer144" in="00:00:06.920" out="00:01:01.480"/>
    <entry producer="producer145" in="00:01:01.520" out="00:01:09.200"/>
    <entry producer="producer146" in="00:01:09.240" out="00:01:44.320"/>
    <entry producer="producer147" in="00:01:44.360" out="00:01:48.440"/>
    <entry producer="producer148" in="00:01:50.040" out="00:01:55.040"/>
    <entry producer="producer149" in="00:01:55.080" out="00:02:12.920"/>
    <entry producer="producer150" in="00:02:12.960" out="00:02:40.480"/>
    <blank length="00:00:00.600"/>
    <entry producer="producer151" in="00:00:00.000" out="00:00:03.960"/>
  </playlist>
  <producer id="producer152" in="00:00:00.000" out="00:01:45.640">
    <property name="length">00:01:45.680</property>
    <property name="eof">pause</property>
    <property name="resource">sources/videos/mp4/black_swan_club_scene.mp4</property>
    <property name="audio_index">1</property>
    <property name="video_index">0</property>
    <property name="mute_on_pause">0</property>
    <property name="mlt_service">avformat-novalidate</property>
    <property name="seekable">1</property>
    <property name="aspect_ratio">1</property>
    <property name="creation_time">2021-03-09T04:09:34</property>
    <property name="shotcut:hash">0535a4ee6490394e5cdc9946d9531a09</property>
    <property name="ignore_points">0</property>
    <property name="shotcut:caption">black_swan_club_scene.mp4</property>
    <property name="global_feed">1</property>
    <property name="xml">was here</property>
    <property name="shotcut:defaultAudioIndex">1</property>
    <filter id="filter323" in="00:00:15.240" out="00:00:16.400">
      <property name="background">color:#00000000</property>
      <property name="mlt_service">affine</property>
      <property name="shotcut:filter">affineSizePosition</property>
      <property name="transition.fill">1</property>
      <property name="transition.distort">0</property>
      <property name="transition.rect">0 0 1178.44 662.874 1</property>
      <property name="transition.valign">middle</property>
      <property name="transition.halign">center</property>
      <property name="shotcut:animIn">00:00:00.000</property>
      <property name="shotcut:animOut">00:00:00.000</property>
      <property name="transition.threads">0</property>
      <property name="transition.fix_rotate_x">0</property>
    </filter>
    <filter id="filter324" in="00:00:15.240" out="00:00:16.400">
      <property name="window">75</property>
      <property name="max_gain">20dB</property>
      <property name="level">20</property>
      <property name="mlt_service">volume</property>
    </filter>
  </producer>
  <producer id="producer153" in="00:00:00.000" out="00:01:45.640">
    <property name="length">00:01:45.680</property>
    <property name="eof">pause</property>
    <property name="resource">sources/videos/mp4/black_swan_club_scene.mp4</property>
    <property name="audio_index">1</property>
    <property name="video_index">0</property>
    <property name="mute_on_pause">0</property>
    <property name="mlt_service">avformat-novalidate</property>
    <property name="seekable">1</property>
    <property name="aspect_ratio">1</property>
    <property name="creation_time">2021-03-09T04:09:34</property>
    <property name="shotcut:hash">0535a4ee6490394e5cdc9946d9531a09</property>
    <property name="ignore_points">0</property>
    <property name="shotcut:caption">black_swan_club_scene.mp4</property>
    <property name="global_feed">1</property>
    <property name="xml">was here</property>
    <property name="shotcut:defaultAudioIndex">1</property>
    <filter id="filter325" in="00:00:22.640" out="00:00:23.680">
      <property name="background">color:#00000000</property>
      <property name="mlt_service">affine</property>
      <property name="shotcut:filter">affineSizePosition</property>
      <property name="transition.fill">1</property>
      <property name="transition.distort">0</property>
      <property name="transition.rect">0 0 1178.44 662.874 1</property>
      <property name="transition.valign">middle</property>
      <property name="transition.halign">center</property>
      <property name="shotcut:animIn">00:00:00.000</property>
      <property name="shotcut:animOut">00:00:00.000</property>
      <property name="transition.threads">0</property>
      <property name="transition.fix_rotate_x">0</property>
    </filter>
    <filter id="filter326" in="00:00:22.640" out="00:00:23.680">
      <property name="window">75</property>
      <property name="max_gain">20dB</property>
      <property name="level">20</property>
      <property name="mlt_service">volume</property>
    </filter>
  </producer>
  <producer id="producer154" in="00:00:00.000" out="00:01:45.640">
    <property name="length">00:01:45.680</property>
    <property name="eof">pause</property>
    <property name="resource">sources/videos/mp4/black_swan_club_scene.mp4</property>
    <property name="audio_index">1</property>
    <property name="video_index">0</property>
    <property name="mute_on_pause">0</property>
    <property name="mlt_service">avformat-novalidate</property>
    <property name="seekable">1</property>
    <property name="aspect_ratio">1</property>
    <property name="creation_time">2021-03-09T04:09:34</property>
    <property name="shotcut:hash">0535a4ee6490394e5cdc9946d9531a09</property>
    <property name="ignore_points">0</property>
    <property name="shotcut:caption">black_swan_club_scene.mp4</property>
    <property name="global_feed">1</property>
    <property name="xml">was here</property>
    <property name="shotcut:defaultAudioIndex">1</property>
    <filter id="filter327" in="00:00:30.080" out="00:00:31.120">
      <property name="background">color:#00000000</property>
      <property name="mlt_service">affine</property>
      <property name="shotcut:filter">affineSizePosition</property>
      <property name="transition.fill">1</property>
      <property name="transition.distort">0</property>
      <property name="transition.rect">0 0 1178.44 662.874 1</property>
      <property name="transition.valign">middle</property>
      <property name="transition.halign">center</property>
      <property name="shotcut:animIn">00:00:00.000</property>
      <property name="shotcut:animOut">00:00:00.000</property>
      <property name="transition.threads">0</property>
      <property name="transition.fix_rotate_x">0</property>
    </filter>
    <filter id="filter328" in="00:00:30.080" out="00:00:31.120">
      <property name="window">75</property>
      <property name="max_gain">20dB</property>
      <property name="level">20</property>
      <property name="mlt_service">volume</property>
    </filter>
  </producer>
  <producer id="producer155" in="00:00:00.000" out="00:01:45.640">
    <property name="length">00:01:45.680</property>
    <property name="eof">pause</property>
    <property name="resource">sources/videos/mp4/black_swan_club_scene.mp4</property>
    <property name="audio_index">1</property>
    <property name="video_index">0</property>
    <property name="mute_on_pause">0</property>
    <property name="mlt_service">avformat-novalidate</property>
    <property name="seekable">1</property>
    <property name="aspect_ratio">1</property>
    <property name="creation_time">2021-03-09T04:09:34</property>
    <property name="shotcut:hash">0535a4ee6490394e5cdc9946d9531a09</property>
    <property name="ignore_points">0</property>
    <property name="shotcut:caption">black_swan_club_scene.mp4</property>
    <property name="global_feed">1</property>
    <property name="xml">was here</property>
    <property name="shotcut:defaultAudioIndex">1</property>
    <filter id="filter329" in="00:00:37.440" out="00:00:41.600">
      <property name="background">color:#00000000</property>
      <property name="mlt_service">affine</property>
      <property name="shotcut:filter">affineSizePosition</property>
      <property name="transition.fill">1</property>
      <property name="transition.distort">0</property>
      <property name="transition.rect">0 0 1178.44 662.874 1</property>
      <property name="transition.valign">middle</property>
      <property name="transition.halign">center</property>
      <property name="shotcut:animIn">00:00:00.000</property>
      <property name="shotcut:animOut">00:00:00.000</property>
      <property name="transition.threads">0</property>
      <property name="transition.fix_rotate_x">0</property>
    </filter>
    <filter id="filter330" in="00:00:37.440" out="00:00:41.600">
      <property name="window">75</property>
      <property name="max_gain">20dB</property>
      <property name="level">20</property>
      <property name="mlt_service">volume</property>
    </filter>
  </producer>
  <producer id="producer156" in="00:00:00.000" out="00:06:55.720">
    <property name="length">00:06:55.760</property>
    <property name="eof">pause</property>
    <property name="resource">sources/videos/mp4/shaban_and_kaeptn_peng_sie_moegen_sich_720p_24fps_h264_128kbit_aac.mp4</property>
    <property name="audio_index">1</property>
    <property name="video_index">0</property>
    <property name="mute_on_pause">0</property>
    <property name="mlt_service">avformat-novalidate</property>
    <property name="seekable">1</property>
    <property name="aspect_ratio">1</property>
    <property name="shotcut:hash">0036066d7a513a89136e115830fd1bbb</property>
    <property name="ignore_points">0</property>
    <property name="shotcut:caption">shaban_and_kaeptn_peng_sie_moegen_sich_720p_24fps_h264_128kbit_aac.mp4</property>
    <property name="global_feed">1</property>
    <property name="xml">was here</property>
    <property name="shotcut:defaultAudioIndex">1</property>
    <filter id="filter331" in="00:00:28.160" out="00:00:29.080">
      <property name="background">color:#00000000</property>
      <property name="mlt_service">affine</property>
      <property name="shotcut:filter">affineSizePosition</property>
      <property name="transition.fill">1</property>
      <property name="transition.distort">0</property>
      <property name="transition.rect">69.5348 36.3536 1849.33 1040.25 1</property>
      <property name="transition.valign">middle</property>
      <property name="transition.halign">center</property>
      <property name="shotcut:animIn">00:00:00.000</property>
      <property name="shotcut:animOut">00:00:00.000</property>
      <property name="transition.threads">0</property>
      <property name="transition.fix_rotate_x">0</property>
    </filter>
    <filter id="filter332" in="00:00:28.160" out="00:00:29.080">
      <property name="background">color:#00000000</property>
      <property name="mlt_service">affine</property>
      <property name="shotcut:filter">affineSizePosition</property>
      <property name="transition.fill">1</property>
      <property name="transition.distort">0</property>
      <property name="transition.rect">1019.5 570.709 899.368 505.895 1</property>
      <property name="transition.valign">middle</property>
      <property name="transition.halign">center</property>
      <property name="shotcut:animIn">00:00:00.000</property>
      <property name="shotcut:animOut">00:00:00.000</property>
      <property name="transition.threads">0</property>
      <property name="transition.fix_rotate_x">0</property>
    </filter>
  </producer>
  <producer id="producer157" in="00:00:00.000" out="00:06:55.720">
    <property name="length">00:06:55.760</property>
    <property name="eof">pause</property>
    <property name="resource">sources/videos/mp4/shaban_and_kaeptn_peng_sie_moegen_sich_720p_24fps_h264_128kbit_aac.mp4</property>
    <property name="audio_index">1</property>
    <property name="video_index">0</property>
    <property name="mute_on_pause">0</property>
    <property name="mlt_service">avformat-novalidate</property>
    <property name="seekable">1</property>
    <property name="aspect_ratio">1</property>
    <property name="shotcut:hash">0036066d7a513a89136e115830fd1bbb</property>
    <property name="ignore_points">0</property>
    <property name="shotcut:caption">shaban_and_kaeptn_peng_sie_moegen_sich_720p_24fps_h264_128kbit_aac.mp4</property>
    <property name="global_feed">1</property>
    <property name="xml">was here</property>
    <property name="shotcut:defaultAudioIndex">1</property>
    <filter id="filter333" in="00:00:28.240" out="00:00:29.560">
      <property name="background">color:#00000000</property>
      <property name="mlt_service">affine</property>
      <property name="shotcut:filter">affineSizePosition</property>
      <property name="transition.fill">1</property>
      <property name="transition.distort">0</property>
      <property name="transition.rect">69.5348 36.3536 1849.33 1040.25 1</property>
      <property name="transition.valign">middle</property>
      <property name="transition.halign">center</property>
      <property name="shotcut:animIn">00:00:00.000</property>
      <property name="shotcut:animOut">00:00:00.000</property>
      <property name="transition.threads">0</property>
      <property name="transition.fix_rotate_x">0</property>
    </filter>
    <filter id="filter334" in="00:00:28.240" out="00:00:29.560">
      <property name="background">color:#00000000</property>
      <property name="mlt_service">affine</property>
      <property name="shotcut:filter">affineSizePosition</property>
      <property name="transition.fill">1</property>
      <property name="transition.distort">0</property>
      <property name="transition.rect">1019.5 570.709 899.368 505.895 1</property>
      <property name="transition.valign">middle</property>
      <property name="transition.halign">center</property>
      <property name="shotcut:animIn">00:00:00.000</property>
      <property name="shotcut:animOut">00:00:00.000</property>
      <property name="transition.threads">0</property>
      <property name="transition.fix_rotate_x">0</property>
    </filter>
  </producer>
  <producer id="producer158" in="00:00:00.000" out="00:00:10.000">
    <property name="length">00:00:10.040</property>
    <property name="eof">pause</property>
    <property name="resource">sources/videos/mp4/feuersturm1.mp4</property>
    <property name="audio_index">1</property>
    <property name="video_index">0</property>
    <property name="mute_on_pause">0</property>
    <property name="mlt_service">avformat-novalidate</property>
    <property name="seekable">1</property>
    <property name="aspect_ratio">2.13333</property>
    <property name="creation_time">2021-03-08T04:10:51</property>
    <property name="shotcut:hash">39fed39699dcf96fd978c58eeb906312</property>
    <property name="ignore_points">0</property>
    <property name="shotcut:caption">feuersturm1.mp4</property>
    <property name="global_feed">1</property>
    <property name="xml">was here</property>
    <property name="shotcut:defaultAudioIndex">1</property>
    <filter id="filter335" out="00:00:03.520">
      <property name="window">75</property>
      <property name="max_gain">20dB</property>
      <property name="level">12</property>
      <property name="mlt_service">volume</property>
    </filter>
  </producer>
  <producer id="producer159" in="00:00:00.000" out="00:00:22.240">
    <property name="length">00:00:22.280</property>
    <property name="eof">pause</property>
    <property name="resource">sources/videos/mp4/nuclear_explosion_video_and_sound_720p_30fps_h264_192kbit_aac.mp4</property>
    <property name="audio_index">1</property>
    <property name="video_index">0</property>
    <property name="mute_on_pause">0</property>
    <property name="mlt_service">avformat-novalidate</property>
    <property name="seekable">1</property>
    <property name="aspect_ratio">1</property>
    <property name="creation_time">2019-12-29T06:01:46</property>
    <property name="shotcut:hash">16cefda8cd5d36e4bfd3090af8a6d72b</property>
    <property name="ignore_points">0</property>
    <property name="shotcut:caption">nuclear_explosion_video_and_sound_720p_30fps_h264_192kbit_aac.mp4</property>
    <property name="global_feed">1</property>
    <property name="xml">was here</property>
    <property name="shotcut:defaultAudioIndex">1</property>
  </producer>
  <playlist id="playlist5">
    <property name="shotcut:audio">1</property>
    <property name="shotcut:name">A1</property>
    <blank length="00:03:48.680"/>
    <entry producer="producer152" in="00:00:15.240" out="00:00:16.400"/>
    <blank length="00:00:06.200"/>
    <entry producer="producer153" in="00:00:22.640" out="00:00:23.680"/>
    <blank length="00:00:06.360"/>
    <entry producer="producer154" in="00:00:30.080" out="00:00:31.120"/>
    <blank length="00:00:06.280"/>
    <entry producer="producer155" in="00:00:37.440" out="00:00:41.600"/>
    <blank length="00:01:47.800"/>
    <entry producer="producer156" in="00:00:28.160" out="00:00:29.080"/>
    <blank length="00:02:22.800"/>
    <entry producer="producer157" in="00:00:28.240" out="00:00:29.560"/>
    <blank length="00:04:19.720"/>
    <entry producer="producer158" in="00:00:00.000" out="00:00:03.520"/>
    <blank length="00:00:58.200"/>
    <entry producer="producer159" in="00:00:00.000" out="00:00:11.960"/>
  </playlist>
  <producer id="producer160" in="00:00:00.000" out="00:05:48.040">
    <property name="length">00:05:48.080</property>
    <property name="eof">pause</property>
    <property name="resource">sources/videos/mp4/bigggns_the_final_frontier_1080p_30fps_h264-128kbit_aac.mp4</property>
    <property name="audio_index">1</property>
    <property name="video_index">0</property>
    <property name="mute_on_pause">0</property>
    <property name="mlt_service">avformat-novalidate</property>
    <property name="seekable">1</property>
    <property name="aspect_ratio">1</property>
    <property name="creation_time">2021-03-05T15:51:28</property>
    <property name="shotcut:hash">f2859b818454205b449eb42135a9da67</property>
    <property name="ignore_points">0</property>
    <property name="shotcut:caption">bigggns_the_final_frontier_1080p_30fps_h264-128kbit_aac.mp4</property>
    <property name="global_feed">1</property>
    <property name="xml">was here</property>
    <filter id="filter336" in="00:00:22.800" out="00:00:26.160">
      <property name="background">color:#00000000</property>
      <property name="mlt_service">affine</property>
      <property name="shotcut:filter">affineSizePosition</property>
      <property name="transition.fill">1</property>
      <property name="transition.distort">0</property>
      <property name="transition.rect">1019.5 570.709 899.368 505.895 1</property>
      <property name="transition.valign">middle</property>
      <property name="transition.halign">center</property>
      <property name="shotcut:animIn">00:00:00.000</property>
      <property name="shotcut:animOut">00:00:00.000</property>
      <property name="transition.threads">0</property>
      <property name="transition.fix_rotate_x">0</property>
    </filter>
  </producer>
  <producer id="producer161" in="00:00:00.000" out="00:03:36.360">
    <property name="length">00:03:36.400</property>
    <property name="eof">pause</property>
    <property name="resource">1.59:sources/videos/mp4/bigggns_disordered_mind_1080p_30fps_h264_128kbit_aac.mp4</property>
    <property name="aspect_ratio">1</property>
    <property name="seekable">1</property>
    <property name="audio_index">1</property>
    <property name="video_index">0</property>
    <property name="mute_on_pause">1</property>
    <property name="warp_speed">1.59</property>
    <property name="warp_resource">sources/videos/mp4/bigggns_disordered_mind_1080p_30fps_h264_128kbit_aac.mp4</property>
    <property name="mlt_service">timewarp</property>
    <property name="shotcut:producer">avformat</property>
    <property name="video_delay">0</property>
    <property name="shotcut:hash">bbf3d1d5b319c35c50173dbac19e9614</property>
    <property name="shotcut:caption">bigggns_disordered_mind_1080p_30fps_h264_128kbit_aac.mp4 (1.59x)</property>
    <property name="global_feed">1</property>
    <property name="xml">was here</property>
    <filter id="filter337" in="00:01:05.240" out="00:01:08.080">
      <property name="background">color:#00000000</property>
      <property name="mlt_service">affine</property>
      <property name="shotcut:filter">affineSizePosition</property>
      <property name="transition.fill">1</property>
      <property name="transition.distort">0</property>
      <property name="transition.rect">69.5348 36.3536 1849.33 1040.25 1</property>
      <property name="transition.valign">middle</property>
      <property name="transition.halign">center</property>
      <property name="shotcut:animIn">00:00:00.000</property>
      <property name="shotcut:animOut">00:00:00.000</property>
      <property name="transition.threads">0</property>
      <property name="transition.fix_rotate_x">0</property>
    </filter>
    <filter id="filter338" in="00:01:05.240" out="00:01:08.080">
      <property name="window">75</property>
      <property name="max_gain">20dB</property>
      <property name="level">-15</property>
      <property name="mlt_service">volume</property>
    </filter>
    <filter id="filter339" in="00:01:05.240" out="00:01:08.080">
      <property name="background">color:#00000000</property>
      <property name="mlt_service">affine</property>
      <property name="shotcut:filter">affineSizePosition</property>
      <property name="transition.fill">1</property>
      <property name="transition.distort">0</property>
      <property name="transition.rect">1019.5 570.709 899.368 505.895 1</property>
      <property name="transition.valign">middle</property>
      <property name="transition.halign">center</property>
      <property name="shotcut:animIn">00:00:00.000</property>
      <property name="shotcut:animOut">00:00:00.000</property>
      <property name="transition.threads">0</property>
      <property name="transition.fix_rotate_x">0</property>
    </filter>
  </producer>
  <producer id="producer162" in="00:00:00.000" out="00:06:55.720">
    <property name="length">00:06:55.760</property>
    <property name="eof">pause</property>
    <property name="resource">sources/videos/mp4/shaban_and_kaeptn_peng_sie_moegen_sich_720p_24fps_h264_128kbit_aac.mp4</property>
    <property name="audio_index">1</property>
    <property name="video_index">0</property>
    <property name="mute_on_pause">0</property>
    <property name="mlt_service">avformat-novalidate</property>
    <property name="seekable">1</property>
    <property name="aspect_ratio">1</property>
    <property name="shotcut:hash">0036066d7a513a89136e115830fd1bbb</property>
    <property name="ignore_points">0</property>
    <property name="shotcut:caption">shaban_and_kaeptn_peng_sie_moegen_sich_720p_24fps_h264_128kbit_aac.mp4</property>
    <property name="global_feed">1</property>
    <property name="xml">was here</property>
    <filter id="filter340" in="00:00:25.240" out="00:00:28.120">
      <property name="background">color:#00000000</property>
      <property name="mlt_service">affine</property>
      <property name="shotcut:filter">affineSizePosition</property>
      <property name="transition.fill">1</property>
      <property name="transition.distort">0</property>
      <property name="transition.rect">69.5348 36.3536 1849.33 1040.25 1</property>
      <property name="transition.valign">middle</property>
      <property name="transition.halign">center</property>
      <property name="shotcut:animIn">00:00:00.000</property>
      <property name="shotcut:animOut">00:00:00.000</property>
      <property name="transition.threads">0</property>
      <property name="transition.fix_rotate_x">0</property>
    </filter>
    <filter id="filter341" in="00:00:25.240" out="00:00:28.120">
      <property name="background">color:#00000000</property>
      <property name="mlt_service">affine</property>
      <property name="shotcut:filter">affineSizePosition</property>
      <property name="transition.fill">1</property>
      <property name="transition.distort">0</property>
      <property name="transition.rect">1019.5 570.709 899.368 505.895 1</property>
      <property name="transition.valign">middle</property>
      <property name="transition.halign">center</property>
      <property name="shotcut:animIn">00:00:00.000</property>
      <property name="shotcut:animOut">00:00:00.000</property>
      <property name="transition.threads">0</property>
      <property name="transition.fix_rotate_x">0</property>
    </filter>
  </producer>
  <producer id="producer163" in="00:00:00.000" out="00:06:55.720">
    <property name="length">00:06:55.760</property>
    <property name="eof">pause</property>
    <property name="resource">sources/videos/mp4/shaban_and_kaeptn_peng_sie_moegen_sich_720p_24fps_h264_128kbit_aac.mp4</property>
    <property name="audio_index">1</property>
    <property name="video_index">0</property>
    <property name="mute_on_pause">0</property>
    <property name="mlt_service">avformat-novalidate</property>
    <property name="seekable">1</property>
    <property name="aspect_ratio">1</property>
    <property name="shotcut:hash">0036066d7a513a89136e115830fd1bbb</property>
    <property name="ignore_points">0</property>
    <property name="shotcut:caption">shaban_and_kaeptn_peng_sie_moegen_sich_720p_24fps_h264_128kbit_aac.mp4</property>
    <property name="global_feed">1</property>
    <property name="xml">was here</property>
    <filter id="filter342" in="00:00:29.120" out="00:00:32.800">
      <property name="background">color:#00000000</property>
      <property name="mlt_service">affine</property>
      <property name="shotcut:filter">affineSizePosition</property>
      <property name="transition.fill">1</property>
      <property name="transition.distort">0</property>
      <property name="transition.rect">69.5348 36.3536 1849.33 1040.25 1</property>
      <property name="transition.valign">middle</property>
      <property name="transition.halign">center</property>
      <property name="shotcut:animIn">00:00:00.000</property>
      <property name="shotcut:animOut">00:00:00.000</property>
      <property name="transition.threads">0</property>
      <property name="transition.fix_rotate_x">0</property>
    </filter>
    <filter id="filter343" in="00:00:29.120" out="00:00:32.800">
      <property name="background">color:#00000000</property>
      <property name="mlt_service">affine</property>
      <property name="shotcut:filter">affineSizePosition</property>
      <property name="transition.fill">1</property>
      <property name="transition.distort">0</property>
      <property name="transition.rect">1019.5 570.709 899.368 505.895 1</property>
      <property name="transition.valign">middle</property>
      <property name="transition.halign">center</property>
      <property name="shotcut:animIn">00:00:00.000</property>
      <property name="shotcut:animOut">00:00:00.000</property>
      <property name="transition.threads">0</property>
      <property name="transition.fix_rotate_x">0</property>
    </filter>
  </producer>
  <producer id="producer164" in="00:00:00.000" out="00:05:48.040">
    <property name="length">00:05:48.080</property>
    <property name="eof">pause</property>
    <property name="resource">sources/videos/mp4/bigggns_the_final_frontier_1080p_30fps_h264-128kbit_aac.mp4</property>
    <property name="audio_index">1</property>
    <property name="video_index">0</property>
    <property name="mute_on_pause">0</property>
    <property name="mlt_service">avformat-novalidate</property>
    <property name="seekable">1</property>
    <property name="aspect_ratio">1</property>
    <property name="creation_time">2021-03-05T15:51:28</property>
    <property name="shotcut:hash">f2859b818454205b449eb42135a9da67</property>
    <property name="ignore_points">0</property>
    <property name="shotcut:caption">bigggns_the_final_frontier_1080p_30fps_h264-128kbit_aac.mp4</property>
    <property name="global_feed">1</property>
    <property name="xml">was here</property>
    <filter id="filter344" in="00:00:22.800" out="00:00:26.160">
      <property name="background">color:#00000000</property>
      <property name="mlt_service">affine</property>
      <property name="shotcut:filter">affineSizePosition</property>
      <property name="transition.fill">1</property>
      <property name="transition.distort">0</property>
      <property name="transition.rect">1019.5 570.709 899.368 505.895 1</property>
      <property name="transition.valign">middle</property>
      <property name="transition.halign">center</property>
      <property name="shotcut:animIn">00:00:00.000</property>
      <property name="shotcut:animOut">00:00:00.000</property>
      <property name="transition.threads">0</property>
      <property name="transition.fix_rotate_x">0</property>
    </filter>
  </producer>
  <producer id="producer165" in="00:00:00.000" out="00:04:05.720">
    <property name="length">00:04:05.760</property>
    <property name="eof">pause</property>
    <property name="resource">1.4:sources/videos/mp4/bigggns_disordered_mind_1080p_30fps_h264_128kbit_aac.mp4</property>
    <property name="aspect_ratio">1</property>
    <property name="seekable">1</property>
    <property name="audio_index">1</property>
    <property name="video_index">0</property>
    <property name="mute_on_pause">1</property>
    <property name="warp_speed">1.4</property>
    <property name="warp_resource">sources/videos/mp4/bigggns_disordered_mind_1080p_30fps_h264_128kbit_aac.mp4</property>
    <property name="mlt_service">timewarp</property>
    <property name="shotcut:producer">avformat</property>
    <property name="video_delay">0</property>
    <property name="shotcut:hash">bbf3d1d5b319c35c50173dbac19e9614</property>
    <property name="shotcut:caption">bigggns_disordered_mind_1080p_30fps_h264_128kbit_aac.mp4</property>
    <property name="global_feed">1</property>
    <property name="xml">was here</property>
    <filter id="filter345" in="00:01:14.120" out="00:01:17.600">
      <property name="background">color:#00000000</property>
      <property name="mlt_service">affine</property>
      <property name="shotcut:filter">affineSizePosition</property>
      <property name="transition.fill">1</property>
      <property name="transition.distort">0</property>
      <property name="transition.rect">69.5348 36.3536 1849.33 1040.25 1</property>
      <property name="transition.valign">middle</property>
      <property name="transition.halign">center</property>
      <property name="shotcut:animIn">00:00:00.000</property>
      <property name="shotcut:animOut">00:00:00.000</property>
      <property name="transition.threads">0</property>
      <property name="transition.fix_rotate_x">0</property>
    </filter>
    <filter id="filter346" in="00:01:14.120" out="00:01:17.600">
      <property name="background">color:#00000000</property>
      <property name="mlt_service">affine</property>
      <property name="shotcut:filter">affineSizePosition</property>
      <property name="transition.fill">1</property>
      <property name="transition.distort">0</property>
      <property name="transition.rect">1019.5 570.709 899.368 505.895 1</property>
      <property name="transition.valign">middle</property>
      <property name="transition.halign">center</property>
      <property name="shotcut:animIn">00:00:00.000</property>
      <property name="shotcut:animOut">00:00:00.000</property>
      <property name="transition.threads">0</property>
      <property name="transition.fix_rotate_x">0</property>
    </filter>
  </producer>
  <producer id="producer166" in="00:00:00.000" out="00:06:55.720">
    <property name="length">00:06:55.760</property>
    <property name="eof">pause</property>
    <property name="resource">sources/videos/mp4/shaban_and_kaeptn_peng_sie_moegen_sich_720p_24fps_h264_128kbit_aac.mp4</property>
    <property name="audio_index">1</property>
    <property name="video_index">0</property>
    <property name="mute_on_pause">0</property>
    <property name="mlt_service">avformat-novalidate</property>
    <property name="seekable">1</property>
    <property name="aspect_ratio">1</property>
    <property name="shotcut:hash">0036066d7a513a89136e115830fd1bbb</property>
    <property name="ignore_points">0</property>
    <property name="shotcut:caption">shaban_and_kaeptn_peng_sie_moegen_sich_720p_24fps_h264_128kbit_aac.mp4</property>
    <property name="global_feed">1</property>
    <property name="xml">was here</property>
    <filter id="filter347" in="00:00:25.240" out="00:00:28.200">
      <property name="background">color:#00000000</property>
      <property name="mlt_service">affine</property>
      <property name="shotcut:filter">affineSizePosition</property>
      <property name="transition.fill">1</property>
      <property name="transition.distort">0</property>
      <property name="transition.rect">69.5348 36.3536 1849.33 1040.25 1</property>
      <property name="transition.valign">middle</property>
      <property name="transition.halign">center</property>
      <property name="shotcut:animIn">00:00:00.000</property>
      <property name="shotcut:animOut">00:00:00.000</property>
      <property name="transition.threads">0</property>
      <property name="transition.fix_rotate_x">0</property>
    </filter>
    <filter id="filter348" in="00:00:25.240" out="00:00:28.200">
      <property name="background">color:#00000000</property>
      <property name="mlt_service">affine</property>
      <property name="shotcut:filter">affineSizePosition</property>
      <property name="transition.fill">1</property>
      <property name="transition.distort">0</property>
      <property name="transition.rect">1019.5 570.709 899.368 505.895 1</property>
      <property name="transition.valign">middle</property>
      <property name="transition.halign">center</property>
      <property name="shotcut:animIn">00:00:00.000</property>
      <property name="shotcut:animOut">00:00:00.000</property>
      <property name="transition.threads">0</property>
      <property name="transition.fix_rotate_x">0</property>
    </filter>
  </producer>
  <producer id="producer167" in="00:00:00.000" out="00:06:55.720">
    <property name="length">00:06:55.760</property>
    <property name="eof">pause</property>
    <property name="resource">sources/videos/mp4/shaban_and_kaeptn_peng_sie_moegen_sich_720p_24fps_h264_128kbit_aac.mp4</property>
    <property name="audio_index">1</property>
    <property name="video_index">0</property>
    <property name="mute_on_pause">0</property>
    <property name="mlt_service">avformat-novalidate</property>
    <property name="seekable">1</property>
    <property name="aspect_ratio">1</property>
    <property name="shotcut:hash">0036066d7a513a89136e115830fd1bbb</property>
    <property name="ignore_points">0</property>
    <property name="shotcut:caption">shaban_and_kaeptn_peng_sie_moegen_sich_720p_24fps_h264_128kbit_aac.mp4</property>
    <property name="global_feed">1</property>
    <property name="xml">was here</property>
    <filter id="filter349" in="00:00:29.600" out="00:00:32.800">
      <property name="background">color:#00000000</property>
      <property name="mlt_service">affine</property>
      <property name="shotcut:filter">affineSizePosition</property>
      <property name="transition.fill">1</property>
      <property name="transition.distort">0</property>
      <property name="transition.rect">69.5348 36.3536 1849.33 1040.25 1</property>
      <property name="transition.valign">middle</property>
      <property name="transition.halign">center</property>
      <property name="shotcut:animIn">00:00:00.000</property>
      <property name="shotcut:animOut">00:00:00.000</property>
      <property name="transition.threads">0</property>
      <property name="transition.fix_rotate_x">0</property>
    </filter>
    <filter id="filter350" in="00:00:29.600" out="00:00:32.800">
      <property name="background">color:#00000000</property>
      <property name="mlt_service">affine</property>
      <property name="shotcut:filter">affineSizePosition</property>
      <property name="transition.fill">1</property>
      <property name="transition.distort">0</property>
      <property name="transition.rect">1019.5 570.709 899.368 505.895 1</property>
      <property name="transition.valign">middle</property>
      <property name="transition.halign">center</property>
      <property name="shotcut:animIn">00:00:00.000</property>
      <property name="shotcut:animOut">00:00:00.000</property>
      <property name="transition.threads">0</property>
      <property name="transition.fix_rotate_x">0</property>
    </filter>
  </producer>
  <producer id="producer168" in="00:00:00.000" out="03:59:59.960">
    <property name="length">04:00:00.000</property>
    <property name="eof">pause</property>
    <property name="resource">sources/images/jpg/rudolf_heß_maertyrer_fuer_den_frieden.jpg</property>
    <property name="ttl">1</property>
    <property name="aspect_ratio">1</property>
    <property name="progressive">1</property>
    <property name="seekable">1</property>
    <property name="mlt_service">qimage</property>
    <property name="shotcut:caption">rudolf_heß_maertyrer_fuer_den_frieden.jpg</property>
    <property name="shotcut:hash">4f47d9687fab84b30aca4f9346799569</property>
    <property name="ignore_points">0</property>
    <property name="global_feed">1</property>
    <property name="xml">was here</property>
    <filter id="filter351" out="00:00:04.400">
      <property name="background">color:#00000000</property>
      <property name="mlt_service">affine</property>
      <property name="shotcut:filter">affineSizePosition</property>
      <property name="transition.fill">1</property>
      <property name="transition.distort">0</property>
      <property name="transition.rect">804.437 561.94 300 444.444 1</property>
      <property name="transition.valign">middle</property>
      <property name="transition.halign">center</property>
      <property name="shotcut:animIn">00:00:00.000</property>
      <property name="shotcut:animOut">00:00:00.000</property>
      <property name="transition.threads">0</property>
    </filter>
    <filter id="filter352" out="00:00:04.400">
      <property name="start">1</property>
      <property name="level">00:00:03.440=1;00:00:04.400=0</property>
      <property name="mlt_service">brightness</property>
      <property name="shotcut:filter">fadeOutBrightness</property>
      <property name="alpha">1</property>
      <property name="shotcut:animOut">00:00:01.000</property>
    </filter>
    <filter id="filter353" out="00:00:04.400">
      <property name="start">1</property>
      <property name="level">00:00:00.000=0;00:00:00.960=1</property>
      <property name="mlt_service">brightness</property>
      <property name="shotcut:filter">fadeInBrightness</property>
      <property name="alpha">1</property>
      <property name="shotcut:animIn">00:00:01.000</property>
    </filter>
  </producer>
  <producer id="producer169" in="00:00:00.000" out="00:03:46.640">
    <property name="length">00:03:46.680</property>
    <property name="eof">pause</property>
    <property name="resource">sources/videos/mp4/slime_deutschland_muss_sterben_288p_25fps_h264_96kbit_aac.mp4</property>
    <property name="audio_index">1</property>
    <property name="video_index">0</property>
    <property name="mute_on_pause">0</property>
    <property name="mlt_service">avformat-novalidate</property>
    <property name="seekable">1</property>
    <property name="aspect_ratio">1</property>
    <property name="creation_time">2017-11-24T15:31:34</property>
    <property name="shotcut:hash">da48fd6d4a099779cd2af1ff0c119bb5</property>
    <property name="ignore_points">0</property>
    <property name="shotcut:caption">slime_deutschland_muss_sterben_288p_25fps_h264_96kbit_aac.mp4</property>
    <property name="global_feed">1</property>
    <property name="xml">was here</property>
    <filter id="filter354" in="00:00:35.080" out="00:00:44.080">
      <property name="background">color:#00000000</property>
      <property name="mlt_service">affine</property>
      <property name="shotcut:filter">affineSizePosition</property>
      <property name="transition.fill">1</property>
      <property name="transition.distort">0</property>
      <property name="transition.rect">229.508 562.361 639.825 479.869 1</property>
      <property name="transition.valign">middle</property>
      <property name="transition.halign">center</property>
      <property name="shotcut:animIn">00:00:00.000</property>
      <property name="shotcut:animOut">00:00:00.000</property>
      <property name="transition.threads">0</property>
    </filter>
    <filter id="filter355" in="00:00:35.080" out="00:00:44.080">
      <property name="start">1</property>
      <property name="level">00:00:00.000=0;00:00:00.960=1</property>
      <property name="mlt_service">brightness</property>
      <property name="shotcut:filter">fadeInBrightness</property>
      <property name="alpha">1</property>
      <property name="shotcut:animIn">00:00:01.000</property>
    </filter>
    <filter id="filter356" in="00:00:35.080" out="00:00:44.080">
      <property name="start">1</property>
      <property name="level">00:00:08.040=1;00:00:09.000=0</property>
      <property name="mlt_service">brightness</property>
      <property name="shotcut:filter">fadeOutBrightness</property>
      <property name="alpha">1</property>
      <property name="shotcut:animOut">00:00:01.000</property>
    </filter>
  </producer>
  <playlist id="playlist6">
    <property name="shotcut:video">1</property>
    <property name="shotcut:name">V6</property>
    <blank length="00:05:51.480"/>
    <entry producer="producer160" in="00:00:22.800" out="00:00:26.160"/>
    <blank length="00:00:01.040"/>
    <entry producer="producer161" in="00:01:05.240" out="00:01:08.080"/>
    <blank length="00:00:01.160"/>
    <entry producer="producer162" in="00:00:25.240" out="00:00:28.120"/>
    <blank length="00:00:00.960"/>
    <entry producer="producer163" in="00:00:29.120" out="00:00:32.800"/>
    <blank length="00:02:07.920"/>
    <entry producer="producer164" in="00:00:22.800" out="00:00:26.160"/>
    <blank length="00:00:00.480"/>
    <entry producer="producer165" in="00:01:14.120" out="00:01:17.600"/>
    <blank length="00:00:00.760"/>
    <entry producer="producer166" in="00:00:25.240" out="00:00:28.200"/>
    <blank length="00:00:01.360"/>
    <entry producer="producer167" in="00:00:29.600" out="00:00:32.800"/>
    <blank length="00:04:22.080"/>
    <entry producer="producer168" in="00:00:00.000" out="00:00:04.400"/>
    <blank length="00:00:47.120"/>
    <entry producer="producer169" in="00:00:35.080" out="00:00:44.080"/>
  </playlist>
  <producer id="producer170" in="00:00:00.000" out="03:59:59.960">
    <property name="length">04:00:00.000</property>
    <property name="eof">pause</property>
    <property name="resource">sources/images/jpg/willhelm_keitel.jpg</property>
    <property name="ttl">1</property>
    <property name="aspect_ratio">1</property>
    <property name="progressive">1</property>
    <property name="seekable">1</property>
    <property name="mlt_service">qimage</property>
    <property name="creation_time">2021-03-08T04:21:30</property>
    <property name="shotcut:caption">willhelm_keitel.jpg</property>
    <property name="shotcut:hash">f6f5138124933ace46f1fcd203e19629</property>
    <property name="ignore_points">0</property>
    <property name="global_feed">1</property>
    <property name="xml">was here</property>
    <filter id="filter357" out="00:00:04.400">
      <property name="background">color:#00000000</property>
      <property name="mlt_service">affine</property>
      <property name="shotcut:filter">affineSizePosition</property>
      <property name="transition.fill">1</property>
      <property name="transition.distort">0</property>
      <property name="transition.rect">1234.97 30 227 448.659 1</property>
      <property name="transition.valign">middle</property>
      <property name="transition.halign">center</property>
      <property name="shotcut:animIn">00:00:00.000</property>
      <property name="shotcut:animOut">00:00:00.000</property>
      <property name="transition.threads">0</property>
    </filter>
    <filter id="filter358" out="00:00:04.400">
      <property name="start">1</property>
      <property name="level">00:00:00.000=0;00:00:00.960=1</property>
      <property name="mlt_service">brightness</property>
      <property name="shotcut:filter">fadeInBrightness</property>
      <property name="alpha">1</property>
      <property name="shotcut:animIn">00:00:01.000</property>
    </filter>
    <filter id="filter359" out="00:00:04.400">
      <property name="start">1</property>
      <property name="level">00:00:03.440=1;00:00:04.400=0</property>
      <property name="mlt_service">brightness</property>
      <property name="shotcut:filter">fadeOutBrightness</property>
      <property name="alpha">1</property>
      <property name="shotcut:animOut">00:00:01.000</property>
    </filter>
  </producer>
  <playlist id="playlist7">
    <property name="shotcut:video">1</property>
    <property name="shotcut:name">V7</property>
    <blank length="00:12:53.320"/>
    <entry producer="producer170" in="00:00:00.000" out="00:00:04.400"/>
  </playlist>
  <producer id="producer171" in="00:00:00.000" out="03:59:59.960">
    <property name="length">04:00:00.000</property>
    <property name="eof">pause</property>
    <property name="resource">sources/images/jpg/major_wilhelm.jpg</property>
    <property name="ttl">1</property>
    <property name="aspect_ratio">1</property>
    <property name="progressive">1</property>
    <property name="seekable">1</property>
    <property name="mlt_service">qimage</property>
    <property name="creation_time">2021-03-08T04:22:40</property>
    <property name="shotcut:caption">major_wilhelm.jpg</property>
    <property name="shotcut:hash">3c6fc4f8e782be61daf4e90e743f12d6</property>
    <property name="ignore_points">0</property>
    <property name="global_feed">1</property>
    <property name="xml">was here</property>
    <filter id="filter360" out="00:00:04.400">
      <property name="background">color:#00000000</property>
      <property name="mlt_service">affine</property>
      <property name="shotcut:filter">affineSizePosition</property>
      <property name="transition.fill">1</property>
      <property name="transition.distort">0</property>
      <property name="transition.rect">800 30 357 449.371 1</property>
      <property name="transition.valign">middle</property>
      <property name="transition.halign">center</property>
      <property name="shotcut:animIn">00:00:00.000</property>
      <property name="shotcut:animOut">00:00:00.000</property>
      <property name="transition.threads">0</property>
    </filter>
    <filter id="filter361" out="00:00:04.400">
      <property name="start">1</property>
      <property name="level">00:00:00.000=0;00:00:00.960=1</property>
      <property name="mlt_service">brightness</property>
      <property name="shotcut:filter">fadeInBrightness</property>
      <property name="alpha">1</property>
      <property name="shotcut:animIn">00:00:01.000</property>
    </filter>
    <filter id="filter362" out="00:00:04.400">
      <property name="start">1</property>
      <property name="level">00:00:03.440=1;00:00:04.400=0</property>
      <property name="mlt_service">brightness</property>
      <property name="shotcut:filter">fadeOutBrightness</property>
      <property name="alpha">1</property>
      <property name="shotcut:animOut">00:00:01.000</property>
    </filter>
  </producer>
  <playlist id="playlist8">
    <property name="shotcut:video">1</property>
    <property name="shotcut:name">V8</property>
    <blank length="00:12:53.320"/>
    <entry producer="producer171" in="00:00:00.000" out="00:00:04.400"/>
  </playlist>
  <producer id="producer172" in="00:00:00.000" out="03:59:59.960">
    <property name="length">04:00:00.000</property>
    <property name="eof">pause</property>
    <property name="resource">sources/images/jpg/hans_juergen_strump.jpg</property>
    <property name="ttl">1</property>
    <property name="aspect_ratio">1</property>
    <property name="progressive">1</property>
    <property name="seekable">1</property>
    <property name="mlt_service">qimage</property>
    <property name="creation_time">2021-03-08T04:27:02</property>
    <property name="shotcut:caption">hans_juergen_strump.jpg</property>
    <property name="shotcut:hash">8ea2ac037db97f12ad8bafd5f142c312</property>
    <property name="ignore_points">0</property>
    <property name="global_feed">1</property>
    <property name="xml">was here</property>
    <filter id="filter363" out="00:00:04.400">
      <property name="background">color:#00000000</property>
      <property name="mlt_service">affine</property>
      <property name="shotcut:filter">affineSizePosition</property>
      <property name="transition.fill">1</property>
      <property name="transition.distort">0</property>
      <property name="transition.rect">1530.06 30 337 449.333 1</property>
      <property name="transition.valign">middle</property>
      <property name="transition.halign">center</property>
      <property name="shotcut:animIn">00:00:00.000</property>
      <property name="shotcut:animOut">00:00:00.000</property>
      <property name="transition.threads">0</property>
    </filter>
    <filter id="filter364" out="00:00:04.400">
      <property name="start">1</property>
      <property name="level">00:00:00.000=0;00:00:00.960=1</property>
      <property name="mlt_service">brightness</property>
      <property name="shotcut:filter">fadeInBrightness</property>
      <property name="alpha">1</property>
      <property name="shotcut:animIn">00:00:01.000</property>
    </filter>
    <filter id="filter365" out="00:00:04.400">
      <property name="start">1</property>
      <property name="level">00:00:03.440=1;00:00:04.400=0</property>
      <property name="mlt_service">brightness</property>
      <property name="shotcut:filter">fadeOutBrightness</property>
      <property name="alpha">1</property>
      <property name="shotcut:animOut">00:00:01.000</property>
    </filter>
  </producer>
  <playlist id="playlist9">
    <property name="shotcut:video">1</property>
    <property name="shotcut:name">V9</property>
    <blank length="00:12:53.320"/>
    <entry producer="producer172" in="00:00:00.000" out="00:00:04.400"/>
  </playlist>
  <tractor id="tractor2" title="Shotcut version 21.02.27" global_feed="1" in="00:00:00.000" out="00:14:25.040">
    <property name="shotcut">1</property>
    <property name="shotcut:scaleFactor">5.85831</property>
    <property name="shotcut:projectAudioChannels">2</property>
    <property name="shotcut:projectFolder">0</property>
    <track producer="background"/>
    <track producer="playlist1"/>
    <track producer="playlist0"/>
    <track producer="playlist2"/>
    <track producer="playlist3"/>
    <track producer="playlist4"/>
    <track producer="playlist5" hide="video"/>
    <track producer="playlist6"/>
    <track producer="playlist7"/>
    <track producer="playlist8"/>
    <track producer="playlist9"/>
    <transition id="transition6">
      <property name="a_track">1</property>
      <property name="b_track">1</property>
      <property name="version">0.9</property>
      <property name="mlt_service">frei0r.cairoblend</property>
      <property name="threads">0</property>
      <property name="disable">1</property>
    </transition>
    <transition id="transition4">
      <property name="a_track">1</property>
      <property name="b_track">2</property>
      <property name="version">0.9</property>
      <property name="mlt_service">frei0r.cairoblend</property>
      <property name="threads">0</property>
    </transition>
    <transition id="transition7">
      <property name="a_track">1</property>
      <property name="b_track">3</property>
      <property name="version">0.9</property>
      <property name="mlt_service">frei0r.cairoblend</property>
      <property name="threads">0</property>
    </transition>
    <transition id="transition8">
      <property name="a_track">0</property>
      <property name="b_track">4</property>
      <property name="mlt_service">mix</property>
      <property name="always_active">1</property>
      <property name="sum">1</property>
    </transition>
    <transition id="transition9">
      <property name="a_track">1</property>
      <property name="b_track">4</property>
      <property name="version">0.9</property>
      <property name="mlt_service">frei0r.cairoblend</property>
      <property name="threads">0</property>
      <property name="disable">0</property>
    </transition>
    <transition id="transition10">
      <property name="a_track">0</property>
      <property name="b_track">1</property>
      <property name="mlt_service">mix</property>
      <property name="always_active">1</property>
      <property name="sum">1</property>
    </transition>
    <transition id="transition11">
      <property name="a_track">0</property>
      <property name="b_track">3</property>
      <property name="mlt_service">mix</property>
      <property name="always_active">1</property>
      <property name="sum">1</property>
    </transition>
    <transition id="transition5">
      <property name="a_track">0</property>
      <property name="b_track">5</property>
      <property name="mlt_service">mix</property>
      <property name="always_active">1</property>
      <property name="sum">1</property>
    </transition>
    <transition id="transition12">
      <property name="a_track">1</property>
      <property name="b_track">5</property>
      <property name="version">0.9</property>
      <property name="mlt_service">frei0r.cairoblend</property>
      <property name="threads">0</property>
      <property name="disable">0</property>
    </transition>
    <transition id="transition13">
      <property name="a_track">0</property>
      <property name="b_track">6</property>
      <property name="mlt_service">mix</property>
      <property name="always_active">1</property>
      <property name="sum">1</property>
    </transition>
    <transition id="transition14">
      <property name="a_track">0</property>
      <property name="b_track">2</property>
      <property name="mlt_service">mix</property>
      <property name="always_active">1</property>
      <property name="sum">1</property>
    </transition>
    <transition id="transition15">
      <property name="a_track">0</property>
      <property name="b_track">7</property>
      <property name="mlt_service">mix</property>
      <property name="always_active">1</property>
      <property name="sum">1</property>
    </transition>
    <transition id="transition16">
      <property name="a_track">1</property>
      <property name="b_track">7</property>
      <property name="version">0.9</property>
      <property name="mlt_service">frei0r.cairoblend</property>
      <property name="threads">0</property>
      <property name="disable">0</property>
    </transition>
    <transition id="transition0">
      <property name="a_track">0</property>
      <property name="b_track">8</property>
      <property name="mlt_service">mix</property>
      <property name="always_active">1</property>
      <property name="sum">1</property>
    </transition>
    <transition id="transition1">
      <property name="a_track">1</property>
      <property name="b_track">8</property>
      <property name="version">0.9</property>
      <property name="mlt_service">frei0r.cairoblend</property>
      <property name="threads">0</property>
      <property name="disable">0</property>
    </transition>
    <transition id="transition2">
      <property name="a_track">0</property>
      <property name="b_track">9</property>
      <property name="mlt_service">mix</property>
      <property name="always_active">1</property>
      <property name="sum">1</property>
    </transition>
    <transition id="transition3">
      <property name="a_track">1</property>
      <property name="b_track">9</property>
      <property name="version">0.9</property>
      <property name="mlt_service">frei0r.cairoblend</property>
      <property name="threads">0</property>
      <property name="disable">0</property>
    </transition>
    <transition id="transition17">
      <property name="a_track">0</property>
      <property name="b_track">10</property>
      <property name="mlt_service">mix</property>
      <property name="always_active">1</property>
      <property name="sum">1</property>
    </transition>
    <transition id="transition18">
      <property name="a_track">1</property>
      <property name="b_track">10</property>
      <property name="version">0.9</property>
      <property name="mlt_service">frei0r.cairoblend</property>
      <property name="threads">0</property>
      <property name="disable">0</property>
    </transition>
  </tractor>
</mlt>
